<?xml version="1.0" encoding="utf-8"?>
<!-- Generator: Adobe Illustrator 16.0.0, SVG Export Plug-In . SVG Version: 6.00 Build 0)  -->
<!DOCTYPE svg PUBLIC "-//W3C//DTD SVG 1.1//EN" "http://www.w3.org/Graphics/SVG/1.1/DTD/svg11.dtd">
<svg version="1.1" id="Layer_1" xmlns="http://www.w3.org/2000/svg" xmlns:xlink="http://www.w3.org/1999/xlink" x="0px" y="0px"
	 width="64px" height="64px" viewBox="0 0 64 64" enable-background="new 0 0 64 64" xml:space="preserve">
<path fill="#FFFFFF" d="M63.489,37.562c0.317-1.808,0.492-3.664,0.492-5.562c0-1.897-0.175-3.754-0.492-5.561l-7.854-1.099
	c-0.533-1.857-1.281-3.623-2.219-5.269l4.804-6.373c-2.142-3.062-4.803-5.729-7.859-7.876l-6.498,4.901
	c-1.608-0.869-3.327-1.557-5.129-2.045l-1.143-8.163C35.775,0.196,33.909,0.02,32,0.02c-1.882,0-3.722,0.172-5.514,0.483
	l-1.175,8.383c-1.687,0.515-3.293,1.212-4.801,2.063l-6.832-5.154c-3.06,2.143-5.725,4.807-7.87,7.864l5.241,6.956
	c-0.78,1.456-1.412,3.003-1.884,4.618l-8.655,1.21C0.194,28.249,0.02,30.104,0.02,32c0,1.897,0.175,3.754,0.492,5.561l8.642,1.21
	c0.47,1.623,1.103,3.177,1.884,4.64L5.814,50.35c2.153,3.067,4.83,5.738,7.902,7.884l6.808-5.124
	c1.503,0.848,3.104,1.542,4.785,2.056l1.164,8.331c1.796,0.312,3.641,0.485,5.526,0.485c1.914,0,3.785-0.178,5.607-0.5l1.133-8.112
	c1.796-0.487,3.51-1.173,5.114-2.038l6.477,4.869c3.069-2.151,5.741-4.826,7.889-7.897l-4.787-6.352
	c0.938-1.652,1.687-3.426,2.218-5.292L63.489,37.562z M32,46.5c-8.008,0-14.5-6.492-14.5-14.5S23.992,17.5,32,17.5
	S46.5,23.992,46.5,32S40.008,46.5,32,46.5z"/>
</svg>
