<?xml version="1.0" encoding="utf-8"?>
<!-- Generator: Adobe Illustrator 16.0.0, SVG Export Plug-In . SVG Version: 6.00 Build 0)  -->
<!DOCTYPE svg PUBLIC "-//W3C//DTD SVG 1.1//EN" "http://www.w3.org/Graphics/SVG/1.1/DTD/svg11.dtd">
<svg version="1.1" id="Layer_1" xmlns="http://www.w3.org/2000/svg" xmlns:xlink="http://www.w3.org/1999/xlink" x="0px" y="0px"
	 width="95px" height="103px" viewBox="0 0 95 103" enable-background="new 0 0 95 103" xml:space="preserve">
<pattern  width="200" height="200" patternUnits="userSpaceOnUse" id="New_Pattern_2" viewBox="0 -200 200 200" overflow="visible">
	<g>
		<polygon fill="none" points="0,-200 200,-200 200,0 0,0 		"/>
		<polygon fill="#152B2E" points="200,0 0,0 0,-200 200,-200 		"/>
		<g>
			<g>
				<path fill="#1E3D41" d="M19.182-166.922c0.001-0.023,0.001-0.045,0.001-0.066c0-0.929-0.764-1.684-1.704-1.684
					c-0.938,0-1.702,0.755-1.702,1.684c0,0.021,0,0.043,0.001,0.066c-0.617-0.482-0.985-1.205-0.985-1.986
					c0-1.416,1.206-2.567,2.688-2.567c1.481,0,2.687,1.151,2.687,2.567C20.167-168.129,19.799-167.404,19.182-166.922z"/>
				<path fill="#1E3D41" d="M15.128-170.918c-0.209-0.369-0.336-0.782-0.336-1.217c0-1.417,1.206-2.568,2.688-2.568
					c1.481,0,2.687,1.151,2.687,2.568c0,0.436-0.125,0.848-0.335,1.217c-0.579-0.627-1.413-1.031-2.353-1.031
					C16.542-171.949,15.707-171.545,15.128-170.918z"/>
			</g>
			<path fill="#1E3D41" d="M23.008-178.643c-0.226-0.379-0.361-0.807-0.361-1.258c0-1.416,1.205-2.568,2.686-2.568
				c1.484,0,2.688,1.152,2.688,2.568c0,0.453-0.137,0.879-0.359,1.258c-0.484-0.512-1.146-0.857-1.895-0.958
				c-0.139-0.036-0.283-0.062-0.434-0.062s-0.293,0.026-0.432,0.062C24.152-179.5,23.491-179.154,23.008-178.643z"/>
			<path fill="#1E3D41" d="M22.98-175.385c-0.209-0.369-0.334-0.783-0.334-1.218c0-1.416,1.205-2.568,2.686-2.568
				c1.482,0,2.688,1.151,2.688,2.568c0,0.435-0.127,0.849-0.336,1.217c-0.578-0.628-1.412-1.03-2.352-1.03
				C24.395-176.416,23.56-176.014,22.98-175.385z"/>
			<path fill="#1E3D41" d="M24.426-176.926l0.033,0.016l-0.033-0.075v-1.798c0.227-0.247,0.545-0.408,0.906-0.408
				c0.365,0,0.682,0.162,0.908,0.408v1.794l-0.035,0.079l0.035-0.018v0.654c-0.291-0.084-0.59-0.143-0.908-0.143
				c-0.316,0-0.617,0.059-0.906,0.143V-176.926z"/>
			<path fill="#1E3D41" d="M29.977-178.643c-0.226-0.379-0.362-0.807-0.362-1.258c0-1.416,1.206-2.568,2.688-2.568
				c1.48,0,2.686,1.152,2.686,2.568c0,0.453-0.136,0.879-0.359,1.258c-0.486-0.513-1.147-0.859-1.894-0.958
				c-0.141-0.036-0.283-0.062-0.435-0.062s-0.294,0.026-0.435,0.062C31.12-179.5,30.46-179.154,29.977-178.643z"/>
			<path fill="#1E3D41" d="M29.949-175.386c-0.21-0.368-0.335-0.782-0.335-1.217c0-1.416,1.205-2.568,2.687-2.568
				s2.687,1.151,2.687,2.568c0,0.437-0.126,0.849-0.335,1.217c-0.579-0.628-1.413-1.03-2.352-1.03
				C31.363-176.416,30.528-176.014,29.949-175.386z"/>
			<g>
				<path fill="#1E3D41" d="M41.002-181.494v12.99c0,3.129-2.539,5.668-5.67,5.668H14.666c-3.13,0-5.668-2.539-5.668-5.668v-12.99
					c0-3.131,2.538-5.67,5.668-5.67h20.666C38.463-187.164,41.002-184.625,41.002-181.494z M38.049-170.045v-10.027
					c0-2.416-2.07-4.375-4.623-4.375h-0.218v1.649c-0.29-0.083-0.59-0.143-0.907-0.143s-0.617,0.06-0.907,0.144v-1.65H26.24v1.65
					c-0.291-0.084-0.59-0.143-0.908-0.143c-0.316,0-0.617,0.059-0.906,0.143v-1.65h-6.04v9.414
					c-0.288-0.084-0.589-0.143-0.905-0.143c-0.318,0-0.619,0.06-0.907,0.143v-9.414c-2.553,0-4.623,1.959-4.623,4.376v10.026
					c0,2.416,2.07,4.375,4.623,4.375v-2.121c0.226-0.246,0.543-0.408,0.905-0.408c0.363,0,0.682,0.162,0.907,0.408v2.121h6.04v-6.59
					c0.227-0.246,0.545-0.408,0.906-0.408c0.365,0,0.682,0.162,0.908,0.408v6.59h5.153v-6.59c0.225-0.246,0.544-0.408,0.907-0.408
					c0.364,0,0.683,0.162,0.908,0.409v6.589h0.217C35.979-165.67,38.049-167.629,38.049-170.045L38.049-170.045z"/>
				<path fill="#1E3D41" d="M33.208-175.783v2.908c-0.264-0.166-0.573-0.266-0.908-0.266c-0.333,0-0.643,0.099-0.906,0.264v-2.906
					c0.284-0.098,0.589-0.16,0.907-0.16C32.621-175.943,32.924-175.882,33.208-175.783z"/>
			</g>
			<path fill="#1E3D41" d="M34.003-171.39c0.001-0.022,0.002-0.046,0.002-0.067c0-0.929-0.766-1.684-1.704-1.684
				c-0.939,0-1.705,0.756-1.705,1.684c0,0.021,0.002,0.043,0.003,0.066c-0.617-0.482-0.984-1.205-0.984-1.985
				c0-1.417,1.206-2.568,2.688-2.568c1.48,0,2.686,1.151,2.686,2.568C34.987-172.596,34.621-171.873,34.003-171.39z"/>
			<path fill="#1E3D41" d="M27.033-171.39c0.002-0.022,0.004-0.046,0.004-0.067c0-0.929-0.766-1.684-1.705-1.684
				s-1.705,0.756-1.705,1.684c0,0.021,0.001,0.043,0.002,0.066c-0.617-0.482-0.982-1.205-0.982-1.985
				c0-1.417,1.205-2.568,2.686-2.568c1.482,0,2.688,1.151,2.688,2.568C28.02-172.596,27.652-171.873,27.033-171.39z"/>
		</g>
		<g id="Layer_5_19_">
			<path fill="#1E3D41" d="M136.699-189.037v28.075h-23.396v-28.075H136.699z M119.152-167.201h-2.34v2.34h2.34V-167.201z
				 M119.152-171.88h-2.34v2.34h2.34V-171.88z M119.152-176.56h-2.34v2.339h2.34V-176.56z M123.83-167.201h-2.338v2.34h2.338
				V-167.201z M123.83-171.88h-2.338v2.34h2.338V-171.88z M123.83-176.56h-2.338v2.339h2.338V-176.56z M128.51-167.201h-2.338v2.34
				h2.338V-167.201z M128.51-171.88h-2.338v2.34h2.338V-171.88z M128.51-176.56h-2.338v2.339h2.338V-176.56z M133.189-167.201h-2.34
				v2.34h2.34V-167.201z M133.189-171.88h-2.34v2.34h2.34V-171.88z M133.189-176.56h-2.34v2.339h2.34V-176.56z M134.359-185.138
				h-18.717v4.68h18.717V-185.138z"/>
		</g>
		<polygon fill="#1E3D41" points="187.43,-181.217 186.01,-182.156 181.512,-175.457 177.385,-178.752 171.662,-176.436 
			171.662,-176.436 171.66,-176.436 169.494,-170.205 167.275,-175.195 165.742,-174.455 162.572,-170.502 163.922,-169.467 
			166.566,-172.75 168.934,-167.842 170.502,-167.934 170.504,-167.934 173.131,-175.486 177.137,-176.842 177.137,-176.842 
			182.109,-173.193 		"/>
		<path fill="#1E3D41" d="M90.645-174.999c0,4.062-3.305,7.366-7.366,7.366c-3.479,0-6.667-3.267-8.278-5.243
			c-1.611,1.977-4.801,5.243-8.278,5.243c-4.062,0-7.366-3.305-7.366-7.366s3.305-7.367,7.366-7.367
			c3.478,0,6.667,3.267,8.278,5.243c1.611-1.977,4.801-5.243,8.278-5.243C87.34-182.366,90.645-179.061,90.645-174.999z
			 M73.418-174.999c-1.387-1.798-4.227-4.809-6.696-4.809c-2.652,0-4.81,2.156-4.81,4.809c0,2.651,2.157,4.808,4.81,4.808
			C69.191-170.191,72.03-173.201,73.418-174.999z M88.086-175c0-2.651-2.156-4.809-4.808-4.809c-2.479,0-5.313,3.01-6.697,4.808
			c1.387,1.798,4.226,4.81,6.697,4.81C85.93-170.191,88.086-172.348,88.086-175z"/>
		<g id="Layer_5_18_">
			<path fill="#1E3D41" d="M86.699-139.037v28.075H63.303v-28.075H86.699z M69.152-117.201h-2.34v2.34h2.34V-117.201z
				 M69.152-121.88h-2.34v2.34h2.34V-121.88z M69.152-126.56h-2.34v2.339h2.34V-126.56z M73.83-117.201h-2.338v2.34h2.338V-117.201z
				 M73.83-121.88h-2.338v2.34h2.338V-121.88z M73.83-126.56h-2.338v2.339h2.338V-126.56z M78.51-117.201h-2.338v2.34h2.338
				V-117.201z M78.51-121.88h-2.338v2.34h2.338V-121.88z M78.51-126.56h-2.338v2.339h2.338V-126.56z M83.189-117.201h-2.34v2.34
				h2.34V-117.201z M83.189-121.88h-2.34v2.34h2.34V-121.88z M83.189-126.56h-2.34v2.339h2.34V-126.56z M84.359-135.138H65.643v4.68
				h18.717V-135.138z"/>
		</g>
		<g id="Layer_5_17_">
			<path fill="#1E3D41" d="M36.699-89.037v28.074H13.303v-28.074H36.699z M19.152-67.201h-2.34v2.34h2.34V-67.201z M19.152-71.881
				h-2.34v2.34h2.34V-71.881z M19.152-76.561h-2.34v2.34h2.34V-76.561z M23.83-67.201h-2.338v2.34h2.338V-67.201z M23.83-71.881
				h-2.338v2.34h2.338V-71.881z M23.83-76.561h-2.338v2.34h2.338V-76.561z M28.51-67.201h-2.338v2.34h2.338V-67.201z M28.51-71.881
				h-2.338v2.34h2.338V-71.881z M28.51-76.561h-2.338v2.34h2.338V-76.561z M33.189-67.201h-2.34v2.34h2.34V-67.201z M33.189-71.881
				h-2.34v2.34h2.34V-71.881z M33.189-76.561h-2.34v2.34h2.34V-76.561z M34.359-85.139H15.643v4.68h18.717V-85.139z"/>
		</g>
		<g id="Layer_5_16_">
			<path fill="#1E3D41" d="M186.699-39.037v28.074h-23.396v-28.074H186.699z M169.152-17.201h-2.34v2.34h2.34V-17.201z
				 M169.152-21.881h-2.34v2.34h2.34V-21.881z M169.152-26.561h-2.34v2.34h2.34V-26.561z M173.83-17.201h-2.338v2.34h2.338V-17.201z
				 M173.83-21.881h-2.338v2.34h2.338V-21.881z M173.83-26.561h-2.338v2.34h2.338V-26.561z M178.51-17.201h-2.338v2.34h2.338
				V-17.201z M178.51-21.881h-2.338v2.34h2.338V-21.881z M178.51-26.561h-2.338v2.34h2.338V-26.561z M183.189-17.201h-2.34v2.34
				h2.34V-17.201z M183.189-21.881h-2.34v2.34h2.34V-21.881z M183.189-26.561h-2.34v2.34h2.34V-26.561z M184.359-35.139h-18.717
				v4.68h18.717V-35.139z"/>
		</g>
		<polygon fill="#1E3D41" points="37.43,-131.217 36.01,-132.156 31.512,-125.457 27.385,-128.752 21.662,-126.436 21.662,-126.436 
			21.66,-126.436 19.494,-120.205 17.275,-125.195 15.742,-124.455 12.572,-120.502 13.922,-119.467 16.566,-122.75 
			18.934,-117.842 20.502,-117.934 20.504,-117.934 23.131,-125.486 27.137,-126.842 27.137,-126.842 32.109,-123.193 		"/>
		<polygon fill="#1E3D41" points="87.43,-81.217 86.01,-82.156 81.512,-75.457 77.385,-78.752 71.662,-76.436 71.662,-76.436 
			71.66,-76.436 69.494,-70.205 67.275,-75.195 65.742,-74.455 62.572,-70.502 63.922,-69.467 66.566,-72.75 68.934,-67.842 
			70.502,-67.934 70.504,-67.934 73.131,-75.486 77.137,-76.842 77.137,-76.842 82.109,-73.193 		"/>
		<polygon fill="#1E3D41" points="137.43,-31.217 136.01,-32.156 131.512,-25.457 127.385,-28.752 121.662,-26.436 121.662,-26.436 
			121.66,-26.436 119.494,-20.205 117.275,-25.195 115.742,-24.455 112.572,-20.502 113.922,-19.467 116.566,-22.75 
			118.934,-17.842 120.502,-17.934 120.504,-17.934 123.131,-25.486 127.137,-26.842 127.137,-26.842 132.109,-23.193 		"/>
		<g>
			<g>
				<path fill="#1E3D41" d="M69.182-16.922c0.001-0.023,0.001-0.045,0.001-0.066c0-0.93-0.764-1.684-1.704-1.684
					c-0.938,0-1.702,0.754-1.702,1.684c0,0.021,0,0.043,0.001,0.066c-0.617-0.482-0.985-1.205-0.985-1.986
					c0-1.416,1.206-2.568,2.688-2.568c1.481,0,2.687,1.152,2.687,2.568C70.167-18.129,69.799-17.404,69.182-16.922z"/>
				<path fill="#1E3D41" d="M65.128-20.918c-0.209-0.369-0.336-0.783-0.336-1.217c0-1.418,1.206-2.568,2.688-2.568
					c1.481,0,2.687,1.15,2.687,2.568c0,0.436-0.125,0.848-0.335,1.217c-0.579-0.627-1.413-1.031-2.353-1.031
					C66.542-21.949,65.707-21.545,65.128-20.918z"/>
			</g>
			<path fill="#1E3D41" d="M73.008-28.643c-0.226-0.379-0.361-0.807-0.361-1.258c0-1.416,1.205-2.568,2.686-2.568
				c1.484,0,2.688,1.152,2.688,2.568c0,0.453-0.137,0.879-0.359,1.258c-0.484-0.512-1.146-0.857-1.895-0.959
				c-0.139-0.035-0.283-0.062-0.434-0.062s-0.293,0.027-0.432,0.062C74.152-29.5,73.491-29.154,73.008-28.643z"/>
			<path fill="#1E3D41" d="M72.98-25.385c-0.209-0.369-0.334-0.783-0.334-1.219c0-1.416,1.205-2.568,2.686-2.568
				c1.482,0,2.688,1.152,2.688,2.568c0,0.436-0.127,0.85-0.336,1.217c-0.578-0.627-1.412-1.029-2.352-1.029
				C74.395-26.416,73.56-26.014,72.98-25.385z"/>
			<path fill="#1E3D41" d="M74.426-26.926l0.033,0.016l-0.033-0.076v-1.797c0.227-0.248,0.545-0.408,0.906-0.408
				c0.365,0,0.682,0.162,0.908,0.408v1.793l-0.035,0.08l0.035-0.018v0.654c-0.291-0.084-0.59-0.143-0.908-0.143
				c-0.316,0-0.617,0.059-0.906,0.143V-26.926z"/>
			<path fill="#1E3D41" d="M79.977-28.643c-0.226-0.379-0.362-0.807-0.362-1.258c0-1.416,1.206-2.568,2.688-2.568
				c1.48,0,2.686,1.152,2.686,2.568c0,0.453-0.136,0.879-0.359,1.258c-0.486-0.514-1.147-0.859-1.894-0.959
				c-0.141-0.035-0.283-0.062-0.435-0.062s-0.294,0.027-0.435,0.062C81.12-29.5,80.46-29.154,79.977-28.643z"/>
			<path fill="#1E3D41" d="M79.949-25.387c-0.21-0.367-0.335-0.781-0.335-1.217c0-1.416,1.205-2.568,2.687-2.568
				s2.687,1.152,2.687,2.568c0,0.438-0.126,0.85-0.335,1.217c-0.579-0.627-1.413-1.029-2.352-1.029
				C81.363-26.416,80.528-26.014,79.949-25.387z"/>
			<g>
				<path fill="#1E3D41" d="M91.002-31.494v12.99c0,3.129-2.539,5.668-5.67,5.668H64.666c-3.13,0-5.668-2.539-5.668-5.668v-12.99
					c0-3.131,2.538-5.67,5.668-5.67h20.666C88.463-37.164,91.002-34.625,91.002-31.494z M88.049-20.045v-10.027
					c0-2.416-2.07-4.375-4.623-4.375h-0.218v1.648c-0.29-0.082-0.59-0.143-0.907-0.143s-0.617,0.061-0.907,0.145v-1.65H76.24v1.65
					c-0.291-0.084-0.59-0.143-0.908-0.143c-0.316,0-0.617,0.059-0.906,0.143v-1.65h-6.04v9.414
					c-0.288-0.084-0.589-0.143-0.905-0.143c-0.318,0-0.619,0.059-0.907,0.143v-9.414c-2.553,0-4.623,1.959-4.623,4.375v10.027
					c0,2.416,2.07,4.375,4.623,4.375v-2.121c0.226-0.246,0.543-0.408,0.905-0.408c0.363,0,0.682,0.162,0.907,0.408v2.121h6.04v-6.59
					c0.227-0.246,0.545-0.408,0.906-0.408c0.365,0,0.682,0.162,0.908,0.408v6.59h5.153v-6.59c0.225-0.246,0.544-0.408,0.907-0.408
					c0.364,0,0.683,0.162,0.908,0.408v6.59h0.217C85.979-15.67,88.049-17.629,88.049-20.045L88.049-20.045z"/>
				<path fill="#1E3D41" d="M83.208-25.783v2.908c-0.264-0.166-0.573-0.266-0.908-0.266c-0.333,0-0.643,0.098-0.906,0.264v-2.906
					c0.284-0.098,0.589-0.16,0.907-0.16C82.621-25.943,82.924-25.883,83.208-25.783z"/>
			</g>
			<path fill="#1E3D41" d="M84.003-21.391c0.001-0.021,0.002-0.045,0.002-0.066c0-0.93-0.766-1.684-1.704-1.684
				c-0.939,0-1.705,0.756-1.705,1.684c0,0.021,0.002,0.043,0.003,0.066c-0.617-0.482-0.984-1.205-0.984-1.986
				c0-1.416,1.206-2.568,2.688-2.568c1.48,0,2.686,1.152,2.686,2.568C84.987-22.596,84.621-21.873,84.003-21.391z"/>
			<path fill="#1E3D41" d="M77.033-21.391c0.002-0.021,0.004-0.045,0.004-0.066c0-0.93-0.766-1.684-1.705-1.684
				s-1.705,0.756-1.705,1.684c0,0.021,0.001,0.043,0.002,0.066c-0.617-0.482-0.982-1.205-0.982-1.986
				c0-1.416,1.205-2.568,2.686-2.568c1.482,0,2.688,1.152,2.688,2.568C78.02-22.596,77.652-21.873,77.033-21.391z"/>
		</g>
		<g>
			<g>
				<path fill="#1E3D41" d="M119.182-116.922c0.001-0.023,0.001-0.045,0.001-0.066c0-0.93-0.764-1.684-1.704-1.684
					c-0.938,0-1.702,0.754-1.702,1.684c0,0.021,0,0.043,0.001,0.066c-0.617-0.482-0.985-1.205-0.985-1.986
					c0-1.416,1.206-2.567,2.688-2.567c1.481,0,2.687,1.151,2.687,2.567C120.167-118.129,119.799-117.404,119.182-116.922z"/>
				<path fill="#1E3D41" d="M115.128-120.918c-0.209-0.369-0.336-0.782-0.336-1.217c0-1.417,1.206-2.568,2.688-2.568
					c1.481,0,2.687,1.151,2.687,2.568c0,0.436-0.125,0.848-0.335,1.217c-0.579-0.627-1.413-1.031-2.353-1.031
					C116.542-121.949,115.707-121.545,115.128-120.918z"/>
			</g>
			<path fill="#1E3D41" d="M123.008-128.643c-0.226-0.379-0.361-0.807-0.361-1.258c0-1.416,1.205-2.568,2.686-2.568
				c1.484,0,2.688,1.152,2.688,2.568c0,0.453-0.137,0.879-0.359,1.258c-0.484-0.512-1.146-0.857-1.895-0.958
				c-0.139-0.036-0.283-0.062-0.434-0.062s-0.293,0.026-0.432,0.062C124.152-129.5,123.491-129.154,123.008-128.643z"/>
			<path fill="#1E3D41" d="M122.98-125.385c-0.209-0.369-0.334-0.783-0.334-1.218c0-1.416,1.205-2.568,2.686-2.568
				c1.482,0,2.688,1.151,2.688,2.568c0,0.435-0.127,0.849-0.336,1.217c-0.578-0.628-1.412-1.03-2.352-1.03
				C124.395-126.416,123.56-126.014,122.98-125.385z"/>
			<path fill="#1E3D41" d="M124.426-126.926l0.033,0.016l-0.033-0.075v-1.798c0.227-0.247,0.545-0.408,0.906-0.408
				c0.365,0,0.682,0.162,0.908,0.408v1.794l-0.035,0.079l0.035-0.018v0.654c-0.291-0.084-0.59-0.143-0.908-0.143
				c-0.316,0-0.617,0.059-0.906,0.143V-126.926z"/>
			<path fill="#1E3D41" d="M129.977-128.643c-0.226-0.379-0.362-0.807-0.362-1.258c0-1.416,1.206-2.568,2.688-2.568
				c1.48,0,2.686,1.152,2.686,2.568c0,0.453-0.136,0.879-0.359,1.258c-0.486-0.513-1.147-0.859-1.894-0.958
				c-0.141-0.036-0.283-0.062-0.435-0.062s-0.294,0.026-0.435,0.062C131.12-129.5,130.46-129.154,129.977-128.643z"/>
			<path fill="#1E3D41" d="M129.949-125.386c-0.21-0.368-0.335-0.782-0.335-1.217c0-1.416,1.205-2.568,2.687-2.568
				s2.687,1.151,2.687,2.568c0,0.437-0.126,0.849-0.335,1.217c-0.579-0.628-1.413-1.03-2.352-1.03
				C131.363-126.416,130.528-126.014,129.949-125.386z"/>
			<g>
				<path fill="#1E3D41" d="M141.002-131.494v12.99c0,3.129-2.539,5.668-5.67,5.668h-20.666c-3.13,0-5.668-2.539-5.668-5.668v-12.99
					c0-3.131,2.538-5.67,5.668-5.67h20.666C138.463-137.164,141.002-134.625,141.002-131.494z M138.049-120.045v-10.027
					c0-2.416-2.07-4.375-4.623-4.375h-0.218v1.649c-0.29-0.083-0.59-0.143-0.907-0.143s-0.617,0.06-0.907,0.144v-1.65h-5.153v1.65
					c-0.291-0.084-0.59-0.143-0.908-0.143c-0.316,0-0.617,0.059-0.906,0.143v-1.65h-6.04v9.414
					c-0.288-0.084-0.589-0.143-0.905-0.143c-0.318,0-0.619,0.06-0.907,0.143v-9.414c-2.553,0-4.623,1.959-4.623,4.376v10.026
					c0,2.416,2.07,4.375,4.623,4.375v-2.121c0.226-0.246,0.543-0.408,0.905-0.408c0.363,0,0.682,0.162,0.907,0.408v2.121h6.04v-6.59
					c0.227-0.246,0.545-0.408,0.906-0.408c0.365,0,0.682,0.162,0.908,0.408v6.59h5.153v-6.59c0.225-0.246,0.544-0.408,0.907-0.408
					c0.364,0,0.683,0.162,0.908,0.409v6.589h0.217C135.979-115.67,138.049-117.629,138.049-120.045L138.049-120.045z"/>
				<path fill="#1E3D41" d="M133.208-125.783v2.908c-0.264-0.166-0.573-0.266-0.908-0.266c-0.333,0-0.643,0.099-0.906,0.264v-2.906
					c0.284-0.098,0.589-0.16,0.907-0.16C132.621-125.943,132.924-125.882,133.208-125.783z"/>
			</g>
			<path fill="#1E3D41" d="M134.003-121.39c0.001-0.022,0.002-0.046,0.002-0.067c0-0.929-0.766-1.684-1.704-1.684
				c-0.939,0-1.705,0.756-1.705,1.684c0,0.021,0.002,0.043,0.003,0.066c-0.617-0.482-0.984-1.205-0.984-1.985
				c0-1.417,1.206-2.568,2.688-2.568c1.48,0,2.686,1.151,2.686,2.568C134.987-122.596,134.621-121.873,134.003-121.39z"/>
			<path fill="#1E3D41" d="M127.033-121.39c0.002-0.022,0.004-0.046,0.004-0.067c0-0.929-0.766-1.684-1.705-1.684
				s-1.705,0.756-1.705,1.684c0,0.021,0.001,0.043,0.002,0.066c-0.617-0.482-0.982-1.205-0.982-1.985
				c0-1.417,1.205-2.568,2.686-2.568c1.482,0,2.688,1.151,2.688,2.568C128.02-122.596,127.652-121.873,127.033-121.39z"/>
		</g>
		<g>
			<g>
				<path fill="#1E3D41" d="M169.182-66.922c0.001-0.023,0.001-0.045,0.001-0.066c0-0.93-0.764-1.684-1.704-1.684
					c-0.938,0-1.702,0.754-1.702,1.684c0,0.021,0,0.043,0.001,0.066c-0.617-0.482-0.985-1.205-0.985-1.986
					c0-1.416,1.206-2.568,2.688-2.568c1.481,0,2.687,1.152,2.687,2.568C170.167-68.129,169.799-67.404,169.182-66.922z"/>
				<path fill="#1E3D41" d="M165.128-70.918c-0.209-0.369-0.336-0.783-0.336-1.217c0-1.418,1.206-2.568,2.688-2.568
					c1.481,0,2.687,1.15,2.687,2.568c0,0.436-0.125,0.848-0.335,1.217c-0.579-0.627-1.413-1.031-2.353-1.031
					C166.542-71.949,165.707-71.545,165.128-70.918z"/>
			</g>
			<path fill="#1E3D41" d="M173.008-78.643c-0.226-0.379-0.361-0.807-0.361-1.258c0-1.416,1.205-2.568,2.686-2.568
				c1.484,0,2.688,1.152,2.688,2.568c0,0.453-0.137,0.879-0.359,1.258c-0.484-0.512-1.146-0.857-1.895-0.959
				c-0.139-0.035-0.283-0.062-0.434-0.062s-0.293,0.027-0.432,0.062C174.152-79.5,173.491-79.154,173.008-78.643z"/>
			<path fill="#1E3D41" d="M172.98-75.385c-0.209-0.369-0.334-0.783-0.334-1.219c0-1.416,1.205-2.568,2.686-2.568
				c1.482,0,2.688,1.152,2.688,2.568c0,0.436-0.127,0.85-0.336,1.217c-0.578-0.627-1.412-1.029-2.352-1.029
				C174.395-76.416,173.56-76.014,172.98-75.385z"/>
			<path fill="#1E3D41" d="M174.426-76.926l0.033,0.016l-0.033-0.076v-1.797c0.227-0.248,0.545-0.408,0.906-0.408
				c0.365,0,0.682,0.162,0.908,0.408v1.793l-0.035,0.08l0.035-0.018v0.654c-0.291-0.084-0.59-0.143-0.908-0.143
				c-0.316,0-0.617,0.059-0.906,0.143V-76.926z"/>
			<path fill="#1E3D41" d="M179.977-78.643c-0.226-0.379-0.362-0.807-0.362-1.258c0-1.416,1.206-2.568,2.688-2.568
				c1.48,0,2.686,1.152,2.686,2.568c0,0.453-0.136,0.879-0.359,1.258c-0.486-0.514-1.147-0.859-1.894-0.959
				c-0.141-0.035-0.283-0.062-0.435-0.062s-0.294,0.027-0.435,0.062C181.12-79.5,180.46-79.154,179.977-78.643z"/>
			<path fill="#1E3D41" d="M179.949-75.387c-0.21-0.367-0.335-0.781-0.335-1.217c0-1.416,1.205-2.568,2.687-2.568
				s2.687,1.152,2.687,2.568c0,0.438-0.126,0.85-0.335,1.217c-0.579-0.627-1.413-1.029-2.352-1.029
				C181.363-76.416,180.528-76.014,179.949-75.387z"/>
			<g>
				<path fill="#1E3D41" d="M191.002-81.494v12.99c0,3.129-2.539,5.668-5.67,5.668h-20.666c-3.13,0-5.668-2.539-5.668-5.668v-12.99
					c0-3.131,2.538-5.67,5.668-5.67h20.666C188.463-87.164,191.002-84.625,191.002-81.494z M188.049-70.045v-10.027
					c0-2.416-2.07-4.375-4.623-4.375h-0.218v1.648c-0.29-0.082-0.59-0.143-0.907-0.143s-0.617,0.061-0.907,0.145v-1.65h-5.153v1.65
					c-0.291-0.084-0.59-0.143-0.908-0.143c-0.316,0-0.617,0.059-0.906,0.143v-1.65h-6.04v9.414
					c-0.288-0.084-0.589-0.143-0.905-0.143c-0.318,0-0.619,0.059-0.907,0.143v-9.414c-2.553,0-4.623,1.959-4.623,4.375v10.027
					c0,2.416,2.07,4.375,4.623,4.375v-2.121c0.226-0.246,0.543-0.408,0.905-0.408c0.363,0,0.682,0.162,0.907,0.408v2.121h6.04v-6.59
					c0.227-0.246,0.545-0.408,0.906-0.408c0.365,0,0.682,0.162,0.908,0.408v6.59h5.153v-6.59c0.225-0.246,0.544-0.408,0.907-0.408
					c0.364,0,0.683,0.162,0.908,0.408v6.59h0.217C185.979-65.67,188.049-67.629,188.049-70.045L188.049-70.045z"/>
				<path fill="#1E3D41" d="M183.208-75.783v2.908c-0.264-0.166-0.573-0.266-0.908-0.266c-0.333,0-0.643,0.098-0.906,0.264v-2.906
					c0.284-0.098,0.589-0.16,0.907-0.16C182.621-75.943,182.924-75.883,183.208-75.783z"/>
			</g>
			<path fill="#1E3D41" d="M184.003-71.391c0.001-0.021,0.002-0.045,0.002-0.066c0-0.93-0.766-1.684-1.704-1.684
				c-0.939,0-1.705,0.756-1.705,1.684c0,0.021,0.002,0.043,0.003,0.066c-0.617-0.482-0.984-1.205-0.984-1.986
				c0-1.416,1.206-2.568,2.688-2.568c1.48,0,2.686,1.152,2.686,2.568C184.987-72.596,184.621-71.873,184.003-71.391z"/>
			<path fill="#1E3D41" d="M177.033-71.391c0.002-0.021,0.004-0.045,0.004-0.066c0-0.93-0.766-1.684-1.705-1.684
				s-1.705,0.756-1.705,1.684c0,0.021,0.001,0.043,0.002,0.066c-0.617-0.482-0.982-1.205-0.982-1.986
				c0-1.416,1.205-2.568,2.686-2.568c1.482,0,2.688,1.152,2.688,2.568C178.02-72.596,177.652-71.873,177.033-71.391z"/>
		</g>
		<path fill="#1E3D41" d="M190.645-124.999c0,4.062-3.305,7.366-7.366,7.366c-3.479,0-6.667-3.267-8.278-5.243
			c-1.611,1.977-4.801,5.243-8.278,5.243c-4.062,0-7.366-3.305-7.366-7.366s3.305-7.367,7.366-7.367
			c3.478,0,6.667,3.267,8.278,5.243c1.611-1.977,4.801-5.243,8.278-5.243C187.34-132.366,190.645-129.061,190.645-124.999z
			 M173.418-124.999c-1.387-1.798-4.227-4.809-6.696-4.809c-2.652,0-4.81,2.156-4.81,4.809c0,2.651,2.157,4.808,4.81,4.808
			C169.191-120.191,172.03-123.201,173.418-124.999z M188.086-125c0-2.651-2.156-4.809-4.808-4.809c-2.479,0-5.313,3.01-6.697,4.808
			c1.387,1.798,4.226,4.81,6.697,4.81C185.93-120.191,188.086-122.348,188.086-125z"/>
		<path fill="#1E3D41" d="M140.645-75c0,4.062-3.305,7.367-7.366,7.367c-3.479,0-6.667-3.268-8.278-5.244
			c-1.611,1.977-4.801,5.244-8.278,5.244c-4.062,0-7.366-3.305-7.366-7.367c0-4.061,3.305-7.367,7.366-7.367
			c3.478,0,6.667,3.268,8.278,5.244c1.611-1.977,4.801-5.244,8.278-5.244C137.34-82.367,140.645-79.061,140.645-75z M123.418-75
			c-1.387-1.797-4.227-4.809-6.696-4.809c-2.652,0-4.81,2.156-4.81,4.809s2.157,4.809,4.81,4.809
			C119.191-70.191,122.03-73.201,123.418-75z M138.086-75c0-2.652-2.156-4.809-4.808-4.809c-2.479,0-5.313,3.01-6.697,4.807
			c1.387,1.799,4.226,4.811,6.697,4.811C135.93-70.191,138.086-72.348,138.086-75z"/>
		<path fill="#1E3D41" d="M40.645-25c0,4.062-3.305,7.367-7.366,7.367c-3.479,0-6.667-3.268-8.278-5.244
			c-1.611,1.977-4.801,5.244-8.278,5.244c-4.062,0-7.366-3.305-7.366-7.367c0-4.061,3.305-7.367,7.366-7.367
			c3.478,0,6.667,3.268,8.278,5.244c1.611-1.977,4.801-5.244,8.278-5.244C37.34-32.367,40.645-29.061,40.645-25z M23.418-25
			c-1.387-1.797-4.227-4.809-6.696-4.809c-2.652,0-4.81,2.156-4.81,4.809s2.157,4.809,4.81,4.809
			C19.191-20.191,22.03-23.201,23.418-25z M38.086-25c0-2.652-2.156-4.809-4.808-4.809c-2.479,0-5.313,3.01-6.697,4.807
			c1.387,1.799,4.226,4.811,6.697,4.811C35.93-20.191,38.086-22.348,38.086-25z"/>
	</g>
</pattern>
<pattern  id="background_1_" xlink:href="#New_Pattern_2" patternTransform="matrix(0.44 0 0 0.4403 -4452.5996 -4645.0488)">
</pattern>
<rect id="background_5_" fill="url(#background_1_)" width="95" height="103"/>
</svg>
