<?xml version="1.0" encoding="utf-8"?>
<!-- Generator: Adobe Illustrator 16.0.0, SVG Export Plug-In . SVG Version: 6.00 Build 0)  -->
<!DOCTYPE svg PUBLIC "-//W3C//DTD SVG 1.1//EN" "http://www.w3.org/Graphics/SVG/1.1/DTD/svg11.dtd">
<svg version="1.1" id="Layer_1" xmlns="http://www.w3.org/2000/svg" xmlns:xlink="http://www.w3.org/1999/xlink" x="0px" y="0px"
	 width="95px" height="100px" viewBox="0 0 95 100" enable-background="new 0 0 95 100" xml:space="preserve">
<linearGradient id="SVGID_1_" gradientUnits="userSpaceOnUse" x1="47.5" y1="100" x2="47.5" y2="0">
	<stop  offset="0" style="stop-color:#447B3A"/>
	<stop  offset="0.772" style="stop-color:#447D3B"/>
	<stop  offset="1" style="stop-color:#43803C"/>
</linearGradient>
<rect fill-rule="evenodd" clip-rule="evenodd" fill="url(#SVGID_1_)" width="95" height="100"/>
<path fill="#98A339" d="M0.15,96.99c0,0,0-21.203,0-27.473c0-8.527,21.449-18.481,37.449-3.8c2.75-0.886,39.231-13.09,57.25,31.273
	C68.299,96.99,0.15,96.99,0.15,96.99z"/>
<g id="Your_Icon_8_">
	<path fill="#98A339" d="M22.169,59.779v-3.132c-0.341-0.124-0.617-0.34-0.78-0.609c-0.113,0.031-0.229,0.054-0.353,0.054
		c-0.668,0-1.21-0.503-1.21-1.123c0-0.079,0.009-0.155,0.024-0.229c-0.548-0.15-0.952-0.659-0.952-1.271
		c0-0.571,0.353-1.053,0.845-1.238c0-0.012-0.004-0.023-0.004-0.038c0-0.686,0.559-1.241,1.246-1.241
		c0.069,0,0.135,0.009,0.201,0.021c0.226-0.55,0.738-0.937,1.336-0.937c0.611,0,1.133,0.403,1.351,0.973
		c0.15-0.062,0.315-0.097,0.488-0.097c0.707,0,1.281,0.574,1.281,1.281c0,0.292-0.101,0.557-0.264,0.772
		c0.442,0.232,0.74,0.647,0.74,1.126c0,0.73-0.687,1.323-1.532,1.323c-0.059,0-0.113-0.01-0.17-0.016
		c0.002,0.027,0.01,0.053,0.01,0.08c0,0.641-0.586,1.166-1.352,1.263v3.038H22.169z"/>
</g>
<g id="Your_Icon_11_">
	<path fill="#98A339" d="M11.286,60.974v-6.46c-0.702-0.257-1.272-0.704-1.607-1.258c-0.234,0.065-0.473,0.111-0.728,0.111
		c-1.377,0-2.496-1.037-2.496-2.313c0-0.163,0.019-0.319,0.052-0.472c-1.132-0.311-1.965-1.362-1.965-2.625
		c0-1.178,0.727-2.172,1.742-2.555c0-0.024-0.008-0.049-0.008-0.075c0-1.414,1.152-2.562,2.569-2.562c0.143,0,0.28,0.02,0.415,0.042
		c0.465-1.134,1.522-1.93,2.753-1.93c1.264,0,2.338,0.832,2.787,2.006c0.311-0.127,0.651-0.2,1.008-0.2
		c1.458,0,2.643,1.184,2.643,2.644c0,0.6-0.207,1.149-0.546,1.592c0.913,0.478,1.527,1.335,1.527,2.323
		c0,1.506-1.414,2.727-3.158,2.727c-0.122,0-0.234-0.019-0.353-0.031c0.007,0.057,0.021,0.109,0.021,0.167
		c0,1.32-1.208,2.402-2.788,2.604v6.266H11.286z"/>
</g>
<path fill="#B7BC4C" d="M0.15,83.641c0.826-4.965,17.717-14.914,29.949-8.031c4.25-9.051,38.25-15.042,46.431-1.332
	c2-3.308,10.819-15.426,18.319-1.213c0,10.785,0,26.935,0,26.935H0.15"/>
<path fill="#DEDD67" d="M0.15,100c0,0,0-1.75,0-6.766c0-5.267,24.046-18.63,49.296-8.598c1.5-2.006,22.204-25.324,45.403-20.308
	c0,11.537,0,35.671,0,35.671H0.15z"/>
</svg>
