<?xml version="1.0" encoding="utf-8"?>
<!-- Generator: Adobe Illustrator 16.0.0, SVG Export Plug-In . SVG Version: 6.00 Build 0)  -->
<!DOCTYPE svg PUBLIC "-//W3C//DTD SVG 1.1//EN" "http://www.w3.org/Graphics/SVG/1.1/DTD/svg11.dtd">
<svg version="1.1" id="Layer_1" xmlns="http://www.w3.org/2000/svg" xmlns:xlink="http://www.w3.org/1999/xlink" x="0px" y="0px"
	 width="95px" height="102px" viewBox="0 0 95 102" enable-background="new 0 0 95 102" xml:space="preserve">
<pattern  width="200" height="200" patternUnits="userSpaceOnUse" id="New_Pattern_3" viewBox="39.192 -246.178 200 200" overflow="visible">
	<g>
		<polygon fill="none" points="39.192,-246.178 239.192,-246.178 239.192,-46.178 39.192,-46.178 		"/>
		<g>
			<polygon fill="#B7302F" points="119.341,-20.957 86.991,0 52.665,-17.537 50.69,-56.033 83.042,-76.988 117.366,-59.451 			"/>
			<polygon fill="#B7302F" points="225.714,-57.047 198.491,-43.879 171.27,-30.709 173.476,-60.869 175.682,-91.027 
				200.698,-74.039 			"/>
		</g>
		<g>
			<polygon fill="#B7302F" points="251.47,-144.035 234.22,-124.281 208.487,-129.34 200.001,-154.152 217.247,-173.91 
				242.981,-168.852 			"/>
			<polygon fill="#B7302F" points="240.006,-74.076 222.242,-90.215 238.38,-107.979 256.144,-91.84 			"/>
		</g>
		<g>
			<polygon fill="#B7302F" points="119.341,-220.957 86.991,-200 52.665,-217.537 50.69,-256.033 83.042,-276.988 117.366,-259.451 
							"/>
			<polygon fill="#B7302F" points="119.341,-20.957 86.991,0 52.665,-17.537 50.69,-56.033 83.042,-76.988 117.366,-59.451 			"/>
			<polygon fill="#B7302F" points="114.464,-187.732 131.841,-168.568 123.935,-143.936 98.647,-138.467 81.271,-157.633 
				89.179,-182.264 			"/>
			<polygon fill="#B7302F" points="251.469,-144.035 234.22,-124.281 208.486,-129.34 200,-154.152 217.247,-173.91 
				242.981,-168.852 			"/>
			<polygon fill="#B7302F" points="51.47,-144.035 34.22,-124.281 8.487,-129.34 0.001,-154.152 17.247,-173.91 42.981,-168.852 			
				"/>
			<polygon fill="#B7302F" points="131.171,-63.416 108.093,-88.361 85.016,-113.309 118.158,-120.82 151.302,-128.336 
				141.237,-95.875 			"/>
			<polygon fill="#B7302F" points="225.714,-57.047 198.491,-43.879 171.27,-30.709 173.476,-60.869 175.682,-91.027 
				200.698,-74.037 			"/>
			<polygon fill="#B7302F" points="225.714,-257.047 198.491,-243.879 171.27,-230.709 173.476,-260.869 175.682,-291.027 
				200.698,-274.039 			"/>
			<polygon fill="#B7302F" points="151.302,-195.457 154.048,-207.141 156.794,-218.822 165.538,-210.604 174.282,-202.383 
				162.792,-198.92 			"/>
			<polygon fill="#B7302F" points="218.989,-235.836 228.497,-234.102 231.75,-225.002 225.495,-217.633 215.987,-219.367 
				212.733,-228.467 			"/>
			<polygon fill="#B7302F" points="187.893,-153.725 167.854,-140.518 154.646,-160.557 174.686,-173.764 			"/>
			<polygon fill="#B7302F" points="240.006,-74.076 222.242,-90.215 238.38,-107.979 256.144,-91.84 			"/>
			<polygon fill="#B7302F" points="40.006,-74.076 22.242,-90.215 38.38,-107.979 56.144,-91.84 			"/>
			<polygon fill="#B7302F" points="198.51,-201.811 205.094,-200.611 207.346,-194.309 203.015,-189.207 196.432,-190.408 
				194.179,-196.709 			"/>
			<polygon fill="#B7302F" points="60.475,-194.033 67.059,-192.834 69.311,-186.531 64.979,-181.43 58.396,-182.631 
				56.144,-188.932 			"/>
		</g>
		<g>
			<polygon fill="#B7302F" points="51.469,-144.035 34.22,-124.281 8.486,-129.34 0,-154.152 17.247,-173.91 42.981,-168.852 			"/>
			<polygon fill="#B7302F" points="40.006,-74.076 22.242,-90.215 38.38,-107.979 56.144,-91.84 			"/>
		</g>
		<g>
			<polygon fill="#B7302F" points="119.341,-220.957 86.991,-200 52.665,-217.537 50.69,-256.033 83.042,-276.988 117.366,-259.451 
							"/>
			<polygon fill="#B7302F" points="225.714,-257.047 198.491,-243.879 171.27,-230.709 173.476,-260.869 175.682,-291.027 
				200.698,-274.037 			"/>
		</g>
	</g>
</pattern>
<rect id="background_6_" fill="#D34746" width="95" height="102"/>
<pattern  id="background_1_" xlink:href="#New_Pattern_3" patternTransform="matrix(0.15 0 0 0.1486 -6734.3677 -6972.3296)">
</pattern>
<rect id="background_7_" fill="url(#background_1_)" width="95" height="102"/>
</svg>
