<?xml version="1.0" encoding="utf-8"?>
<!-- Generator: Adobe Illustrator 16.0.0, SVG Export Plug-In . SVG Version: 6.00 Build 0)  -->
<!DOCTYPE svg PUBLIC "-//W3C//DTD SVG 1.1//EN" "http://www.w3.org/Graphics/SVG/1.1/DTD/svg11.dtd">
<svg version="1.1" id="Layer_1" xmlns="http://www.w3.org/2000/svg" xmlns:xlink="http://www.w3.org/1999/xlink" x="0px" y="0px"
	 width="95.986px" height="109px" viewBox="0 0 95.986 109" enable-background="new 0 0 95.986 109" xml:space="preserve">
<g>
	<rect fill-rule="evenodd" clip-rule="evenodd" fill="#9E9C7A" width="95.986" height="109"/>
</g>
<polygon opacity="0.5" fill="#747B33" points="44.843,92.233 0.154,102.588 0,109 58.633,109 "/>
<polygon opacity="0.5" fill="#747B33" points="0,37.711 0,63.686 17.75,59.286 "/>
<g>
	<polygon fill="none" points="94.361,109 95.986,109 95.986,0 4.711,0 	"/>
	<polygon fill="none" points="0,20.904 0,77.688 39.946,68.286 	"/>
	<polygon fill="none" points="0,89.091 0,109 74.271,109 48.093,77.948 	"/>
	<polygon fill="#B6B49F" points="0,0 0,20.904 37.929,66.286 0,75.688 0,89.091 48.093,77.948 74.271,109 94.361,109 4.711,0 	"/>
</g>
<polygon opacity="0.5" fill="#747B33" points="61.015,0 18.541,0 95.986,94.163 96,42.324 "/>
<g>
	<polygon fill="none" points="95.986,0 92.278,0 95.986,4.398 	"/>
	<polygon fill="none" points="71.646,0 0,0 0,109 95.986,109 95.986,29.593 	"/>
	<polygon fill="#B6B49F" points="95.986,4.398 92.278,0 71.646,0 95.986,29.593 	"/>
</g>
</svg>
