<?xml version="1.0" encoding="utf-8"?>
<!-- Generator: Adobe Illustrator 16.0.0, SVG Export Plug-In . SVG Version: 6.00 Build 0)  -->
<!DOCTYPE svg PUBLIC "-//W3C//DTD SVG 1.1//EN" "http://www.w3.org/Graphics/SVG/1.1/DTD/svg11.dtd">
<svg version="1.1" id="Layer_1" xmlns="http://www.w3.org/2000/svg" xmlns:xlink="http://www.w3.org/1999/xlink" x="0px" y="0px"
	 width="95px" height="130px" viewBox="0 0 95 130" enable-background="new 0 0 95 130" xml:space="preserve">
<rect id="background" y="0.081" fill="#76B55D" width="95" height="129.919"/>
<path fill="#5D8349" d="M93.03,4.334c0.498-0.125,1.188-0.291,1.97-0.51V0h-3.664c-0.598,1.233-1.37,2.386-2.228,3.362
	c-1.916,2.181-5.613,3.978-7.662,4.044c-0.648,0.021-1.289-0.078-1.918-0.254c0.201,0.183,0.356,0.515,0.498,0.729
	c0.18,0.271,0.08,0.648,0.115,0.972c0.027,0.246,0.012,0.5,0.076,0.739c0.154,0.564,0.439,1.087,0.729,1.594
	c0.444,0.782,1.423,1.32,1.533,2.216c0.384,3.139-1.26,6.504-3.334,8.866c-1.916,2.181-5.613,3.977-7.662,4.044
	c-1.67,0.054-3.293-0.668-4.789-1.556c-0.438-0.261-0.187-1.393,0.307-1.517c1.863-0.464,6.365-1.508,8.621-3.694
	c1.842-1.786,2.326-4.606,3.294-6.999c0.133-0.33,0.341-0.655,0.345-1.011c0.009-0.845-0.684-1.571-0.767-2.411
	c-0.056-0.571-0.444-0.859,0.192-1.711c0.174-0.232,0.325-0.347,0.46-0.382c-0.857-0.287-1.692-0.708-2.489-1.181
	c-0.439-0.261-0.188-1.394,0.307-1.517c1.862-0.465,6.364-1.508,8.62-3.694c0.206-0.2,0.39-0.417,0.564-0.64H75.57
	c-0.598,1.233-1.37,2.386-2.228,3.362c-1.916,2.181-5.613,3.978-7.662,4.044c-1.671,0.054-3.294-0.668-4.789-1.556
	c-0.439-0.261-0.188-1.394,0.307-1.517c1.862-0.465,6.364-1.508,8.62-3.694c0.206-0.2,0.39-0.417,0.564-0.64H59.504
	c-0.598,1.233-1.371,2.386-2.229,3.362c-1.915,2.181-5.613,3.978-7.662,4.044c-1.67,0.054-3.293-0.668-4.789-1.556
	c-0.438-0.261-0.187-1.394,0.307-1.517c1.863-0.465,6.365-1.508,8.62-3.694c0.206-0.2,0.39-0.417,0.564-0.64H43.437
	c-0.598,1.233-1.37,2.386-2.228,3.362c-1.915,2.181-5.613,3.978-7.662,4.044c-1.671,0.054-3.294-0.668-4.789-1.556
	c-0.438-0.261-0.187-1.394,0.307-1.517c1.862-0.465,6.364-1.508,8.62-3.694c0.206-0.2,0.39-0.417,0.564-0.64H27.37
	c-0.598,1.233-1.371,2.386-2.229,3.362c-1.915,2.181-5.613,3.978-7.662,4.044c-1.67,0.054-3.293-0.668-4.789-1.556
	c-0.438-0.261-0.187-1.394,0.307-1.517c1.863-0.465,6.365-1.508,8.621-3.694c0.206-0.2,0.39-0.417,0.564-0.64h-10.88
	c-0.598,1.233-1.37,2.386-2.228,3.362C7.159,5.543,3.462,7.34,1.413,7.407C0.937,7.422,0.467,7.356,0,7.259v0.639
	c0.166,0.271,0.074,0.638,0.108,0.956c0.027,0.246,0.012,0.5,0.076,0.739c0.154,0.564,0.439,1.087,0.729,1.594
	c0.444,0.782,1.423,1.32,1.533,2.216c0.327,2.671-0.82,5.501-2.446,7.742v20.558c1.945-0.611,4.169-1.521,5.551-2.859
	c1.842-1.786,2.327-4.607,3.294-6.999c0.134-0.33,0.342-0.655,0.346-1.011c0.009-0.845-0.685-1.571-0.767-2.411
	c-0.056-0.571-0.445-0.86,0.191-1.711c0.699-0.935,1.048,0.023,1.341,0.466c0.18,0.271,0.079,0.647,0.115,0.972
	c0.026,0.246,0.012,0.5,0.076,0.739c0.153,0.564,0.439,1.086,0.729,1.594c0.443,0.782,1.423,1.32,1.532,2.216
	c0.384,3.139-1.26,6.504-3.333,8.865c-1.916,2.182-5.613,3.978-7.662,4.045C0.938,45.625,0.466,45.571,0,45.475v1.066
	c0.166,0.27,0.074,0.638,0.108,0.956c0.027,0.247,0.012,0.5,0.076,0.739c0.154,0.565,0.439,1.087,0.729,1.594
	c0.444,0.782,1.423,1.321,1.533,2.216c0.327,2.672-0.82,5.501-2.446,7.742v20.558c1.945-0.611,4.169-1.52,5.551-2.859
	c1.842-1.785,2.327-4.607,3.294-7c0.134-0.329,0.342-0.654,0.346-1.01c0.009-0.846-0.685-1.571-0.767-2.412
	c-0.056-0.571-0.445-0.86,0.191-1.71c0.699-0.935,1.048,0.023,1.341,0.466c0.18,0.271,0.079,0.648,0.115,0.972
	c0.026,0.246,0.012,0.5,0.076,0.739c0.153,0.565,0.439,1.087,0.729,1.595c0.443,0.781,1.423,1.32,1.532,2.215
	c0.384,3.14-1.26,6.505-3.333,8.866c-1.916,2.181-5.613,3.977-7.662,4.044C0.938,84.268,0.466,84.214,0,84.118v1.015
	c0.166,0.271,0.074,0.637,0.108,0.956c0.027,0.247,0.012,0.5,0.076,0.738c0.154,0.565,0.439,1.088,0.729,1.595
	c0.444,0.782,1.423,1.322,1.533,2.217C2.773,93.31,1.626,96.141,0,98.381v20.558c1.945-0.611,4.169-1.521,5.551-2.859
	c1.842-1.786,2.327-4.607,3.294-7c0.134-0.331,0.342-0.654,0.346-1.011c0.009-0.844-0.685-1.571-0.767-2.41
	c-0.056-0.572-0.445-0.86,0.191-1.711c0.699-0.936,1.048,0.023,1.341,0.466c0.18,0.271,0.079,0.648,0.115,0.972
	c0.026,0.246,0.012,0.5,0.076,0.739c0.153,0.565,0.439,1.087,0.729,1.594c0.443,0.783,1.423,1.322,1.532,2.216
	c0.384,3.14-1.26,6.506-3.333,8.868c-1.916,2.18-5.613,3.976-7.662,4.043c-0.477,0.014-0.946-0.051-1.413-0.148v0.638
	c0.166,0.271,0.074,0.639,0.108,0.958c0.027,0.246,0.012,0.5,0.076,0.738c0.154,0.565,0.439,1.088,0.729,1.596
	c0.444,0.781,1.423,1.32,1.533,2.216c0.044,0.354,0.054,0.716,0.047,1.077h11.464c0.22-0.657,0.439-1.311,0.691-1.933
	c0.133-0.329,0.341-0.654,0.345-1.011c0.009-0.844-0.684-1.57-0.767-2.411c-0.056-0.571-0.444-0.86,0.192-1.711
	c0.698-0.935,1.047,0.024,1.34,0.466c0.18,0.271,0.08,0.648,0.115,0.973c0.027,0.246,0.012,0.5,0.076,0.738
	c0.154,0.565,0.439,1.088,0.729,1.596c0.444,0.781,1.423,1.32,1.533,2.216c0.044,0.354,0.054,0.716,0.047,1.077h11.765
	c0.22-0.657,0.439-1.311,0.691-1.933c0.134-0.329,0.341-0.654,0.345-1.011c0.01-0.844-0.684-1.57-0.766-2.411
	c-0.056-0.571-0.445-0.86,0.191-1.711c0.699-0.935,1.048,0.024,1.341,0.466c0.179,0.271,0.079,0.648,0.115,0.973
	c0.026,0.246,0.012,0.5,0.076,0.738c0.153,0.565,0.439,1.088,0.728,1.596c0.444,0.781,1.424,1.32,1.533,2.216
	c0.044,0.354,0.054,0.716,0.047,1.077h11.766c0.22-0.657,0.439-1.311,0.691-1.933c0.134-0.329,0.341-0.654,0.345-1.011
	c0.009-0.844-0.684-1.57-0.767-2.411c-0.055-0.571-0.444-0.86,0.192-1.711c0.698-0.935,1.048,0.024,1.341,0.466
	c0.179,0.271,0.079,0.648,0.115,0.973c0.026,0.246,0.011,0.5,0.076,0.738c0.153,0.565,0.439,1.088,0.728,1.596
	c0.444,0.781,1.423,1.32,1.533,2.216c0.044,0.354,0.054,0.716,0.047,1.077h11.765c0.22-0.657,0.439-1.311,0.691-1.933
	c0.134-0.329,0.341-0.654,0.345-1.011c0.009-0.844-0.684-1.57-0.766-2.411c-0.056-0.571-0.445-0.86,0.191-1.711
	c0.698-0.935,1.048,0.024,1.341,0.466c0.179,0.271,0.079,0.648,0.115,0.973c0.026,0.246,0.011,0.5,0.076,0.738
	c0.153,0.565,0.439,1.088,0.728,1.596c0.444,0.781,1.423,1.32,1.533,2.216c0.044,0.354,0.054,0.716,0.047,1.077h11.766
	c0.22-0.657,0.439-1.311,0.691-1.933c0.133-0.329,0.341-0.654,0.345-1.011c0.009-0.844-0.684-1.57-0.767-2.411
	c-0.056-0.571-0.444-0.86,0.192-1.711c0.174-0.231,0.325-0.347,0.46-0.382c-0.857-0.287-1.692-0.708-2.489-1.181
	c-0.439-0.26-0.188-1.394,0.307-1.517c1.862-0.464,6.364-1.509,8.62-3.693c1.842-1.786,2.327-4.607,3.294-7
	c0.134-0.331,0.342-0.654,0.346-1.011c0.009-0.844-0.685-1.571-0.767-2.41c-0.056-0.572-0.445-0.86,0.191-1.711
	c0.699-0.936,1.048,0.023,1.341,0.466c0.18,0.271,0.079,0.648,0.115,0.972c0.026,0.246,0.012,0.5,0.076,0.739
	c0.153,0.565,0.439,1.087,0.729,1.594c0.443,0.783,1.423,1.322,1.532,2.216c0.384,3.14-1.26,6.506-3.333,8.868
	c-1.916,2.18-5.613,3.976-7.662,4.043c-0.648,0.021-1.289-0.077-1.918-0.255c0.201,0.184,0.356,0.515,0.498,0.729
	c0.18,0.271,0.08,0.648,0.115,0.973c0.027,0.246,0.012,0.5,0.076,0.738c0.154,0.565,0.439,1.088,0.729,1.596
	c0.444,0.781,1.423,1.32,1.533,2.216c0.044,0.354,0.054,0.716,0.047,1.077H93.99c0.22-0.657,0.439-1.311,0.691-1.933
	c0.109-0.271,0.263-0.539,0.318-0.823v-0.491c-0.125-0.72-0.667-1.37-0.74-2.108c-0.056-0.571-0.444-0.86,0.192-1.711
	c0.214-0.287,0.392-0.382,0.548-0.382v-0.071c-0.783-0.283-1.545-0.676-2.276-1.11c-0.438-0.26-0.187-1.394,0.307-1.517
	c0.498-0.125,1.188-0.292,1.97-0.51V99.396c-0.03,0.035-0.059,0.075-0.089,0.109c-1.916,2.181-5.613,3.977-7.662,4.044
	c-1.67,0.053-3.293-0.668-4.789-1.556c-0.438-0.26-0.187-1.394,0.307-1.517c1.863-0.464,6.365-1.508,8.621-3.693
	c1.842-1.786,2.326-4.607,3.294-7c0.109-0.271,0.263-0.539,0.318-0.823v-0.491c-0.125-0.72-0.667-1.37-0.74-2.107
	c-0.056-0.571-0.444-0.86,0.192-1.711c0.214-0.286,0.392-0.382,0.548-0.383v-0.462c-0.783-0.284-1.545-0.676-2.276-1.109
	c-0.438-0.26-0.187-1.394,0.307-1.517c0.498-0.124,1.188-0.292,1.97-0.509V60.802c-0.03,0.035-0.059,0.075-0.089,0.11
	c-1.916,2.181-5.613,3.977-7.662,4.044c-1.67,0.053-3.293-0.668-4.789-1.556c-0.438-0.26-0.187-1.393,0.307-1.517
	c1.863-0.465,6.365-1.508,8.621-3.694c1.842-1.785,2.326-4.606,3.294-6.999c0.109-0.271,0.263-0.539,0.318-0.823v-0.491
	c-0.125-0.72-0.667-1.37-0.74-2.107c-0.056-0.571-0.444-0.859,0.192-1.711c0.214-0.286,0.392-0.381,0.548-0.382v-0.512
	c-0.783-0.284-1.545-0.677-2.276-1.111c-0.438-0.26-0.187-1.393,0.307-1.517c0.498-0.124,1.188-0.291,1.97-0.509V22.159
	c-0.03,0.036-0.059,0.075-0.089,0.11c-1.916,2.181-5.613,3.977-7.662,4.044c-1.67,0.054-3.293-0.668-4.789-1.556
	c-0.438-0.261-0.187-1.393,0.307-1.517c1.863-0.464,6.365-1.508,8.621-3.694c1.842-1.786,2.326-4.606,3.294-6.999
	c0.109-0.271,0.263-0.539,0.318-0.823v-0.492c-0.125-0.719-0.667-1.37-0.74-2.107c-0.056-0.571-0.444-0.859,0.192-1.711
	C94.666,7.128,94.844,7.033,95,7.033V6.961c-0.783-0.284-1.545-0.676-2.276-1.11C92.285,5.59,92.537,4.458,93.03,4.334z
	 M69.818,38.843c1.842-1.786,2.327-4.607,3.294-6.999c0.134-0.33,0.342-0.655,0.346-1.011c0.009-0.845-0.685-1.571-0.767-2.411
	c-0.056-0.571-0.444-0.86,0.191-1.711c0.699-0.935,1.048,0.023,1.341,0.466c0.18,0.271,0.079,0.647,0.115,0.972
	c0.026,0.246,0.012,0.5,0.076,0.739c0.153,0.564,0.439,1.086,0.729,1.594c0.443,0.782,1.423,1.32,1.532,2.216
	c0.384,3.139-1.26,6.504-3.333,8.865c-1.916,2.182-5.613,3.978-7.662,4.045c-1.671,0.054-3.294-0.669-4.789-1.556
	c-0.439-0.26-0.188-1.393,0.307-1.517C63.061,42.073,67.562,41.029,69.818,38.843z M72.691,67.065
	c-0.056-0.571-0.444-0.86,0.191-1.71c0.699-0.935,1.048,0.023,1.341,0.466c0.18,0.271,0.079,0.648,0.115,0.972
	c0.026,0.246,0.012,0.5,0.076,0.739c0.153,0.565,0.439,1.087,0.729,1.595c0.443,0.781,1.423,1.32,1.532,2.215
	c0.384,3.14-1.26,6.505-3.333,8.866c-1.916,2.181-5.613,3.977-7.662,4.044c-1.671,0.054-3.294-0.668-4.789-1.555
	c-0.439-0.26-0.188-1.394,0.307-1.517c1.862-0.464,6.364-1.507,8.62-3.694c1.842-1.785,2.327-4.607,3.294-7
	c0.134-0.329,0.342-0.654,0.346-1.01C73.467,68.631,72.773,67.905,72.691,67.065z M24.491,28.422
	c-0.057-0.571-0.445-0.86,0.191-1.711c0.699-0.935,1.047,0.023,1.34,0.466c0.18,0.271,0.08,0.647,0.115,0.972
	c0.027,0.246,0.012,0.5,0.077,0.739c0.153,0.564,0.439,1.086,0.728,1.594c0.444,0.782,1.423,1.32,1.533,2.216
	c0.384,3.139-1.26,6.504-3.334,8.865c-1.915,2.182-5.613,3.978-7.662,4.045c-1.67,0.054-3.293-0.669-4.789-1.556
	c-0.438-0.26-0.187-1.393,0.307-1.517c1.863-0.464,6.365-1.508,8.621-3.694c1.842-1.786,2.326-4.607,3.294-6.999
	c0.134-0.33,0.341-0.655,0.345-1.011C25.267,29.988,24.573,29.262,24.491,28.422z M18.801,61.884
	c1.862-0.465,6.364-1.508,8.62-3.694c1.842-1.785,2.326-4.606,3.294-6.999c0.134-0.33,0.341-0.654,0.345-1.01
	c0.01-0.845-0.684-1.571-0.766-2.411c-0.056-0.571-0.445-0.859,0.191-1.711c0.699-0.935,1.048,0.023,1.341,0.466
	c0.179,0.271,0.079,0.648,0.115,0.972c0.026,0.247,0.012,0.5,0.076,0.739c0.153,0.565,0.439,1.087,0.728,1.594
	c0.444,0.782,1.424,1.321,1.533,2.216c0.384,3.139-1.26,6.504-3.334,8.866c-1.915,2.181-5.612,3.977-7.661,4.044
	c-1.671,0.053-3.294-0.668-4.789-1.556C18.056,63.14,18.307,62.008,18.801,61.884z M40.558,28.422
	c-0.056-0.571-0.444-0.86,0.191-1.711c0.699-0.935,1.048,0.023,1.341,0.466c0.18,0.271,0.079,0.647,0.115,0.972
	c0.026,0.246,0.012,0.5,0.076,0.739c0.153,0.564,0.439,1.086,0.729,1.594c0.444,0.782,1.423,1.32,1.532,2.216
	c0.385,3.139-1.26,6.504-3.333,8.865c-1.915,2.182-5.613,3.978-7.662,4.045c-1.671,0.054-3.294-0.669-4.789-1.556
	c-0.438-0.26-0.187-1.393,0.307-1.517c1.862-0.464,6.364-1.508,8.62-3.694c1.842-1.786,2.327-4.607,3.295-6.999
	c0.133-0.33,0.341-0.655,0.345-1.011C41.333,29.988,40.64,29.262,40.558,28.422z M56.624,28.422
	c-0.056-0.571-0.444-0.86,0.191-1.711c0.699-0.935,1.048,0.023,1.341,0.466c0.18,0.271,0.08,0.647,0.115,0.972
	c0.027,0.246,0.012,0.5,0.077,0.739c0.152,0.564,0.439,1.086,0.728,1.594c0.444,0.782,1.423,1.32,1.533,2.216
	c0.384,3.139-1.26,6.504-3.334,8.865c-1.915,2.182-5.613,3.978-7.662,4.045c-1.67,0.054-3.293-0.669-4.789-1.556
	c-0.438-0.26-0.187-1.393,0.307-1.517c1.863-0.464,6.365-1.508,8.62-3.694c1.843-1.786,2.327-4.607,3.295-6.999
	c0.133-0.33,0.341-0.655,0.345-1.011C57.399,29.988,56.707,29.262,56.624,28.422z M46.782,51.19c0.134-0.33,0.341-0.654,0.345-1.01
	c0.009-0.845-0.684-1.571-0.767-2.411c-0.055-0.571-0.444-0.859,0.192-1.711c0.698-0.935,1.048,0.023,1.341,0.466
	c0.179,0.271,0.079,0.648,0.115,0.972c0.026,0.247,0.011,0.5,0.076,0.739c0.153,0.565,0.439,1.087,0.728,1.594
	c0.444,0.782,1.423,1.321,1.533,2.216c0.384,3.139-1.26,6.504-3.334,8.866c-1.915,2.181-5.613,3.977-7.662,4.044
	c-1.67,0.053-3.293-0.668-4.789-1.556c-0.438-0.26-0.187-1.393,0.308-1.517c1.862-0.465,6.364-1.508,8.62-3.694
	C45.33,56.404,45.814,53.583,46.782,51.19z M21.618,77.486c1.842-1.785,2.326-4.607,3.294-7c0.134-0.329,0.341-0.654,0.345-1.01
	c0.01-0.846-0.684-1.571-0.766-2.412c-0.057-0.571-0.445-0.86,0.191-1.71c0.699-0.935,1.047,0.023,1.34,0.466
	c0.18,0.271,0.08,0.648,0.115,0.972c0.027,0.246,0.012,0.5,0.077,0.739c0.153,0.565,0.439,1.087,0.728,1.595
	c0.444,0.781,1.423,1.32,1.533,2.215c0.384,3.14-1.26,6.505-3.334,8.866c-1.915,2.181-5.613,3.977-7.662,4.044
	c-1.67,0.054-3.293-0.668-4.789-1.555c-0.438-0.26-0.187-1.394,0.307-1.517C14.86,80.716,19.362,79.673,21.618,77.486z
	 M18.801,100.476c1.862-0.464,6.364-1.508,8.62-3.693c1.842-1.786,2.326-4.607,3.294-7c0.134-0.33,0.341-0.654,0.345-1.011
	c0.01-0.844-0.684-1.569-0.766-2.41c-0.056-0.571-0.445-0.86,0.191-1.711c0.699-0.935,1.048,0.023,1.341,0.466
	c0.179,0.271,0.079,0.648,0.115,0.972c0.026,0.247,0.012,0.5,0.076,0.738c0.153,0.565,0.439,1.088,0.728,1.595
	c0.444,0.782,1.424,1.322,1.533,2.217c0.384,3.139-1.26,6.505-3.334,8.866c-1.915,2.181-5.612,3.977-7.661,4.044
	c-1.671,0.053-3.294-0.668-4.789-1.556C18.056,101.733,18.307,100.599,18.801,100.476z M33.547,84.252
	c-1.671,0.054-3.294-0.668-4.789-1.555c-0.438-0.26-0.187-1.394,0.307-1.517c1.862-0.464,6.364-1.507,8.62-3.694
	c1.842-1.785,2.327-4.607,3.295-7c0.133-0.329,0.341-0.654,0.345-1.01c0.009-0.846-0.685-1.571-0.767-2.412
	c-0.056-0.571-0.444-0.86,0.191-1.71c0.699-0.935,1.048,0.023,1.341,0.466c0.18,0.271,0.079,0.648,0.115,0.972
	c0.026,0.246,0.012,0.5,0.076,0.739c0.153,0.565,0.439,1.087,0.729,1.595c0.444,0.781,1.423,1.32,1.532,2.215
	c0.385,3.14-1.26,6.505-3.333,8.866C39.294,82.389,35.596,84.185,33.547,84.252z M34.868,100.476
	c1.862-0.464,6.364-1.508,8.62-3.693c1.842-1.786,2.326-4.607,3.294-7c0.134-0.33,0.341-0.654,0.345-1.011
	c0.009-0.844-0.684-1.569-0.767-2.41c-0.055-0.571-0.444-0.86,0.192-1.711c0.698-0.935,1.048,0.023,1.341,0.466
	c0.179,0.271,0.079,0.648,0.115,0.972c0.026,0.247,0.011,0.5,0.076,0.738c0.153,0.565,0.439,1.088,0.728,1.595
	c0.444,0.782,1.423,1.322,1.533,2.217c0.384,3.139-1.26,6.505-3.334,8.866c-1.915,2.181-5.613,3.977-7.662,4.044
	c-1.67,0.053-3.293-0.668-4.789-1.556C34.122,101.733,34.374,100.599,34.868,100.476z M49.613,84.252
	c-1.67,0.054-3.293-0.668-4.789-1.555c-0.438-0.26-0.187-1.394,0.307-1.517c1.863-0.464,6.365-1.507,8.62-3.694
	c1.843-1.785,2.327-4.607,3.295-7c0.133-0.329,0.341-0.654,0.345-1.01c0.009-0.846-0.684-1.571-0.767-2.412
	c-0.056-0.571-0.444-0.86,0.191-1.71c0.699-0.935,1.048,0.023,1.341,0.466c0.18,0.271,0.08,0.648,0.115,0.972
	c0.027,0.246,0.012,0.5,0.077,0.739c0.152,0.565,0.439,1.087,0.728,1.595c0.444,0.781,1.423,1.32,1.533,2.215
	c0.384,3.14-1.26,6.505-3.334,8.866C55.36,82.389,51.662,84.185,49.613,84.252z M50.935,100.476c1.862-0.464,6.364-1.508,8.62-3.693
	c1.842-1.786,2.326-4.607,3.294-7c0.134-0.33,0.341-0.654,0.345-1.011c0.009-0.844-0.684-1.569-0.766-2.41
	c-0.056-0.571-0.445-0.86,0.191-1.711c0.698-0.935,1.048,0.023,1.341,0.466c0.179,0.271,0.079,0.648,0.115,0.972
	c0.026,0.247,0.011,0.5,0.076,0.738c0.153,0.565,0.439,1.088,0.728,1.595c0.444,0.782,1.423,1.322,1.533,2.217
	c0.384,3.139-1.26,6.505-3.334,8.866c-1.915,2.181-5.612,3.977-7.661,4.044c-1.671,0.053-3.294-0.668-4.789-1.556
	C50.188,101.733,50.44,100.599,50.935,100.476z M63.078,60.912c-1.915,2.181-5.612,3.977-7.661,4.044
	c-1.671,0.053-3.294-0.668-4.789-1.556c-0.439-0.26-0.188-1.393,0.307-1.517c1.862-0.465,6.364-1.508,8.62-3.694
	c1.842-1.785,2.326-4.606,3.294-6.999c0.134-0.33,0.341-0.654,0.345-1.01c0.009-0.845-0.684-1.571-0.766-2.411
	c-0.056-0.571-0.445-0.859,0.191-1.711c0.698-0.935,1.048,0.023,1.341,0.466c0.179,0.271,0.079,0.648,0.115,0.972
	c0.026,0.247,0.011,0.5,0.076,0.739c0.153,0.565,0.439,1.087,0.728,1.594c0.444,0.782,1.423,1.321,1.533,2.216
	C66.796,55.185,65.152,58.55,63.078,60.912z M50.935,23.241c1.862-0.464,6.364-1.508,8.62-3.694
	c1.842-1.786,2.326-4.606,3.294-6.999c0.134-0.33,0.341-0.655,0.345-1.011c0.009-0.845-0.684-1.571-0.766-2.411
	c-0.056-0.571-0.445-0.859,0.191-1.711c0.698-0.935,1.048,0.023,1.341,0.466c0.179,0.271,0.079,0.648,0.115,0.972
	c0.026,0.246,0.011,0.5,0.076,0.739c0.153,0.564,0.439,1.087,0.728,1.594c0.444,0.782,1.423,1.32,1.533,2.216
	c0.384,3.139-1.26,6.504-3.334,8.866c-1.915,2.181-5.612,3.977-7.661,4.044c-1.671,0.054-3.294-0.668-4.789-1.556
	C50.188,24.497,50.44,23.364,50.935,23.241z M34.868,23.241c1.862-0.464,6.364-1.508,8.62-3.694
	c1.842-1.786,2.326-4.606,3.294-6.999c0.134-0.33,0.341-0.655,0.345-1.011c0.009-0.845-0.684-1.571-0.767-2.411
	c-0.055-0.571-0.444-0.859,0.192-1.711c0.698-0.935,1.048,0.023,1.341,0.466c0.179,0.271,0.079,0.648,0.115,0.972
	c0.026,0.246,0.011,0.5,0.076,0.739c0.153,0.564,0.439,1.087,0.728,1.594c0.444,0.782,1.423,1.32,1.533,2.216
	c0.384,3.139-1.26,6.504-3.334,8.866c-1.915,2.181-5.613,3.977-7.662,4.044c-1.67,0.054-3.293-0.668-4.789-1.556
	C34.122,24.497,34.374,23.364,34.868,23.241z M18.801,23.241c1.862-0.464,6.364-1.508,8.62-3.694
	c1.842-1.786,2.326-4.606,3.294-6.999c0.134-0.33,0.341-0.655,0.345-1.011c0.01-0.845-0.684-1.571-0.766-2.411
	c-0.056-0.571-0.445-0.859,0.191-1.711c0.699-0.935,1.048,0.023,1.341,0.466c0.179,0.271,0.079,0.648,0.115,0.972
	c0.026,0.246,0.012,0.5,0.076,0.739c0.153,0.564,0.439,1.087,0.728,1.594c0.444,0.782,1.424,1.32,1.533,2.216
	c0.384,3.139-1.26,6.504-3.334,8.866c-1.915,2.181-5.612,3.977-7.661,4.044c-1.671,0.054-3.294-0.668-4.789-1.556
	C18.056,24.497,18.307,23.364,18.801,23.241z M7.216,26.313c-1.67,0.054-3.293-0.668-4.789-1.556
	c-0.438-0.261-0.187-1.393,0.307-1.517c1.863-0.464,6.365-1.508,8.621-3.694c1.842-1.786,2.326-4.606,3.294-6.999
	c0.133-0.33,0.341-0.655,0.345-1.011c0.009-0.845-0.684-1.571-0.767-2.411c-0.056-0.571-0.444-0.859,0.192-1.711
	c0.698-0.935,1.047,0.023,1.34,0.466c0.18,0.271,0.08,0.648,0.115,0.972c0.027,0.246,0.012,0.5,0.076,0.739
	c0.154,0.564,0.439,1.087,0.729,1.594c0.444,0.782,1.423,1.32,1.533,2.216c0.384,3.139-1.26,6.504-3.334,8.866
	C12.962,24.45,9.265,26.246,7.216,26.313z M7.216,64.956c-1.67,0.053-3.293-0.668-4.789-1.556c-0.438-0.26-0.187-1.393,0.307-1.517
	c1.863-0.465,6.365-1.508,8.621-3.694c1.842-1.785,2.326-4.606,3.294-6.999c0.133-0.33,0.341-0.654,0.345-1.01
	c0.009-0.845-0.684-1.571-0.767-2.411c-0.056-0.571-0.444-0.859,0.192-1.711c0.698-0.935,1.047,0.023,1.34,0.466
	c0.18,0.271,0.08,0.648,0.115,0.972c0.027,0.247,0.012,0.5,0.076,0.739c0.154,0.565,0.439,1.087,0.729,1.594
	c0.444,0.782,1.423,1.321,1.533,2.216c0.384,3.139-1.26,6.504-3.334,8.866C12.962,63.093,9.265,64.889,7.216,64.956z M7.216,103.549
	c-1.67,0.053-3.293-0.668-4.789-1.556c-0.438-0.26-0.187-1.394,0.307-1.517c1.863-0.464,6.365-1.508,8.621-3.693
	c1.842-1.786,2.326-4.607,3.294-7c0.133-0.33,0.341-0.654,0.345-1.011c0.009-0.844-0.684-1.569-0.767-2.41
	c-0.056-0.571-0.444-0.86,0.192-1.711c0.698-0.935,1.047,0.023,1.34,0.466c0.18,0.271,0.08,0.648,0.115,0.972
	c0.027,0.247,0.012,0.5,0.076,0.738c0.154,0.565,0.439,1.088,0.729,1.595c0.444,0.782,1.423,1.322,1.533,2.217
	c0.384,3.139-1.26,6.505-3.334,8.866C12.962,101.686,9.265,103.481,7.216,103.549z M25.142,118.802
	c-1.915,2.18-5.613,3.976-7.662,4.043c-1.67,0.054-3.293-0.667-4.789-1.556c-0.438-0.26-0.187-1.394,0.307-1.517
	c1.863-0.464,6.365-1.509,8.621-3.693c1.842-1.786,2.326-4.607,3.294-7c0.134-0.331,0.341-0.654,0.345-1.011
	c0.01-0.844-0.684-1.571-0.766-2.41c-0.057-0.572-0.445-0.86,0.191-1.711c0.699-0.936,1.047,0.023,1.34,0.466
	c0.18,0.271,0.08,0.648,0.115,0.972c0.027,0.246,0.012,0.5,0.077,0.739c0.153,0.565,0.439,1.087,0.728,1.594
	c0.444,0.783,1.423,1.322,1.533,2.216C28.859,113.074,27.216,116.44,25.142,118.802z M41.209,118.802
	c-1.915,2.18-5.613,3.976-7.662,4.043c-1.671,0.054-3.294-0.667-4.789-1.556c-0.438-0.26-0.187-1.394,0.307-1.517
	c1.862-0.464,6.364-1.509,8.62-3.693c1.842-1.786,2.327-4.607,3.295-7c0.133-0.331,0.341-0.654,0.345-1.011
	c0.009-0.844-0.685-1.571-0.767-2.41c-0.056-0.572-0.444-0.86,0.191-1.711c0.699-0.936,1.048,0.023,1.341,0.466
	c0.18,0.271,0.079,0.648,0.115,0.972c0.026,0.246,0.012,0.5,0.076,0.739c0.153,0.565,0.439,1.087,0.729,1.594
	c0.444,0.783,1.423,1.322,1.532,2.216C44.927,113.074,43.282,116.44,41.209,118.802z M57.275,118.802
	c-1.915,2.18-5.613,3.976-7.662,4.043c-1.67,0.054-3.293-0.667-4.789-1.556c-0.438-0.26-0.187-1.394,0.307-1.517
	c1.863-0.464,6.365-1.509,8.62-3.693c1.843-1.786,2.327-4.607,3.295-7c0.133-0.331,0.341-0.654,0.345-1.011
	c0.009-0.844-0.684-1.571-0.767-2.41c-0.056-0.572-0.444-0.86,0.191-1.711c0.699-0.936,1.048,0.023,1.341,0.466
	c0.18,0.271,0.08,0.648,0.115,0.972c0.027,0.246,0.012,0.5,0.077,0.739c0.152,0.565,0.439,1.087,0.728,1.594
	c0.444,0.783,1.423,1.322,1.533,2.216C60.993,113.074,59.35,116.44,57.275,118.802z M73.343,118.802
	c-1.916,2.18-5.613,3.976-7.662,4.043c-1.671,0.054-3.294-0.667-4.789-1.556c-0.439-0.26-0.188-1.394,0.307-1.517
	c1.862-0.464,6.364-1.509,8.62-3.693c1.842-1.786,2.327-4.607,3.294-7c0.134-0.331,0.342-0.654,0.346-1.011
	c0.009-0.844-0.685-1.571-0.767-2.41c-0.056-0.572-0.444-0.86,0.191-1.711c0.699-0.936,1.048,0.023,1.341,0.466
	c0.18,0.271,0.079,0.648,0.115,0.972c0.026,0.246,0.012,0.5,0.076,0.739c0.153,0.565,0.439,1.087,0.729,1.594
	c0.443,0.783,1.423,1.322,1.532,2.216C77.06,113.074,75.416,116.44,73.343,118.802z M79.146,99.505
	c-1.916,2.181-5.613,3.977-7.662,4.044c-1.67,0.053-3.293-0.668-4.789-1.556c-0.438-0.26-0.187-1.394,0.307-1.517
	c1.863-0.464,6.365-1.508,8.621-3.693c1.842-1.786,2.326-4.607,3.294-7c0.133-0.33,0.341-0.654,0.345-1.011
	c0.009-0.844-0.684-1.569-0.767-2.41c-0.056-0.571-0.444-0.86,0.192-1.711c0.698-0.935,1.047,0.023,1.34,0.466
	c0.18,0.271,0.08,0.648,0.115,0.972c0.027,0.247,0.012,0.5,0.076,0.738c0.154,0.565,0.439,1.088,0.729,1.595
	c0.444,0.782,1.423,1.322,1.533,2.217C82.863,93.777,81.22,97.144,79.146,99.505z M85.584,77.486c1.842-1.785,2.327-4.607,3.294-7
	c0.134-0.329,0.342-0.654,0.346-1.01c0.009-0.846-0.685-1.571-0.767-2.412c-0.056-0.571-0.445-0.86,0.191-1.71
	c0.699-0.935,1.048,0.023,1.341,0.466c0.18,0.271,0.079,0.648,0.115,0.972c0.026,0.246,0.012,0.5,0.076,0.739
	c0.153,0.565,0.439,1.087,0.729,1.595c0.443,0.781,1.423,1.32,1.532,2.215c0.384,3.14-1.26,6.505-3.333,8.866
	c-1.916,2.181-5.613,3.977-7.662,4.044c-1.671,0.054-3.294-0.668-4.789-1.555c-0.439-0.26-0.188-1.394,0.307-1.517
	C78.826,80.716,83.328,79.673,85.584,77.486z M79.146,60.912c-1.916,2.181-5.613,3.977-7.662,4.044
	c-1.67,0.053-3.293-0.668-4.789-1.556c-0.438-0.26-0.187-1.393,0.307-1.517c1.863-0.465,6.365-1.508,8.621-3.694
	c1.842-1.785,2.326-4.606,3.294-6.999c0.133-0.33,0.341-0.654,0.345-1.01c0.009-0.845-0.684-1.571-0.767-2.411
	c-0.056-0.571-0.444-0.859,0.192-1.711c0.698-0.935,1.047,0.023,1.34,0.466c0.18,0.271,0.08,0.648,0.115,0.972
	c0.027,0.247,0.012,0.5,0.076,0.739c0.154,0.565,0.439,1.087,0.729,1.594c0.444,0.782,1.423,1.321,1.533,2.216
	C82.863,55.185,81.22,58.55,79.146,60.912z M85.584,38.843c1.842-1.786,2.327-4.607,3.294-6.999c0.134-0.33,0.342-0.655,0.346-1.011
	c0.009-0.845-0.685-1.571-0.767-2.411c-0.056-0.571-0.445-0.86,0.191-1.711c0.699-0.935,1.048,0.023,1.341,0.466
	c0.18,0.271,0.079,0.647,0.115,0.972c0.026,0.246,0.012,0.5,0.076,0.739c0.153,0.564,0.439,1.086,0.729,1.594
	c0.443,0.782,1.423,1.32,1.532,2.216c0.384,3.139-1.26,6.504-3.333,8.865c-1.916,2.182-5.613,3.978-7.662,4.045
	c-1.671,0.054-3.294-0.669-4.789-1.556c-0.439-0.26-0.188-1.393,0.307-1.517C78.826,42.073,83.328,41.029,85.584,38.843z"/>
</svg>
