<?xml version="1.0" encoding="utf-8"?>
<!-- Generator: Adobe Illustrator 16.0.0, SVG Export Plug-In . SVG Version: 6.00 Build 0)  -->
<!DOCTYPE svg PUBLIC "-//W3C//DTD SVG 1.1//EN" "http://www.w3.org/Graphics/SVG/1.1/DTD/svg11.dtd">
<svg version="1.1" id="Layer_1" xmlns="http://www.w3.org/2000/svg" xmlns:xlink="http://www.w3.org/1999/xlink" x="0px" y="0px"
	 width="95px" height="102px" viewBox="0 0 95 102" enable-background="new 0 0 95 102" xml:space="preserve">
<rect id="background_3_" fill="#D1BDAC" width="95" height="102"/>
<g opacity="0.5">
	<path fill="#7E7268" d="M0,0.285C0.099,0.188,0.202,0.096,0.301,0H0V0.285z"/>
	<path fill="#887B71" d="M0,10.6C3.286,6.699,6.98,3.152,11.007,0H0.301C0.202,0.096,0.099,0.188,0,0.285V10.6z"/>
	<path fill="#908277" d="M0,10.6v14.774C6.234,14.589,15.497,5.753,26.646,0h-15.64C6.98,3.152,3.286,6.699,0,10.6z"/>
	<path fill="#908277" d="M0,102h9.133C5.629,98.306,2.561,94.207,0,89.778V102z"/>
	<path fill="#908277" d="M95,0h-7.97c2.78,1.435,5.441,3.061,7.97,4.861V0z"/>
	<path fill="#96887C" d="M95,102v-0.857c-0.332,0.287-0.659,0.579-0.998,0.857H95z"/>
	<path fill="#96887C" d="M0,70.11v19.668C2.561,94.207,5.629,98.306,9.133,102h10.541C9.906,93.966,2.843,82.825,0,70.11z"/>
	<path fill="#96887C" d="M95,4.861c-2.528-1.8-5.189-3.426-7.97-4.861H60.592C73.722,0.829,85.662,5.968,95,14.008V4.861z"/>
	<path fill="#96887C" d="M0,25.374v19.667C5.516,20.373,26.951,1.649,53.085,0H26.646C15.497,5.753,6.234,14.589,0,25.374z"/>
	<path fill="#9E8F82" d="M0,45.041V70.11C2.843,82.825,9.906,93.966,19.674,102h8.735C13.59,92.667,3.748,76.265,3.748,57.576
		c0-29.057,23.768-52.612,53.09-52.612c14.985,0,28.509,6.161,38.162,16.054v-7.01C85.662,5.968,73.722,0.829,60.592,0h-7.507
		C26.951,1.649,5.516,20.373,0,45.041z"/>
	<path fill="#9E8F82" d="M85.267,102h8.735c0.339-0.279,0.666-0.571,0.998-0.857v-7.01C92.087,97.119,88.821,99.763,85.267,102z"/>
	<path fill="#A69688" d="M72.663,102h12.604c3.555-2.237,6.82-4.881,9.733-7.867v-8.467C89.412,93.108,81.657,98.853,72.663,102z"/>
	<path fill="#A69688" d="M56.838,4.964c-29.322,0-53.09,23.555-53.09,52.612c0,18.689,9.842,35.091,24.661,44.424h12.604
		C22.541,95.537,9.302,78.092,9.302,57.576c0-26.018,21.281-47.109,47.536-47.109c15.632,0,29.498,7.478,38.162,19.019v-8.467
		C85.347,11.125,71.823,4.964,56.838,4.964z"/>
	<path fill="#AD9D8E" d="M56.838,10.466c-26.255,0-47.536,21.092-47.536,47.109c0,20.517,13.239,37.961,31.711,44.424h31.65
		C81.657,98.853,89.412,93.108,95,85.666v-13.2c-5.996,15.078-20.815,25.755-38.162,25.755c-22.652,0-41.015-18.198-41.015-40.645
		c0-22.448,18.362-40.645,41.015-40.645c17.347,0,32.166,10.676,38.162,25.754V29.485C86.336,17.944,72.47,10.466,56.838,10.466z"/>
	<path fill="#B2A192" d="M56.838,16.931c-22.652,0-41.015,18.197-41.015,40.645c0,22.447,18.362,40.645,41.015,40.645
		c17.347,0,32.166-10.677,38.162-25.755v-29.78C89.004,27.607,74.185,16.931,56.838,16.931z M56.838,91.678
		c-19.006,0-34.411-15.269-34.411-34.102c0-18.834,15.405-34.103,34.411-34.103c19.007,0,34.412,15.269,34.412,34.103
		C91.25,76.409,75.845,91.678,56.838,91.678z"/>
	<path fill="#BEAC9D" d="M56.838,23.473c-19.006,0-34.411,15.269-34.411,34.103c0,18.833,15.405,34.102,34.411,34.102
		c19.007,0,34.412-15.269,34.412-34.102C91.25,38.742,75.845,23.473,56.838,23.473z M56.838,84.409
		c-14.955,0-27.077-12.014-27.077-26.833c0-14.82,12.122-26.833,27.077-26.833c14.956,0,27.077,12.014,27.077,26.833
		C83.915,72.395,71.794,84.409,56.838,84.409z"/>
	<path fill="#C4B2A2" d="M56.838,30.742c-14.955,0-27.077,12.014-27.077,26.833c0,14.819,12.122,26.833,27.077,26.833
		c14.956,0,27.077-12.014,27.077-26.833C83.915,42.756,71.794,30.742,56.838,30.742z M56.838,76.316
		c-10.444,0-18.911-8.391-18.911-18.741c0-10.351,8.467-18.741,18.911-18.741c10.445,0,18.911,8.391,18.911,18.741
		C75.749,67.926,67.283,76.316,56.838,76.316z"/>
	<ellipse fill="#D1BDAC" cx="56.838" cy="57.575" rx="18.911" ry="18.741"/>
</g>
<g>
	<path fill="none" d="M27.697,75.597c-1.218,0-0.984,2.319-0.982,2.319v6.459l2.102-0.366v-6.349
		C28.816,77.661,28.912,75.597,27.697,75.597z"/>
	<path fill="none" d="M29.242,59.492c-1.218,0-0.985,2.32-0.983,2.321v6.459l2.101-0.366v-6.35
		C30.359,61.555,30.457,59.492,29.242,59.492z"/>
	<polygon fill="none" points="30.343,48.25 31.366,47.832 31.366,44.401 30.343,45.087 	"/>
	<path fill="none" d="M24.451,61.52c-1.215,0-0.98,2.139-0.98,2.139v5.952l2.102-0.336v-5.85
		C25.572,63.425,25.669,61.52,24.451,61.52z"/>
	<path fill="none" d="M34.312,74.752c-1.685,0-1.36,2.399-1.36,2.397v6.686l2.907-0.375v-6.571
		C35.858,76.888,35.995,74.752,34.312,74.752z"/>
	<path fill="none" d="M35.496,57.576c-1.686,0-1.361,2.396-1.361,2.396v6.686l2.909-0.376v-6.57
		C37.044,59.71,37.178,57.576,35.496,57.576z"/>
	<path fill="none" d="M19.85,63.527c-0.725,0-0.585,2.044-0.587,2.046v5.694l1.253-0.321v-5.599
		C20.516,65.348,20.572,63.527,19.85,63.527z"/>
	<polygon fill="none" points="21.914,49.801 21.46,50.278 21.46,52.665 21.914,52.456 	"/>
	<path fill="none" d="M22.547,76.911c-1.218,0-0.98,2.14-0.98,2.14v5.951l2.1-0.336v-5.853
		C23.666,78.812,23.765,76.911,22.547,76.911z"/>
	<path fill="none" d="M59.775,91.18c-3.092,0-3.746,3.836-3.746,3.836V102h7.495v-6.981C63.524,95.019,62.869,91.18,59.775,91.18z"
		/>
	<polygon fill="none" points="43.228,43.702 45.217,43.343 45.217,39.6 43.228,40.205 	"/>
	<path fill="none" d="M58.172,61.736l5.571-0.42v-7.279c0,0,0.259-2.366-2.966-2.366c-3.227,0-2.605,2.658-2.605,2.658V61.736z"/>
	<path fill="none" d="M68.665,60.216l5.781-0.418v-7.279c0,0,0.271-2.367-3.076-2.367c-3.348,0-2.705,2.659-2.705,2.661V60.216z"/>
	<polygon fill="none" points="62.434,34.705 59.483,35.004 59.483,38.911 62.434,38.524 	"/>
	<path fill="none" d="M60.221,70.236c-3.09,0-3.746,3.442-3.746,3.442l0.287,7.867h7.207v-7.867
		C63.969,73.678,63.314,70.236,60.221,70.236z"/>
	<polygon fill="none" points="83.415,31.694 80.072,31.844 80.072,35.542 83.415,35.334 	"/>
	<path fill="none" d="M41.487,73.28c-2.393,0-1.932,2.506-1.932,2.506v6.975l4.13-0.393v-6.859
		C43.686,75.508,43.88,73.28,41.487,73.28z"/>
	<path fill="none" d="M86.367,51.528c0,0-0.088-2.622-3.433-2.622c-3.346,0-3.432,2.71-3.432,2.71v7.403h6.864V51.528z"/>
	<path fill="none" d="M42.672,55.384c-2.395,0-1.936,2.507-1.934,2.507v6.975l4.133-0.394v-6.857
		C44.871,57.614,45.062,55.384,42.672,55.384z"/>
	<path fill="none" d="M49.907,72.027c-2.811,0-2.27,2.662-2.27,2.662v7.4l4.853-0.415v-7.281
		C52.49,74.394,52.718,72.027,49.907,72.027z"/>
	<path fill="none" d="M51.09,53.418c-2.811,0-2.27,2.658-2.268,2.659v7.406l4.853-0.419v-7.28
		C53.675,55.784,53.902,53.418,51.09,53.418z"/>
	<path fill="none" d="M91.424,71.848l0.33,8.323H95V68.211C91.484,68.237,91.424,71.848,91.424,71.848z"/>
	<path fill="none" d="M8.367,91.445l0.947-9.62c0,0-1.897-1.926,1.399-4.564l0.362-6.622c0,0-1.446-2.776,1.354-6.577l-0.061-8.74
		c0,0-0.722-12.651,25.529-22.673c0.154-0.06,0.306-0.117,0.461-0.174l3.196,2.231l5.507-2.5l3.479-0.495l0.773-3.774
		C65.108,23.575,78.331,21.086,95,20.343V0H0v102h6.893l1.205-9.034C8.098,92.966,6.47,91.892,8.367,91.445z"/>
	<path fill="none" d="M90.85,50.423l-0.21,7.762H95V47.737c-0.162-0.012-0.327-0.023-0.507-0.023
		C90.941,47.714,90.85,50.423,90.85,50.423z"/>
	<path fill="none" d="M26.003,93.149c-1.812,0-1.464,2.915-1.464,2.915V102h3.128v-6.258C27.667,95.742,27.813,93.149,26.003,93.149
		z"/>
	<path fill="none" d="M70.817,68.983c-3.094,0-3.747,3.641-3.747,3.641l0.288,8.323h7.207v-8.323
		C74.565,72.625,73.91,68.983,70.817,68.983z"/>
	<path fill="none" d="M32.253,92.676c-2.013,0-1.628,2.966-1.628,2.966V102h3.479v-6.684C34.104,95.316,34.263,92.676,32.253,92.676
		z"/>
	<path fill="none" d="M71.818,90.285c-3.093,0-3.748,4.108-3.748,4.108L68.304,102h7.263v-7.606
		C75.566,94.394,74.912,90.285,71.818,90.285z"/>
	<path fill="none" d="M13.531,95.376c-0.64,0-0.518,2.294-0.518,2.294V102h1.108v-4.582C14.122,97.418,14.175,95.376,13.531,95.376z
		"/>
	<path fill="none" d="M10.673,96.125c-0.344,0-0.276,2.083-0.276,2.083V102h0.591v-4.023C10.987,97.977,11.016,96.125,10.673,96.125
		z"/>
	<path fill="none" d="M16.707,94.712c-0.724,0-0.585,2.399-0.585,2.399V102h1.249v-5.154C17.371,96.846,17.43,94.712,16.707,94.712z
		"/>
	<path fill="none" d="M18.305,78.197c-0.724,0-0.584,2.049-0.584,2.049v5.695l1.25-0.321v-5.602
		C18.971,80.018,19.027,78.197,18.305,78.197z"/>
	<path fill="none" d="M12.662,80.853c-0.341,0-0.275,1.651-0.275,1.651v4.601l0.591-0.261v-4.521
		C12.978,82.321,13.006,80.853,12.662,80.853z"/>
	<path fill="none" d="M83.145,68.567c-2.906,0-3.522,3.639-3.522,3.639l0.271,8.325h6.774v-8.325
		C86.667,72.206,86.052,68.567,83.145,68.567z"/>
	<path fill="none" d="M15.165,79.689c-0.64,0-0.517,1.901-0.519,1.902v5.292l1.109-0.299V81.38
		C15.756,81.38,15.809,79.689,15.165,79.689z"/>
	<path fill="none" d="M13.849,67.969c-0.345,0-0.278,1.653-0.278,1.653v4.598l0.592-0.258V69.44
		C14.162,69.44,14.191,67.969,13.849,67.969z"/>
	<path fill="none" d="M16.71,65.374c-0.641,0-0.517,1.9-0.517,1.9v5.29l1.106-0.298v-5.201C17.3,67.065,17.354,65.374,16.71,65.374z
		"/>
	<path fill="none" d="M20.637,93.821c-1.218,0-0.984,2.589-0.984,2.589V102h2.102v-5.876C21.754,96.124,21.851,93.821,20.637,93.821
		z"/>
	<path fill="none" d="M83.423,90.225c-2.905,0-3.521,4.13-3.521,4.13l0.22,7.645h6.825v-7.645
		C86.947,94.355,86.33,90.225,83.423,90.225z"/>
	<path fill="none" d="M49.1,91.449c-2.811,0-2.27,3.227-2.27,3.227V102h4.854v-7.682C51.685,94.318,51.914,91.449,49.1,91.449z"/>
	<path fill="none" d="M39.957,92.075c-2.393,0-1.934,3.062-1.934,3.062V102h4.133v-7.2C42.156,94.8,42.351,92.075,39.957,92.075z"/>
	<path fill="none" d="M92.425,93.899l0.288,8.015c-1.139,0.03-2.287,0.057-3.433,0.086H95V90.005
		C92.479,90.705,92.425,93.899,92.425,93.899z"/>
	<path fill="#FFFFFF" d="M92.425,93.899c0,0,0.054-3.194,2.575-3.894v-9.834h-3.246l-0.33-8.323c0,0,0.061-3.611,3.576-3.637V58.185
		h-4.36l0.21-7.762c0,0,0.092-2.709,3.644-2.709c0.18,0,0.345,0.012,0.507,0.023V20.343c-16.669,0.743-29.892,3.231-43.684,7.594
		l-0.773,3.774l-3.479,0.495l-5.507,2.5l-3.196-2.231c-0.155,0.057-0.307,0.114-0.461,0.174
		C11.648,42.672,12.37,55.323,12.37,55.323l0.061,8.74c-2.801,3.801-1.354,6.577-1.354,6.577l-0.362,6.622
		c-3.297,2.638-1.399,4.564-1.399,4.564l-0.947,9.62c-1.897,0.446-0.27,1.521-0.27,1.521L6.893,102h3.504v-3.792
		c0,0-0.067-2.083,0.276-2.083c0.343,0,0.314,1.852,0.314,1.852V102h2.026v-4.33c0,0-0.122-2.294,0.518-2.294
		c0.644,0,0.591,2.042,0.591,2.042V102h2v-4.889c0,0-0.139-2.399,0.585-2.399c0.723,0,0.664,2.134,0.664,2.134V102h2.281v-5.59
		c0,0-0.233-2.589,0.984-2.589c1.214,0,1.117,2.302,1.117,2.302V102h2.785v-5.937c0,0-0.349-2.915,1.464-2.915
		c1.811,0,1.664,2.593,1.664,2.593V102h2.958v-6.357c0,0-0.385-2.966,1.628-2.966c2.01,0,1.851,2.64,1.851,2.64V102h3.92v-6.863
		c0,0-0.459-3.062,1.934-3.062c2.394,0,2.199,2.725,2.199,2.725v7.2h4.674v-7.324c0,0-0.541-3.227,2.27-3.227
		c2.814,0,2.585,2.869,2.585,2.869V102h4.345v-6.983c0,0,0.654-3.836,3.746-3.836c3.094,0,3.749,3.838,3.749,3.838V102h4.779
		l-0.233-7.606c0,0,0.655-4.108,3.748-4.108c3.094,0,3.748,4.108,3.748,4.108V102h4.556l-0.22-7.645c0,0,0.615-4.13,3.521-4.13
		c2.907,0,3.524,4.13,3.524,4.13V102h2.333c1.146-0.029,2.294-0.056,3.433-0.086L92.425,93.899z M12.978,82.321v4.521l-0.591,0.261
		v-4.601c0,0-0.065-1.651,0.275-1.651C13.006,80.853,12.978,82.321,12.978,82.321z M14.162,69.44v4.521L13.57,74.22v-4.598
		c0,0-0.066-1.653,0.278-1.653C14.191,67.969,14.162,69.44,14.162,69.44z M15.756,81.38v5.204l-1.109,0.299v-5.292
		c0.002-0.001-0.121-1.902,0.519-1.902C15.809,79.689,15.756,81.38,15.756,81.38z M17.3,67.065v5.201l-1.106,0.298v-5.29
		c0,0-0.124-1.9,0.517-1.9C17.354,65.374,17.3,67.065,17.3,67.065z M18.971,80.018v5.602l-1.25,0.321v-5.695
		c0,0-0.14-2.049,0.584-2.049C19.027,78.197,18.971,80.018,18.971,80.018z M20.516,65.348v5.599l-1.253,0.321v-5.694
		c0.002-0.002-0.138-2.046,0.587-2.046C20.572,63.527,20.516,65.348,20.516,65.348z M21.46,50.278l0.454-0.477v2.655l-0.454,0.209
		V50.278z M23.666,78.812v5.853l-2.1,0.336V79.05c0,0-0.237-2.14,0.98-2.14S23.666,78.812,23.666,78.812z M25.572,63.425v5.85
		l-2.102,0.336v-5.952c0,0-0.234-2.139,0.98-2.139C25.669,61.52,25.572,63.425,25.572,63.425z M28.816,77.661v6.349l-2.102,0.366
		v-6.459c-0.002,0-0.235-2.319,0.982-2.319C28.912,75.597,28.816,77.661,28.816,77.661z M30.359,61.555v6.35l-2.101,0.366v-6.459
		c-0.002-0.001-0.234-2.321,0.983-2.321C30.457,59.492,30.359,61.555,30.359,61.555z M31.366,47.832l-1.023,0.418v-3.163
		l1.023-0.686V47.832z M35.858,76.888v6.571l-2.907,0.375v-6.686c0,0.002-0.324-2.397,1.36-2.397
		C35.995,74.752,35.858,76.888,35.858,76.888z M37.044,59.71v6.57l-2.909,0.376v-6.686c0,0-0.324-2.396,1.361-2.396
		C37.178,57.576,37.044,59.71,37.044,59.71z M43.686,75.508v6.859l-4.13,0.393v-6.975c0,0-0.461-2.506,1.932-2.506
		S43.686,75.508,43.686,75.508z M44.871,57.614v6.857l-4.133,0.394v-6.975c-0.002,0-0.461-2.507,1.934-2.507
		C45.062,55.384,44.871,57.614,44.871,57.614z M45.217,43.343l-1.989,0.358v-3.497l1.989-0.605V43.343z M52.49,74.394v7.281
		l-4.853,0.415v-7.4c0,0-0.541-2.662,2.27-2.662S52.49,74.394,52.49,74.394z M53.675,55.784v7.28l-4.853,0.419v-7.406
		c-0.002-0.001-0.543-2.659,2.268-2.659C53.902,53.418,53.675,55.784,53.675,55.784z M71.37,50.151c3.347,0,3.076,2.367,3.076,2.367
		v7.279l-5.781,0.418v-7.404C68.665,52.81,68.022,50.151,71.37,50.151z M59.483,35.004l2.95-0.299v3.819l-2.95,0.387V35.004z
		 M60.777,51.671c3.225,0,2.966,2.366,2.966,2.366v7.279l-5.571,0.42V54.33C58.172,54.33,57.551,51.671,60.777,51.671z
		 M63.969,81.545h-7.207l-0.287-7.867c0,0,0.656-3.442,3.746-3.442c3.094,0,3.748,3.442,3.748,3.442V81.545z M74.565,80.947h-7.207
		l-0.288-8.323c0,0,0.653-3.641,3.747-3.641c3.093,0,3.748,3.641,3.748,3.641V80.947z M80.072,31.844l3.343-0.15v3.64l-3.343,0.207
		V31.844z M79.503,51.616c0,0,0.086-2.71,3.432-2.71c3.345,0,3.433,2.622,3.433,2.622v7.492h-6.864V51.616z M86.667,80.531h-6.774
		l-0.271-8.325c0,0,0.616-3.639,3.522-3.639c2.907,0,3.522,3.639,3.522,3.639V80.531z"/>
</g>
</svg>
