<?xml version="1.0" encoding="utf-8"?>
<!-- Generator: Adobe Illustrator 16.0.0, SVG Export Plug-In . SVG Version: 6.00 Build 0)  -->
<!DOCTYPE svg PUBLIC "-//W3C//DTD SVG 1.1//EN" "http://www.w3.org/Graphics/SVG/1.1/DTD/svg11.dtd">
<svg version="1.1" id="Layer_1" xmlns="http://www.w3.org/2000/svg" xmlns:xlink="http://www.w3.org/1999/xlink" x="0px" y="0px"
	 width="95px" height="107px" viewBox="0 0 95 107" enable-background="new 0 0 95 107" xml:space="preserve">
<rect id="lucht_1_" fill="#E87134" width="95" height="107"/>
<g>
	<polygon fill="none" points="95,0 92.98,0 95,2.004 	"/>
	<polygon fill="none" points="95,36.7 95,33.34 93.308,35.021 	"/>
	<polygon fill="none" points="0,0 0,2.005 2.02,0 	"/>
	<polygon fill="none" points="95,72.676 95,68.31 92.801,70.493 	"/>
	<polygon fill="none" points="95,90.586 95,86.297 92.84,88.441 	"/>
	<polygon fill="none" points="95,54.688 95,50.321 92.801,52.504 	"/>
	<polygon fill="none" points="0,33.34 0,36.7 1.692,35.021 	"/>
	<polygon fill="none" points="95,19.719 95,15.626 92.938,17.673 	"/>
	<polygon fill="none" points="0,15.625 0,19.72 2.062,17.673 	"/>
	<polygon fill="none" points="0,50.32 0,54.689 2.2,52.504 	"/>
	<polygon fill="none" points="0,68.308 0,72.676 2.2,70.493 	"/>
	<polygon fill="none" points="0,86.296 0,90.587 2.161,88.441 	"/>
	<polygon fill="none" points="92.801,106.391 83.74,97.397 92.762,88.441 83.74,79.486 92.801,70.493 83.74,61.499 92.801,52.504 
		83.74,43.51 92.294,35.021 83.74,26.53 92.663,17.673 83.74,8.815 92.621,0 74.861,0 83.74,8.815 74.818,17.673 83.74,26.53 
		75.188,35.021 83.74,43.511 74.681,52.504 83.74,61.499 74.681,70.493 83.74,79.487 74.72,88.441 83.74,97.397 74.681,106.391 
		65.62,97.397 74.642,88.441 65.62,79.486 74.681,70.493 65.62,61.499 74.681,52.504 65.62,43.51 74.173,35.021 65.62,26.53 
		74.543,17.673 65.62,8.815 74.5,0 56.74,0 65.62,8.815 56.698,17.673 65.62,26.53 57.067,35.021 65.62,43.511 56.561,52.504 
		65.62,61.499 56.561,70.493 65.62,79.487 56.6,88.441 65.62,97.397 56.561,106.391 47.5,97.397 56.521,88.441 47.5,79.486 
		56.561,70.493 47.5,61.499 56.561,52.504 47.5,43.51 56.054,35.021 47.5,26.53 56.423,17.673 47.5,8.815 56.381,0 38.621,0 
		47.5,8.815 38.578,17.673 47.5,26.53 38.948,35.021 47.5,43.511 38.44,52.504 47.5,61.499 38.44,70.493 47.5,79.487 38.479,88.441 
		47.5,97.397 38.44,106.391 29.38,97.397 38.401,88.441 29.38,79.486 38.44,70.493 29.38,61.499 38.44,52.504 29.38,43.51 
		37.933,35.021 29.38,26.53 38.303,17.673 29.38,8.815 38.26,0 20.5,0 29.38,8.815 20.458,17.673 29.38,26.53 20.827,35.021 
		29.38,43.511 20.32,52.504 29.38,61.499 20.32,70.493 29.38,79.487 20.359,88.441 29.38,97.397 20.32,106.391 11.26,97.397 
		20.281,88.441 11.26,79.486 20.32,70.493 11.26,61.499 20.32,52.504 11.26,43.51 19.813,35.021 11.26,26.53 20.183,17.673 
		11.26,8.815 20.141,0 2.381,0 11.26,8.815 2.338,17.673 11.26,26.53 2.708,35.021 11.26,43.511 2.2,52.504 11.26,61.499 
		2.2,70.493 11.26,79.487 2.239,88.441 11.26,97.397 2.2,106.391 0,104.207 0,107 95,107 95,104.208 	"/>
	<polygon fill="#B85E36" points="11.26,43.511 2.708,35.021 11.26,26.53 2.338,17.673 11.26,8.815 2.381,0 2.02,0 0,2.005 0,15.625 
		2.062,17.673 0,19.72 0,33.34 1.692,35.021 0,36.7 0,50.32 2.2,52.504 	"/>
	<polygon fill="#B85E36" points="11.26,61.499 2.2,52.504 0,54.689 0,68.308 2.2,70.493 	"/>
	<polygon fill="#B85E36" points="11.26,97.397 2.239,88.441 11.26,79.487 2.2,70.493 0,72.676 0,86.296 2.161,88.441 0,90.587 
		0,104.207 2.2,106.391 	"/>
	<polygon fill="#B85E36" points="20.183,17.673 11.26,26.53 19.813,35.021 11.26,43.51 20.32,52.504 29.38,43.511 20.827,35.021 
		29.38,26.53 20.458,17.673 29.38,8.815 20.5,0 20.141,0 11.26,8.815 	"/>
	<polygon fill="#B85E36" points="20.32,70.493 29.38,61.499 20.32,52.504 11.26,61.499 	"/>
	<polygon fill="#B85E36" points="20.281,88.441 11.26,97.397 20.32,106.391 29.38,97.397 20.359,88.441 29.38,79.487 20.32,70.493 
		11.26,79.486 	"/>
	<polygon fill="#B85E36" points="38.303,17.673 29.38,26.53 37.933,35.021 29.38,43.51 38.44,52.504 47.5,43.511 38.948,35.021 
		47.5,26.53 38.578,17.673 47.5,8.815 38.621,0 38.26,0 29.38,8.815 	"/>
	<polygon fill="#B85E36" points="38.44,70.493 47.5,61.499 38.44,52.504 29.38,61.499 	"/>
	<polygon fill="#B85E36" points="38.401,88.441 29.38,97.397 38.44,106.391 47.5,97.397 38.479,88.441 47.5,79.487 38.44,70.493 
		29.38,79.486 	"/>
	<polygon fill="#B85E36" points="56.423,17.673 47.5,26.53 56.054,35.021 47.5,43.51 56.561,52.504 65.62,43.511 57.067,35.021 
		65.62,26.53 56.698,17.673 65.62,8.815 56.74,0 56.381,0 47.5,8.815 	"/>
	<polygon fill="#B85E36" points="56.561,70.493 65.62,61.499 56.561,52.504 47.5,61.499 	"/>
	<polygon fill="#B85E36" points="56.521,88.441 47.5,97.397 56.561,106.391 65.62,97.397 56.6,88.441 65.62,79.487 56.561,70.493 
		47.5,79.486 	"/>
	<polygon fill="#B85E36" points="74.543,17.673 65.62,26.53 74.173,35.021 65.62,43.51 74.681,52.504 83.74,43.511 75.188,35.021 
		83.74,26.53 74.818,17.673 83.74,8.815 74.861,0 74.5,0 65.62,8.815 	"/>
	<polygon fill="#B85E36" points="74.681,70.493 83.74,61.499 74.681,52.504 65.62,61.499 	"/>
	<polygon fill="#B85E36" points="74.642,88.441 65.62,97.397 74.681,106.391 83.74,97.397 74.72,88.441 83.74,79.487 74.681,70.493 
		65.62,79.486 	"/>
	<polygon fill="#B85E36" points="92.663,17.673 83.74,26.53 92.294,35.021 83.74,43.51 92.801,52.504 95,50.321 95,36.7 
		93.308,35.021 95,33.34 95,19.719 92.938,17.673 95,15.626 95,2.004 92.98,0 92.621,0 83.74,8.815 	"/>
	<polygon fill="#B85E36" points="83.74,61.499 92.801,70.493 95,68.31 95,54.688 92.801,52.504 	"/>
	<polygon fill="#B85E36" points="83.74,79.486 92.762,88.441 83.74,97.397 92.801,106.391 95,104.208 95,90.586 92.84,88.441 
		95,86.297 95,72.676 92.801,70.493 	"/>
</g>
</svg>
