<?xml version="1.0" encoding="utf-8"?>
<!-- Generator: Adobe Illustrator 16.0.0, SVG Export Plug-In . SVG Version: 6.00 Build 0)  -->
<!DOCTYPE svg PUBLIC "-//W3C//DTD SVG 1.1//EN" "http://www.w3.org/Graphics/SVG/1.1/DTD/svg11.dtd">
<svg version="1.1" id="Layer_1" xmlns="http://www.w3.org/2000/svg" xmlns:xlink="http://www.w3.org/1999/xlink" x="0px" y="0px"
	 width="95px" height="102px" viewBox="0 0 95 102" enable-background="new 0 0 95 102" xml:space="preserve">
<rect id="background_4_" fill="#10AB4E" width="95" height="102"/>
<g>
	<rect x="72.116" y="58.477" fill="none" width="1.319" height="0.786"/>
	<rect x="10.568" y="85.661" fill="none" width="2.867" height="0.749"/>
	<rect x="14.552" y="85.661" fill="none" width="3" height="0.749"/>
	<polygon fill="none" points="9.799,68.768 9.799,78.49 13.613,73.63 	"/>
	<rect x="11.792" y="5.344" fill="none" width="5.34" height="1.118"/>
	<path fill="none" d="M33.354,102h0.423v-0.582C33.646,101.612,33.493,101.806,33.354,102z"/>
	<path fill="none" d="M73.724,1.086L73.372,0h-1.284l0.376,1.395C72.855,1.284,73.275,1.181,73.724,1.086z"/>
	<rect x="47.648" y="27.141" fill="none" width="4.968" height="2.973"/>
	<rect x="26.744" y="42.993" fill="none" width="3.275" height="1.022"/>
	<rect x="26.744" y="44.896" fill="none" width="3.275" height="0.975"/>
	<rect x="47.648" y="31.28" fill="none" width="4.968" height="3.247"/>
	<path fill="none" d="M11.792,3.655v0.761h5.34V3.441h-4.824C12.14,3.512,11.968,3.583,11.792,3.655z"/>
	<rect x="14.552" y="90.215" fill="none" width="3.048" height="0.654"/>
	<rect x="14.552" y="88.683" fill="none" width="3.048" height="0.606"/>
	<path fill="none" d="M2.888,55.885c-0.824,0.055-1.7,0.083-2.628,0.083L0,55.093v2.408h2.888V55.885z"/>
	<path fill="none" d="M0.919,0H0v0.824c0.123-0.083,0.258-0.16,0.368-0.25C0.577,0.416,0.755,0.217,0.919,0z"/>
	<path fill="none" d="M2.84,69.75c-0.824,0.047-1.716,0.072-2.676,0.072L0,69.292v1.171h2.84V69.75z"/>
	<rect y="87.243" fill="none" width="2.888" height="4.924"/>
	<path fill="none" d="M1.688,71.355H0v1.171c0.419-0.209,0.774-0.418,1.052-0.623C1.284,71.745,1.496,71.562,1.688,71.355z"/>
	<path fill="none" d="M4.388,100.265c-0.096-0.167-0.304-0.25-0.624-0.25c-0.84,0-1.898,0.664-3.17,1.985H4.44
		c0.043-0.397,0.067-0.73,0.067-0.986C4.508,100.65,4.468,100.4,4.388,100.265z"/>
	<rect x="69.968" y="59.916" fill="none" width="1.164" height="0.737"/>
	<rect x="1.244" y="61.211" fill="none" width="4.5" height="2.093"/>
	<path fill="none" d="M2.132,44.29C3.02,43.734,3.976,42.902,5,41.792H0.788c-0.145,0.143-0.284,0.27-0.42,0.38
		C0.254,42.276,0.125,42.375,0,42.476v0.685l0.5-0.31C1.156,43.39,1.7,43.869,2.132,44.29z"/>
	<path fill="none" d="M0,43.814v1.497c0.354-0.137,0.689-0.279,1.004-0.427C0.716,44.551,0.371,44.189,0,43.814z"/>
	<rect x="26.744" y="46.763" fill="none" width="3.275" height="1.023"/>
	<rect y="29.092" fill="none" width="5.372" height="1.676"/>
	<rect x="0.404" y="46.62" fill="none" width="5.147" height="2.366"/>
	<rect x="72.116" y="59.916" fill="none" width="1.319" height="0.737"/>
	<path fill="none" d="M15.44,0.551C15.672,0.38,15.904,0.194,16.138,0H14.18v0.551H15.44z"/>
	<rect x="27.308" y="16.867" fill="none" width="0.937" height="0.975"/>
	<path fill="none" d="M24.212,15.059h-0.984v1.023h1.129v0.927h-1.129v3.401c0.376-0.103,0.752-0.214,1.129-0.333v0.69
		c0.808-0.611,1.451-1.304,1.932-2.082h-1.236v-0.844h1.368v-0.975h-1.644v-0.833h1.644v-0.833h-1.368v-0.844h1.368v-0.689h-1.74
		v-0.44l-0.372,0.856c-0.432-0.658-0.884-1.233-1.355-1.725c-0.36,0.603-0.792,1.193-1.296,1.772h2.556V15.059z M24.26,19.792
		l-0.792-0.178c0.152-0.667,0.229-1.316,0.229-1.951l0.804,0.048C24.483,18.44,24.404,19.134,24.26,19.792z"/>
	<path fill="none" d="M51.248,71.903h1.416c0.216-0.508,0.384-1.032,0.504-1.57h-2.46L51.248,71.903z"/>
	<rect x="50" y="74.507" fill="none" width="3.84" height="1.213"/>
	<rect x="12.116" y="59.916" fill="none" width="1.319" height="0.737"/>
	<rect x="50" y="76.6" fill="none" width="3.84" height="1.212"/>
	<rect x="61.244" y="61.211" fill="none" width="4.5" height="2.093"/>
	<rect x="27.308" y="13.668" fill="none" width="0.937" height="0.689"/>
	<rect x="34.52" y="59.119" fill="none" width="0.984" height="3.675"/>
	<path fill="none" d="M72.776,77.183c0,0.388,0.483,0.583,1.451,0.583c0.456,0,0.776-0.044,0.961-0.132
		c0.256-0.119,0.403-0.356,0.443-0.713c-0.696-0.214-1.315-0.321-1.859-0.321C73.107,76.6,72.776,76.794,72.776,77.183z"/>
	<rect x="12.116" y="58.477" fill="none" width="1.319" height="0.786"/>
	<rect x="9.968" y="58.477" fill="none" width="1.164" height="0.786"/>
	<rect x="9.968" y="59.916" fill="none" width="1.164" height="0.737"/>
	<rect x="51.212" y="57.455" fill="none" width="0.937" height="1.117"/>
	<rect x="45.824" y="16.688" fill="none" width="1.5" height="2.462"/>
	<path fill="none" d="M34.736,33.36c0.288,0.603,0.628,0.904,1.02,0.904c0.24,0,0.54-0.554,0.9-1.665
		c0.424-1.285,0.72-2.791,0.888-4.519c-0.952,0.183-1.716,0.603-2.292,1.261c-0.6,0.673-0.9,1.486-0.9,2.438
		C34.352,32.311,34.479,32.837,34.736,33.36z"/>
	<rect x="38.372" y="56.29" fill="none" width="1.548" height="2.235"/>
	<rect x="45.824" y="13.156" fill="none" width="1.5" height="2.509"/>
	<rect x="36.308" y="19.887" fill="none" width="4.776" height="0.975"/>
	<path fill="none" d="M40.676,61.782c0.353-0.507,0.708-1.299,1.068-2.378h-2.101C39.892,60.372,40.236,61.165,40.676,61.782z"/>
	<rect x="29.132" y="15.202" fill="none" width="0.937" height="0.833"/>
	<path fill="none" d="M35.144,17.426h5.713v-0.738H35.18C35.18,16.934,35.168,17.18,35.144,17.426z"/>
	<rect x="45.728" y="73.723" fill="none" width="1.272" height="2.461"/>
	<rect x="29.132" y="16.867" fill="none" width="0.937" height="0.975"/>
	<rect x="45.728" y="70.142" fill="none" width="1.272" height="2.605"/>
	<rect x="35.18" y="15.154" fill="none" width="5.677" height="0.642"/>
	<path fill="none" d="M35.912,13.584c-0.408,0.23-0.893,0.46-1.452,0.689h3.264c-0.239-0.349-0.508-0.673-0.804-0.975l1.212-0.19
		c0.28,0.341,0.548,0.729,0.804,1.165h2.376c-0.136-0.055-0.26-0.111-0.371-0.167C39.98,13.648,39,12.99,38,12.133
		C37.28,12.712,36.584,13.196,35.912,13.584z"/>
	<rect x="27.308" y="15.202" fill="none" width="0.937" height="0.833"/>
	<path fill="none" d="M1.232,19.828c0,0.436,0.443,0.654,1.332,0.654c0.455,0,0.796-0.043,1.02-0.131
		c0.32-0.126,0.528-0.352,0.624-0.677c-0.72-0.278-1.368-0.417-1.944-0.417C1.576,19.257,1.232,19.447,1.232,19.828z"/>
	<path fill="none" d="M86,2.513c0,1.253-0.3,2.45-0.9,3.591c-0.416,0.785-0.936,1.487-1.56,2.105l-0.672-0.785
		c0.536-0.54,0.983-1.15,1.344-1.832c0.504-0.983,0.756-2.01,0.756-3.08c0-0.867-0.174-1.704-0.505-2.513h-9.98l0.285,0.896
		c0.296-0.039,0.553-0.06,0.769-0.06c0.704,0,1.288,0.191,1.752,0.571c0.496,0.412,0.744,0.963,0.744,1.653
		c0,0.642-0.232,1.154-0.696,1.534c-0.432,0.357-0.976,0.535-1.632,0.535c-0.536,0-1.132-0.083-1.788-0.25l0.216-1.022
		c0.472,0.143,0.98,0.214,1.524,0.214c0.344,0,0.64-0.091,0.888-0.273c0.256-0.174,0.384-0.42,0.384-0.737
		c0-0.38-0.128-0.673-0.384-0.88c-0.264-0.206-0.6-0.309-1.008-0.309c-0.137,0-0.284,0.008-0.444,0.024l0.36,1.082L74.432,3.31
		l-0.396-1.237c-0.384,0.08-0.82,0.191-1.309,0.333l1.284,4.84l-1.044,0.309l-1.26-4.828L70.052,3.25l-0.348-1.035
		c0.408-0.127,0.979-0.301,1.716-0.523L70.976,0H64.77l-0.033,0.027C64.729,0.018,64.722,0.01,64.716,0h-4.497l-0.187,4.356
		c-0.024,0.603,0.172,1.062,0.588,1.379c0.376,0.293,0.884,0.44,1.523,0.44c1.049,0,1.853-0.356,2.412-1.07
		c0.433-0.555,0.784-1.435,1.057-2.64l1.056,0.357c-0.353,1.483-0.812,2.549-1.38,3.199c-0.72,0.816-1.769,1.225-3.145,1.225
		c-2.136,0-3.203-0.963-3.203-2.89c0-0.587,0.04-2.044,0.118-4.356h-10.03c-0.241,0.581-0.496,1.222-0.769,1.955
		c0.521-0.381,0.952-0.571,1.296-0.571c1.152,0,1.729,0.646,1.729,1.938c0,0.206-0.028,0.523-0.084,0.951
		c-0.057,0.436-0.084,0.761-0.084,0.975c0,0.674,0.264,1.011,0.792,1.011c0.976,0,1.556-1.324,1.74-3.972l1.104,0.321
		c-0.144,1.403-0.356,2.426-0.636,3.068C53.644,6.778,52.872,7.33,51.8,7.33c-1.184,0-1.775-0.678-1.775-2.034
		c0-0.214,0.027-0.535,0.084-0.963c0.056-0.428,0.084-0.745,0.084-0.951c0-0.603-0.244-0.904-0.732-0.904
		c-0.336,0-0.692,0.174-1.068,0.523c-0.319,0.302-0.571,0.634-0.756,1C47.42,4.428,47.208,4.959,47,5.593
		c-0.12,0.373-0.304,0.955-0.552,1.748l-1.08-0.356c0.456-1.451,1.012-3.068,1.668-4.852C47.329,1.333,47.595,0.638,47.845,0h-5.488
		v0.17c-2.24,0-4.185,0.071-5.832,0.214V0h-1.419c-0.084,1.163-0.142,2.357-0.142,3.619c0,1.166,0.028,2.422,0.084,3.77L33.92,7.508
		c-0.048-1.237-0.072-2.462-0.072-3.674c0-1.416,0.045-2.682,0.124-3.833h-6.435c-0.331,0.81-0.505,1.646-0.505,2.513
		c0,1.07,0.252,2.097,0.756,3.08c0.36,0.682,0.808,1.292,1.344,1.832L28.46,8.209c-0.624-0.618-1.145-1.32-1.56-2.105
		C26.3,4.963,26,3.766,26,2.513C26,1.648,26.153,0.812,26.439,0h-8.778c-0.196,0.184-0.388,0.38-0.589,0.551h2.447v1.022h-3.743
		c-0.145,0.103-0.284,0.202-0.42,0.297c-0.328,0.214-0.692,0.428-1.093,0.642h3.996v5.435h-1.128V7.389h-5.34v0.559h-1.176v-3.83
		c-0.521,0.191-1.064,0.381-1.632,0.571l-0.48-1.07c2.144-0.61,3.916-1.292,5.316-2.045H8.6V0.551h4.452V0H6.565
		c-0.087,0.986-0.18,1.552-0.281,1.681C6.156,1.998,5.948,2.224,5.66,2.358C5.436,2.525,5.012,2.62,4.388,2.644
		c-0.407,0-0.752-0.016-1.031-0.047L3.164,1.443C3.78,1.499,4.14,1.526,4.244,1.526c0.392,0,0.655-0.076,0.792-0.226
		C5.189,1.221,5.316,0.782,5.418,0h-3.17C2.06,0.343,1.844,0.657,1.592,0.932C1.179,1.385,0.64,1.773,0,2.11v1.14h0.116v3.068
		c0,0.246,0.14,0.369,0.42,0.369H3.68c0.2,0,0.344-0.056,0.433-0.167C4.224,6.41,4.3,5.895,4.34,4.975l1.08,0.321
		C5.316,6.461,5.147,7.143,4.916,7.341c-0.2,0.214-0.564,0.321-1.092,0.321H0.116C0.073,7.662,0.041,7.648,0,7.646v18.568h6.824
		v0.928H0v0.975h6.5v3.627H0v9.255c0.305-0.322,0.597-0.702,0.872-1.157l1.212,0.13c-0.152,0.309-0.316,0.591-0.492,0.844h4.944
		v0.785c-1.272,1.633-2.584,2.854-3.937,3.663c-0.184,0.119-0.367,0.229-0.552,0.333h4.68v5.161H5.552v-0.749H0.404v0.749H0v4.281
		c2.608,0,4.819-0.25,6.632-0.748l0.517,0.879c-0.881,0.27-1.912,0.473-3.097,0.607v1.724H7.52v1.024H4.052v1.712h2.82v4.792H5.744
		V64.28h-4.5v0.749H0.116v-4.792h2.771v-1.712H0v10.403c2.438-0.005,4.512-0.187,6.212-0.545l0.468,0.832
		c-0.808,0.198-1.744,0.35-2.808,0.452v0.796h3.132v0.892H4.868c0.231,0.214,0.483,0.416,0.756,0.606
		c0.408,0.271,0.979,0.563,1.716,0.881l-0.708,0.88c-0.792-0.437-1.428-0.877-1.908-1.32c-0.328-0.287-0.611-0.608-0.852-0.964
		v1.581H2.84v-1.665H2.756C2.54,71.704,2.32,71.986,2.096,72.2C1.665,72.672,0.962,73.175,0,73.705v3.778
		c0.043,0.028,0.088,0.061,0.128,0.08c0.256,0.159,0.636,0.278,1.14,0.357c0.576,0.096,1.717,0.15,3.421,0.167
		c1.247,0,2.18-0.032,2.796-0.095L7.34,79.109c-3.296,0-5.312-0.048-6.048-0.143C0.77,78.891,0.355,78.77,0,78.624v7.549h2.888
		v-3.39H4.1v3.39h3.385v1.07H4.1v4.924h2.952v1.022H0v4.167l0.26,0.02L0.2,99.183l0.324-0.024c0.111,0.142,0.279,0.384,0.504,0.726
		c-0.257,0.111-0.545,0.286-0.864,0.524v0.558c1.456-1.363,2.668-2.045,3.636-2.045c0.68,0,1.172,0.178,1.477,0.534
		c0.279,0.325,0.42,0.825,0.42,1.498c0,0.269-0.027,0.624-0.077,1.046H11.3c0.893-0.771,1.988-1.722,3.3-2.866
		c-1.664,0.088-2.908,0.132-3.731,0.132l-0.024-1.13l4.656-0.083c0.063-0.031,0.184-0.083,0.36-0.155
		c0.512,0.492,0.768,0.794,0.768,0.904c0,0.159-0.152,0.302-0.456,0.429c-0.656,0.539-1.596,1.328-2.82,2.366
		c0.48-0.151,0.937-0.226,1.368-0.226c0.82,0,1.527,0.215,2.128,0.629h8.166c-0.209-0.181-0.426-0.36-0.657-0.534l0.768-0.619
		c0.491,0.345,0.947,0.729,1.367,1.153h6.081l-0.152-0.534c0.448-0.619,0.844-1.256,1.188-1.915
		c0.352-0.594,0.688-1.458,1.008-2.592l0.983,0.428c-0.256,0.849-0.52,1.581-0.792,2.201V102h0.984v-4.482h7.08V102h5.933
		c0.294-0.776,0.467-1.542,0.487-2.294v-2.83H50.6v2.83c0.193,0.84,0.435,1.602,0.72,2.294h7.224
		c0.194-0.543,0.387-1.11,0.577-1.724c-0.568,0.024-1.132,0.036-1.692,0.036v-1.094c0.769,0,1.44-0.008,2.017-0.023
		c0.176-0.618,0.327-1.225,0.456-1.819l1.104,0.286c-0.104,0.444-0.232,0.936-0.384,1.474c0.768-0.046,1.46-0.099,2.076-0.154
		l0.036,1.07c-0.585,0.063-1.393,0.119-2.425,0.167c-0.191,0.628-0.386,1.218-0.582,1.783h3.79c-0.02-0.285-0.04-0.581-0.063-0.891
		l1.128-0.072c0.019,0.278,0.037,0.608,0.056,0.963h5.286c0.003-1.549,0.07-2.865,0.202-3.936l1.092,0.262
		c-0.131,1.18-0.196,2.406-0.2,3.674h5.93c-0.217-1.418-0.501-2.614-0.857-3.566l1.068-0.298c0.385,1,0.687,2.295,0.915,3.864h4.919
		c0.034-1.125,0.085-2.623,0.153-4.494h1.177L84.128,102h9.744v-1.425c-0.185,0.229-0.372,0.435-0.564,0.617l-0.804-0.975
		c1.056-1.023,1.856-2.153,2.4-3.39L95,96.847v-4.815c-0.532-0.403-0.804-0.947-0.804-1.637c0-0.721,0.278-1.285,0.804-1.708v-2.43
		h-1.416L93.5,85.15H95v-8.219c-0.01-0.08-0.036-0.151-0.036-0.236c0-0.091,0.021-0.178,0.036-0.267v-1.556
		c-0.189,0.23-0.396,0.486-0.636,0.788l-0.853-0.749c0.528-0.577,1.02-1.202,1.488-1.858v-1.551c-0.521,0.013-0.971,0.02-1.332,0.02
		v-1.13c0.277-0.004,0.733-0.013,1.332-0.024v-9.715c-0.488,1.729-1.036,3.23-1.644,4.507l-0.853-0.927
		c0.512-0.991,1.044-2.398,1.596-4.222l0.9,0.642v-2.461l-0.708,1.07c-0.592-0.571-1.2-1.02-1.824-1.345l0.601-0.878
		c0.703,0.325,1.348,0.708,1.932,1.153v-2.316l-0.336,0.508c-0.561-0.531-1.136-0.949-1.729-1.249l0.601-0.892
		c0.523,0.237,1.005,0.52,1.464,0.826v-4.312h-0.384v-2.331H92.84V47.5h1.776v-1.165h-2.148v-0.928h1.248L93.32,43.79h-0.816v-0.892
		h2.16v-1.022H92.84v-0.928h1.824v-1.07H95v-4.846c-0.44,0.436-0.918,0.874-1.464,1.314l-1.032-0.88
		c1.02-0.709,1.836-1.455,2.496-2.228v-3.444h-2.256v-1.166H95v-8.821c-0.439,0.84-0.908,1.618-1.416,2.316l-0.84-0.927
		c0.704-0.896,1.439-2.168,2.208-3.817L95,17.413V16.28l-0.432,0.681c-0.633-0.626-1.288-1.122-1.969-1.486l0.612-0.928
		c0.646,0.313,1.236,0.688,1.788,1.101v-1.754c-0.64-0.626-1.3-1.122-1.98-1.486l0.66-0.976c0.468,0.227,0.902,0.491,1.32,0.773
		V6.532c-0.64-0.423-0.96-1.045-0.96-1.867c0-0.746,0.324-1.41,0.96-1.994V0h-9.439C85.847,0.812,86,1.648,86,2.513z M2.372,5.295
		c-0.521-0.903-1.101-1.708-1.74-2.414l1.08-0.333c0.672,0.713,1.252,1.475,1.74,2.283L2.372,5.295z M4.76,3.488l1.08-0.333
		C6.464,4.17,7.012,5.256,7.484,6.414l-1.08,0.463C5.908,5.601,5.36,4.472,4.76,3.488z M6.884,21.207
		c-0.56-0.42-1.1-0.769-1.62-1.046c-0.184,0.563-0.54,0.955-1.067,1.177c-0.393,0.167-0.937,0.25-1.632,0.25
		c-0.616,0-1.156-0.13-1.62-0.392c-0.568-0.325-0.853-0.781-0.853-1.368c0-0.555,0.248-0.983,0.744-1.284
		c0.408-0.238,0.9-0.356,1.476-0.356c0.648,0,1.309,0.103,1.98,0.309c-0.017-0.634-0.056-1.796-0.12-3.484
		c-0.368,0.016-0.647,0.023-0.84,0.023c-0.672,0-1.7,0.008-3.084,0.024L0.2,13.929c0.696,0.024,1.155,0.036,1.38,0.036
		c0.712,0,1.563-0.023,2.556-0.071l-0.084-1.998h1.152c0.008,0.325,0.032,0.975,0.072,1.95c0.647-0.039,1.264-0.091,1.848-0.154
		c0.032,0.413,0.048,0.789,0.048,1.13c-0.464,0.047-1.084,0.095-1.86,0.143l0.097,3.972c0.752,0.341,1.452,0.765,2.1,1.272
		L6.884,21.207z M6.44,76.838c-0.064,0.261-0.173,0.44-0.324,0.535c-0.216,0.167-0.544,0.25-0.984,0.25H3.68l-0.323-1.07
		c0.567,0.063,1.067,0.095,1.5,0.095c0.231,0,0.388-0.031,0.468-0.095c0.072-0.048,0.136-0.167,0.191-0.356
		c0.049-0.159,0.092-0.381,0.133-0.667H4.196c0.144-0.404,0.264-0.793,0.359-1.166H2.864c-0.112,0.683-0.284,1.237-0.517,1.665
		C1.956,76.742,1.34,77.258,0.5,77.574l-0.48-1.021c0.561-0.182,0.992-0.5,1.297-0.952c0.208-0.27,0.352-0.682,0.432-1.237H0.776
		v-0.928H5.84c-0.072,0.396-0.168,0.801-0.288,1.213h1.176C6.632,75.76,6.536,76.489,6.44,76.838z M69.656,15.582l-0.192-1.118
		c0.48-0.063,1.34-0.154,2.58-0.273c0.232-0.801,0.448-1.609,0.648-2.426l1.115,0.285c-0.176,0.65-0.372,1.34-0.588,2.069
		c0.256-0.008,0.46-0.012,0.612-0.012c1.479,0,2.22,0.706,2.22,2.117c0,1.419-0.08,2.572-0.24,3.46
		c-0.104,0.602-0.243,1.054-0.42,1.355c-0.271,0.476-0.672,0.713-1.199,0.713c-0.528,0-1.133-0.079-1.812-0.237
		c0-0.468-0.023-0.88-0.072-1.237c0.761,0.214,1.345,0.321,1.752,0.321c0.217,0,0.376-0.23,0.48-0.69
		c0.24-1.031,0.36-2.228,0.36-3.592c0-0.452-0.072-0.757-0.217-0.916c-0.144-0.15-0.439-0.226-0.888-0.226
		c-0.192,0-0.492,0.016-0.899,0.047c-0.856,2.806-1.677,5.026-2.461,6.66l-1.067-0.44c0.8-1.657,1.58-3.698,2.34-6.124
		C71.068,15.384,70.384,15.471,69.656,15.582z M78.812,26.975l-0.035,1.13c-1.177,0-2.068,0.04-2.677,0.119
		c-0.688,0.087-1.355,0.606-2.004,1.558c-0.624,0.92-0.936,1.756-0.936,2.509c0,0.991,0.504,1.677,1.512,2.057
		c0.664,0.246,1.652,0.369,2.964,0.369l-0.252,1.177c-3.592-0.087-5.388-1.284-5.388-3.591c0-0.713,0.196-1.443,0.588-2.188
		c0.352-0.674,0.816-1.277,1.392-1.808c-1.479,0.087-3.084,0.202-4.812,0.345l-0.12-1.118L78.812,26.975z M74.72,46.739
		c-0.071-0.126-0.224-0.19-0.456-0.19c-0.248,0-0.691,0.266-1.332,0.797c-0.928,1.078-1.744,2.062-2.447,2.949l-0.841-0.772
		c0.536-0.666,2.217-2.577,5.04-5.732c-0.8,0.032-2.204,0.115-4.212,0.25L70.4,42.874c0.607,0,2.304-0.067,5.088-0.202l0.3-0.226
		l0.828,0.714c0,0.261-0.128,0.432-0.384,0.511c-0.488,0.516-1.053,1.129-1.692,1.843c0.92,0.063,1.38,0.662,1.38,1.796v1.034
		c0,0.31,0.084,0.508,0.252,0.595c0.112,0.056,0.332,0.083,0.66,0.083c0.472,0,1.132-0.06,1.979-0.179l0.133,1.142
		c-0.704,0.087-1.324,0.131-1.86,0.131c-0.712,0-1.244-0.099-1.596-0.297c-0.448-0.261-0.672-0.721-0.672-1.379
		c0-0.119-0.005-0.306-0.013-0.56c0-0.245,0-0.432,0-0.559C74.804,47.028,74.775,46.834,74.72,46.739z M71.72,41.447l0.061-1.059
		c1.584,0.055,3.04,0.27,4.368,0.643l-0.229,1.082C74.92,41.843,73.52,41.622,71.72,41.447z M78.44,30.637
		c-0.337-0.713-0.749-1.296-1.236-1.748l0.66-0.464c0.52,0.492,0.939,1.075,1.26,1.749L78.44,30.637z M78.044,30.768l-0.696,0.464
		c-0.336-0.721-0.739-1.304-1.212-1.748l0.648-0.464C77.296,29.512,77.716,30.094,78.044,30.768z M64.808,11.765
		c0.681,0.61,1.212,1.134,1.597,1.57l-1.032,0.702c-0.344-0.516-0.812-1.103-1.404-1.76L64.808,11.765z M62.984,11.337
		c0.04,1.284,0.096,2.382,0.168,3.294l3.852-0.404l0.145,1.07l-3.9,0.404c0.072,0.745,0.156,1.324,0.252,1.736
		c0.288,1.094,0.664,1.927,1.128,2.497c0.504,0.65,0.94,0.976,1.308,0.976c0.104,0,0.173-0.052,0.204-0.155
		c0.088-0.119,0.176-0.749,0.265-1.891l1.164,0.654c-0.168,1.118-0.364,1.855-0.588,2.212c-0.209,0.293-0.528,0.44-0.961,0.44
		c-0.64,0-1.336-0.424-2.088-1.272c-0.647-0.737-1.16-1.795-1.535-3.175c-0.129-0.476-0.236-1.109-0.324-1.902l-2.568,0.262
		l-0.132-1.07l2.592-0.262c-0.072-0.967-0.124-2.105-0.156-3.413H62.984z M57.776,14.107c0.376-0.626,0.735-1.534,1.08-2.723
		l0.983,0.428c-0.271,0.888-0.552,1.653-0.84,2.295v8.015h-1.08V16.01c-0.32,0.476-0.664,0.947-1.032,1.416l-0.384-1.296
		C56.992,15.471,57.416,14.797,57.776,14.107z M67.484,43.362v1.07H64.1v4.924h2.952v1.022h-7.067v-1.022h2.903v-4.924h-3.42v-1.07
		h3.42v-3.39H64.1v3.39H67.484z M59,42.66v8.003h-1.08v-6.255c-0.328,0.46-0.688,0.92-1.08,1.379l-0.372-1.308
		c0.521-0.65,0.977-1.316,1.368-1.998c0.4-0.619,0.788-1.514,1.164-2.688l0.984,0.416C59.664,41.17,59.336,41.986,59,42.66z
		 M59.42,55.361l-0.708,1.118c-0.624-0.515-1.264-0.919-1.92-1.213l0.612-0.927C58.132,54.624,58.804,54.965,59.42,55.361z
		 M57.068,57.312c0.768,0.34,1.472,0.745,2.111,1.213l-0.695,1.105c-0.656-0.586-1.328-1.05-2.017-1.392L57.068,57.312z
		 M59.648,60.938c-0.624,1.562-1.341,2.925-2.148,4.091l-0.9-1.023c0.664-0.888,1.353-2.145,2.064-3.77L59.648,60.938z
		 M58.712,70.345c-0.472-0.357-0.988-0.718-1.548-1.082l0.756-0.703c0.56,0.366,1.076,0.722,1.548,1.07
		c0.32-0.356,0.648-0.788,0.984-1.296l0.792,0.559c-0.312,0.508-0.636,0.956-0.972,1.344c0.487,0.388,0.936,0.773,1.344,1.154
		l-0.792,0.796c-0.368-0.397-0.796-0.793-1.284-1.188c-0.592,0.538-1.476,1.074-2.652,1.604l-0.468-1.022
		C57.38,71.208,58.144,70.796,58.712,70.345z M66.5,71.95h0.936v0.976H66.26c-0.416,0-0.72-0.087-0.912-0.261
		c-0.208-0.174-0.312-0.472-0.312-0.893v-2.141h-1.404c-0.032,0.84-0.12,1.452-0.264,1.831c-0.16,0.492-0.604,1.075-1.332,1.749
		l-0.792-0.654c0.624-0.595,1.02-1.062,1.188-1.403c0.112-0.324,0.168-1.157,0.168-2.498h3.517v2.927
		C66.116,71.828,66.244,71.95,66.5,71.95z M48.584,17.009h4.644v-1.249H48.68v-1.07h2.772v-1.213H48.92v-1.023h2.532v-1.118h1.032
		v1.118H55.1v1.023h-2.615v1.213h3v1.07h-1.177v1.249h1.261v1.022h-1.261v2.831c0,0.428-0.096,0.725-0.288,0.892
		c-0.168,0.183-0.479,0.274-0.936,0.274h-1.5l-0.228-1.166c0.592,0.064,1.075,0.095,1.451,0.095c0.28,0,0.42-0.091,0.42-0.273
		v-2.652h-4.644V17.009z M51.92,63.4l0.132,0.833c-0.744,0.301-1.6,0.551-2.567,0.749l-0.433-0.844
		c0.104-0.049,0.168-0.14,0.192-0.275v-0.939c-0.616,0.317-1.164,0.552-1.645,0.702l-0.468-0.832
		c0.696-0.207,1.432-0.512,2.208-0.917c0.456-0.237,0.84-0.476,1.152-0.712h-2.328v-0.881h3.132
		c-0.072-0.174-0.164-0.344-0.276-0.511l0.9-0.227c0.152,0.253,0.271,0.5,0.36,0.737h3.107v0.881h-3.792
		c-0.439,0.475-0.912,0.883-1.416,1.224V63.9C50.74,63.764,51.32,63.598,51.92,63.4z M48.896,45.538l0.983,0.488
		c-0.392,0.666-0.588,1.157-0.588,1.474c0,0.492,0.372,0.817,1.116,0.975c0.336,0.072,0.899,0.107,1.691,0.107
		c0.568,0,1.492-0.067,2.772-0.202l-0.084,1.177c-1,0.087-1.844,0.13-2.532,0.13c-1.112,0-1.956-0.091-2.532-0.273
		c-1.023-0.31-1.535-0.908-1.535-1.796C48.188,46.977,48.424,46.283,48.896,45.538z M48.524,43.195v-1.106
		c1.623-0.127,3.567-0.19,5.832-0.19v1.082C52.116,42.981,50.172,43.053,48.524,43.195z M54.968,56.574v2.878H48.5v-2.878h2.712
		v-0.749h-3v-0.88h3v-0.796h0.984v0.796h3.096v0.88h-3.096v0.749H54.968z M50.84,20.815c-0.4-0.555-0.948-1.189-1.644-1.903
		l0.888-0.559c0.776,0.666,1.388,1.241,1.836,1.724L50.84,20.815z M53.792,25.987v10.537h-1.176v-0.88h-4.968v0.844h-1.164V25.987
		H53.792z M47.048,50.2l-1.128,0.119c-0.048-1.237-0.072-2.462-0.072-3.675c0-2.338,0.108-4.317,0.324-5.935l1.104,0.119
		c-0.208,1.745-0.312,3.611-0.312,5.601C46.964,47.595,46.992,48.852,47.048,50.2z M44.792,12.133h3.564v8.919h-1.032v-0.879h-1.5
		v1.153h-1.032V12.133z M36.896,2.727l0.983,0.488c-0.392,0.666-0.588,1.158-0.588,1.475c0,0.492,0.372,0.817,1.116,0.975
		c0.336,0.071,0.899,0.107,1.691,0.107c0.568,0,1.492-0.067,2.772-0.202l-0.084,1.177c-1,0.087-1.844,0.131-2.532,0.131
		c-1.112,0-1.956-0.091-2.532-0.273c-1.023-0.309-1.535-0.908-1.535-1.795C36.188,4.166,36.424,3.472,36.896,2.727z M22.388,11.337
		h0.469h0.42c0.479,0.476,0.947,0.995,1.403,1.558v-0.202h1.548c-0.199-0.428-0.42-0.833-0.659-1.213l1.031-0.143
		c0.217,0.404,0.425,0.856,0.624,1.355h1.021c0.208-0.452,0.396-0.947,0.563-1.487l0.937,0.322c-0.16,0.428-0.336,0.816-0.528,1.165
		h2.076v0.976h-2.16v0.689h1.788v1.677h0.6v0.833h-0.6v1.819h-1.68c0.231,0.373,0.5,0.726,0.804,1.059
		c0.368,0.373,0.876,0.777,1.524,1.213l-0.696,0.88c-0.616-0.547-1.108-1.102-1.476-1.665c-0.097-0.143-0.185-0.282-0.265-0.417
		v2.462h-0.888v-3.532h-0.937v3.532H26.42v-2.355c-0.528,0.785-1.14,1.443-1.836,1.974l-0.48-0.713
		c-1.031,0.317-2.168,0.571-3.407,0.761l-0.145-1.023c0.568-0.04,1.148-0.119,1.74-0.238v-3.615h-1.548v-0.927h1.548v-1.023h-0.888
		v-0.642c-0.152,0.167-0.309,0.333-0.469,0.499l-0.516-1.022C21.188,13.204,21.844,12.352,22.388,11.337z M23.468,71.582v-0.976
		h1.584v-2.224h1.032v2.224h1.788v0.976h-1.788v7.717h-1.032v-7.717H23.468z M24.584,72.652c-0.032,1.911-0.22,3.722-0.564,5.434
		l-0.983-0.237c0.376-1.777,0.563-3.524,0.563-5.245L24.584,72.652z M26.552,72.604h0.984v3.484c0,0.215,0.128,0.321,0.384,0.321
		h0.468v0.928H27.68c-0.352,0-0.628-0.072-0.828-0.214c-0.199-0.143-0.3-0.381-0.3-0.714V72.604z M26.936,70.38
		c-0.199-0.546-0.42-1.029-0.659-1.45l0.936-0.275c0.248,0.405,0.468,0.837,0.66,1.297L26.936,70.38z M26.828,61.248
		c-0.592-0.936-1.416-1.8-2.472-2.593l0.768-0.618c0.984,0.689,1.824,1.538,2.52,2.544L26.828,61.248z M24.728,49.736l-0.84,0.833
		c-0.68-0.873-1.647-1.815-2.903-2.83l0.792-0.75c0.407,0.325,0.792,0.646,1.151,0.963c0.272-0.317,0.484-0.606,0.637-0.868
		c0.191-0.262,0.396-0.694,0.611-1.296h-3.288v-1.022h4.452v0.975c-0.296,0.801-0.588,1.435-0.876,1.902
		c-0.191,0.333-0.436,0.682-0.731,1.047C24.092,49.046,24.424,49.395,24.728,49.736z M22.34,42.814l0.792-0.463
		c0.456,0.61,0.816,1.134,1.08,1.57l-0.936,0.654C23.044,44.06,22.731,43.473,22.34,42.814z M24.776,43.231
		c-0.624-1.055-1.141-1.843-1.549-2.366c-0.647,1.11-1.428,2.192-2.34,3.246l-0.384-1.213c0.769-0.801,1.472-1.776,2.112-2.926
		h0.563h0.469c0.72,0.793,1.359,1.629,1.92,2.51L24.776,43.231z M20.888,31.696l-0.384-1.296c0.488-0.658,0.912-1.332,1.272-2.021
		c0.376-0.626,0.735-1.534,1.08-2.723l0.983,0.428c-0.271,0.888-0.552,1.653-0.84,2.295v8.015h-1.08v-6.112
		C21.6,30.756,21.256,31.228,20.888,31.696z M23.504,30.352l-0.132-1.07l2.592-0.262c-0.072-0.967-0.124-2.105-0.156-3.413h1.177
		c0.04,1.284,0.096,2.382,0.168,3.293l3.852-0.404l0.145,1.07l-3.9,0.404c0.072,0.745,0.156,1.325,0.252,1.736
		c0.288,1.094,0.664,1.927,1.128,2.498c0.504,0.65,0.94,0.975,1.308,0.975c0.104,0,0.173-0.052,0.204-0.155
		c0.088-0.119,0.176-0.749,0.265-1.891l1.164,0.654C31.4,34.906,31.204,35.644,30.98,36c-0.209,0.293-0.528,0.44-0.961,0.44
		c-0.64,0-1.336-0.424-2.088-1.272c-0.647-0.738-1.16-1.796-1.535-3.175c-0.129-0.476-0.236-1.11-0.324-1.903L23.504,30.352z
		 M27.968,26.546l0.84-0.511c0.681,0.61,1.212,1.133,1.597,1.569l-1.032,0.702C29.028,27.792,28.56,27.205,27.968,26.546z
		 M20.792,17.937l0.792-0.226c0.144,0.674,0.271,1.447,0.384,2.319l-0.899,0.226C20.996,19.455,20.904,18.682,20.792,17.937z
		 M22.76,68.466l0.744,0.654c-0.632,0.824-1.428,1.57-2.388,2.235l-0.696-0.938C21.292,69.892,22.072,69.243,22.76,68.466z
		 M19.1,26.725v1.023h-2.615v1.212h3v1.07h-1.177v1.249h1.261v1.022h-1.261v2.83c0,0.428-0.096,0.726-0.288,0.892
		c-0.168,0.182-0.479,0.274-0.936,0.274h-1.5l-0.228-1.166c0.592,0.064,1.075,0.095,1.451,0.095c0.28,0,0.42-0.091,0.42-0.273
		v-2.652h-4.644V31.28h4.644v-1.249H12.68v-1.07h2.772v-1.212H12.92v-1.023h2.532v-1.118h1.032v1.118H19.1z M17.288,43.813
		c-0.353-0.254-0.792-0.38-1.32-0.38c-0.144,0-0.312,0.008-0.504,0.023l0.444,1.38l-1.104,0.333L14.324,43.6
		c-0.608,0.111-1.272,0.254-1.992,0.428l1.44,6.195l-1.104,0.297l-1.44-6.219c-0.455,0.126-1.144,0.305-2.063,0.535l-0.36-1.082
		l2.172-0.535L10.448,40.9l1.092-0.273l0.54,2.331c0.728-0.167,1.364-0.301,1.908-0.405l-0.54-1.724l1.044-0.356l0.636,1.914
		c0.304-0.031,0.58-0.047,0.828-0.047c0.864,0,1.58,0.218,2.147,0.654c0.641,0.476,0.961,1.134,0.961,1.974
		c0,0.793-0.276,1.419-0.828,1.879c-0.521,0.437-1.185,0.654-1.992,0.654c-0.729,0-1.477-0.083-2.244-0.25l0.204-1.106
		c0.696,0.175,1.376,0.262,2.04,0.262c0.472,0,0.859-0.126,1.164-0.38c0.304-0.254,0.456-0.607,0.456-1.059
		C17.864,44.476,17.672,44.091,17.288,43.813z M13.196,33.183l0.888-0.559c0.776,0.666,1.388,1.241,1.836,1.724l-1.08,0.737
		C14.439,34.53,13.892,33.896,13.196,33.183z M13.124,15.226c0.984,0.69,1.824,1.538,2.52,2.544l-0.815,0.667
		c-0.592-0.936-1.416-1.8-2.472-2.593L13.124,15.226z M8.792,26.404h3.564v8.919h-1.032v-0.88h-1.5v1.154H8.792V26.404z
		 M8.42,56.241h2.712v-0.726c-0.656,0.024-1.36,0.037-2.112,0.037L8.744,54.66c2.008,0,3.712-0.091,5.112-0.274l0.468,0.833
		c-0.641,0.103-1.376,0.182-2.208,0.237v0.785h2.436v0.881h-2.436v0.606h2.352v3.674h-2.352v0.69h2.111v0.796h-2.111v0.917
		c0.768-0.064,1.472-0.14,2.111-0.227v0.393c0.721-1.063,1.232-2.197,1.536-3.402c0.217-0.777,0.353-1.863,0.408-3.258h-1.284
		v-0.976h1.309c0-0.182,0-0.368,0-0.559v-1.582h1.031v1.582c0,0.198,0,0.384,0,0.559h2.16c0,4.028-0.044,6.414-0.132,7.159
		c-0.072,0.579-0.2,0.959-0.384,1.142c-0.208,0.229-0.6,0.345-1.176,0.345c-0.257,0-0.553-0.016-0.889-0.048l-0.191-1.166
		c0.352,0.064,0.712,0.095,1.08,0.095c0.328,0,0.508-0.241,0.54-0.725c0.063-0.595,0.104-2.537,0.12-5.827h-1.164
		c-0.064,1.38-0.213,2.561-0.444,3.544c-0.304,1.332-0.893,2.691-1.764,4.078l-0.757-0.629v0.118
		c-1.063,0.182-2.924,0.353-5.579,0.511l-0.145-0.975c0.937-0.017,1.812-0.047,2.628-0.096v-0.975H9.02v-0.796h2.112v-0.69H8.936
		v-3.674h2.196v-0.606H8.42V56.241z M18.794,67.687v11.885H9.199V67.687H18.794z M19.616,90.215h-0.984v1.535h-4.08v0.702
		c0,0.373-0.096,0.63-0.288,0.773c-0.176,0.167-0.5,0.25-0.972,0.25h-1.356l-0.191-1.023c0.496,0.062,0.903,0.095,1.224,0.095
		c0.312,0,0.468-0.08,0.468-0.237V91.75H9.116V90.87h4.319v-0.654H8.324v-0.927h5.111v-0.606H9.116v-0.881h4.319v-0.559H9.452
		v-2.414h3.983v-0.511H8.792v-0.976h4.644v-0.689h1.116v0.689h4.645v0.976h-4.645v0.511h4.128v2.414h-4.128v0.559h4.08v1.487h0.984
		V90.215z M20.792,75.304l-0.372-1.261c0.416-0.38,0.788-0.769,1.116-1.165c0.328-0.365,0.644-0.888,0.948-1.57l0.936,0.416
		c-0.256,0.603-0.524,1.118-0.804,1.546v6.029h-1.032v-4.768C21.336,74.793,21.072,75.05,20.792,75.304z M30.332,92.677
		c-1.72,0.128-2.916,0.191-3.588,0.191c-1.328,0-2.328-0.119-3-0.357c-1.136-0.388-1.704-1.129-1.704-2.224
		c0-1.245,0.884-2.263,2.652-3.056c-0.192-1.608-0.288-2.913-0.288-3.912l1.151-0.036c0,1.078,0.08,2.247,0.24,3.508
		c0.776-0.269,2.148-0.662,4.116-1.177l0.348,1.105c-1.008,0.269-2.016,0.535-3.023,0.797c-1.217,0.349-2.177,0.733-2.88,1.154
		c-0.801,0.466-1.2,1.006-1.2,1.616c0,0.65,0.468,1.082,1.403,1.297c0.473,0.11,1.204,0.167,2.196,0.167
		c0.64,0,1.86-0.091,3.66-0.274L30.332,92.677z M31.484,73.39h-1.08v4.649c0,0.428-0.097,0.726-0.288,0.892
		c-0.168,0.182-0.48,0.273-0.937,0.273h-1.031l-0.229-1.165c0.392,0.064,0.72,0.095,0.984,0.095c0.279,0,0.42-0.095,0.42-0.285
		V73.39h-1.272v-1.059h3.433V73.39z M28.196,70.142v-1.069h3.048v1.069H28.196z M31.004,50.758c-0.647-0.61-1.316-1.094-2.004-1.451
		l0.384-0.594h-1.896l0.479,0.416c-0.552,0.595-1.24,1.138-2.063,1.629l-0.66-0.892c0.672-0.325,1.268-0.709,1.788-1.153h-1.32
		v-6.648h1.764c0.12-0.301,0.221-0.61,0.301-0.927h-2.389V40.21h5.904v0.928h-2.424c-0.072,0.325-0.168,0.634-0.288,0.927h2.472
		v6.648h-1.176c0.632,0.325,1.212,0.694,1.74,1.105L31.004,50.758z M34.52,63.768v0.976H33.5v-4.554
		c-0.16,0.301-0.332,0.598-0.516,0.892l-0.612-1.024c0.464-0.8,0.824-1.585,1.08-2.354c0.2-0.548,0.38-1.221,0.54-2.022h-1.248
		v-1.058h4.224v1.058h-1.932c-0.176,0.912-0.356,1.633-0.54,2.165c-0.032,0.104-0.064,0.202-0.096,0.297h2.136v5.625H34.52z
		 M33.584,46.251v-1.023h3.804v-2.378h-4.403v-1.059h4.487c-0.288-0.428-0.644-0.896-1.067-1.403l0.936-0.594
		c0.601,0.57,1.068,1.066,1.404,1.486l-0.78,0.511h4.956v1.059h-4.271v2.378h3.708v1.023h-3.708v2.973h4.691v1.058H32.6v-1.058
		h4.788v-2.973H33.584z M36.308,21.742v0.38h-1.08v-3.116h6.937v3.211h-1.08v-0.476H36.308z M38.396,26.999
		c1.271,0,2.335,0.353,3.191,1.058c0.912,0.761,1.368,1.768,1.368,3.021c0,2.568-1.46,4.15-4.38,4.745
		c-0.08-0.238-0.244-0.614-0.492-1.13c2.456-0.309,3.684-1.514,3.684-3.615c0-0.872-0.296-1.594-0.888-2.165
		c-0.584-0.571-1.316-0.868-2.196-0.892c-0.184,1.886-0.483,3.516-0.899,4.887c-0.504,1.641-1.152,2.462-1.944,2.462
		c-0.752,0-1.388-0.42-1.908-1.261c-0.464-0.729-0.695-1.494-0.695-2.295c0-1.412,0.508-2.573,1.523-3.484
		C35.736,27.442,36.948,26.999,38.396,26.999z M41.288,91.644c-0.72,0.816-1.769,1.224-3.145,1.224c-2.136,0-3.203-0.963-3.203-2.89
		c0-0.77,0.067-3.017,0.203-6.743h1.177l-0.288,6.743c-0.024,0.603,0.172,1.062,0.588,1.379c0.376,0.294,0.884,0.44,1.523,0.44
		c1.049,0,1.853-0.357,2.412-1.07c0.433-0.555,0.784-1.436,1.057-2.64l1.056,0.357C42.315,89.927,41.855,90.994,41.288,91.644z
		 M36.356,72.925l0.768-0.618c0.984,0.69,1.824,1.538,2.52,2.544l-0.815,0.667C38.236,74.582,37.412,73.719,36.356,72.925z
		 M41,56.29v2.235h1.824v0.737c-0.353,1.291-0.756,2.282-1.212,2.973c-0.072,0.118-0.152,0.237-0.24,0.356
		c0.56,0.547,1.231,1.018,2.016,1.415l-0.611,1.023c-0.864-0.516-1.572-1.058-2.124-1.629c-0.593,0.546-1.368,1.09-2.328,1.629
		l-0.468-1.07c0.896-0.429,1.604-0.884,2.124-1.368c-0.032-0.04-0.061-0.079-0.084-0.119c-0.616-0.84-1.053-1.863-1.309-3.069H38.36
		c-0.024,0.77-0.084,1.562-0.181,2.378c-0.16,1.111-0.424,2.205-0.792,3.283L36.5,64.28c0.328-0.888,0.556-1.815,0.684-2.782
		c0.104-1.008,0.156-1.939,0.156-2.795v-3.389h0.517h2.063v-1.202H41v1.202h2.52c-0.128,0.942-0.344,1.875-0.647,2.795l-1.08-0.287
		c0.2-0.42,0.368-0.931,0.504-1.533H41z M42.824,14.821c-0.296-0.079-0.576-0.171-0.84-0.274v3.758h-6.948
		c-0.057,0.35-0.128,0.698-0.216,1.047c-0.288,0.983-0.776,1.951-1.464,2.902l-0.984-0.833c0.672-0.761,1.132-1.558,1.38-2.39
		c0.2-0.864,0.3-1.661,0.3-2.391v-2.2c-0.328,0.127-0.672,0.254-1.032,0.381l-0.6-1.106c1.304-0.373,2.308-0.749,3.012-1.13
		c0.561-0.301,1.164-0.717,1.812-1.249H38h0.744c0.68,0.587,1.388,1.058,2.124,1.415c0.528,0.27,1.412,0.591,2.651,0.963
		L42.824,14.821z M44.6,57.501v-0.927h1.225v-2.33h0.936v2.33h1.225v0.927H46.76v3.842c0.416-0.144,0.792-0.294,1.128-0.453
		l0.132,0.928c-0.983,0.467-2.075,0.856-3.275,1.166l-0.192-1.024c0.456-0.103,0.88-0.209,1.272-0.32v-4.139H44.6z M44.696,69.167
		h3.323v8.777H47v-0.786h-1.272v1.07h-1.031V69.167z M54.776,85.186c-1.177,0-2.068,0.04-2.677,0.119
		c-0.688,0.087-1.355,0.605-2.004,1.558c-0.624,0.919-0.936,1.755-0.936,2.508c0,0.991,0.504,1.677,1.512,2.058
		c0.664,0.246,1.652,0.369,2.964,0.369l-0.252,1.178c-3.592-0.087-5.388-1.285-5.388-3.592c0-0.712,0.196-1.442,0.588-2.188
		c0.352-0.673,0.816-1.277,1.392-1.808c-1.479,0.087-3.084,0.201-4.812,0.345l-0.12-1.118l9.768-0.559L54.776,85.186z M54.92,79.252
		h-1.08v-0.512H50v0.512h-1.08V73.58h6V79.252z M55.436,72.878h-7.128v-0.975h1.812l-0.528-1.57h-1.14v-0.928h2.832
		c-0.16-0.333-0.34-0.646-0.54-0.94l1.176-0.131c0.176,0.317,0.348,0.675,0.516,1.071h2.809v0.928h-0.972
		c-0.12,0.538-0.288,1.062-0.505,1.57h1.668V72.878z M54.92,64.934c-0.84-0.292-1.552-0.708-2.136-1.249
		c-0.648-0.634-1.064-1.287-1.248-1.962l0.804-0.179c0.12,0.374,0.349,0.729,0.685,1.07c0.424-0.341,0.771-0.697,1.044-1.07
		l0.899,0.512c-0.424,0.46-0.844,0.845-1.26,1.154c0.48,0.349,1.132,0.642,1.956,0.879L54.92,64.934z M57.068,78.086l-0.696-0.928
		c0.464-0.625,0.884-1.398,1.26-2.319l0.756,0.643C58.036,76.442,57.596,77.309,57.068,78.086z M57.584,78.182
		c0.304,0.063,0.556,0.095,0.756,0.095c0.248,0,0.372-0.079,0.372-0.238v-3.675h-2.208V73.39h2.208V71.82h0.984v1.569h1.788v0.975
		h-1.788v3.818c0,0.372-0.08,0.629-0.24,0.772c-0.152,0.167-0.432,0.25-0.84,0.25h-0.84L57.584,78.182z M61.712,77.254l-0.936,0.642
		c-0.217-0.746-0.513-1.593-0.889-2.544l0.792-0.475C61.12,75.796,61.464,76.588,61.712,77.254z M60.932,91.465
		c-0.439,0.856-0.899,1.284-1.38,1.284c-1.088,0-1.632-1.63-1.632-4.887c0-1.609,0.068-2.965,0.204-4.067l1.092,0.262
		c-0.136,1.22-0.204,2.489-0.204,3.805c0,0.999,0.048,1.835,0.145,2.508c0.111,0.794,0.271,1.19,0.479,1.19
		c0.152,0,0.356-0.362,0.612-1.083c0.184-0.523,0.32-0.991,0.408-1.403l1.02,0.44C61.468,90.26,61.22,90.91,60.932,91.465z
		 M66.464,101.395c-0.96-0.793-2.04-1.467-3.24-2.022l0.553-0.939c1.039,0.468,2.144,1.137,3.312,2.009L66.464,101.395z
		 M64.088,84.163l1.068-0.297c0.408,1.063,0.728,2.446,0.96,4.151c0.176,1.252,0.264,2.557,0.264,3.912l-1.14,0.049
		c0-1.388-0.076-2.665-0.229-3.831C64.788,86.538,64.479,85.21,64.088,84.163z M66.92,79.336c-1-0.389-1.8-0.801-2.4-1.237
		c-0.672,0.475-1.56,0.886-2.663,1.237l-0.612-0.928c1.008-0.293,1.828-0.638,2.46-1.035c-0.544-0.627-0.972-1.459-1.284-2.497
		l0.888-0.275c0.32,0.968,0.729,1.682,1.225,2.141c0.063-0.054,0.12-0.11,0.168-0.167c0.536-0.602,0.932-1.339,1.188-2.211h-4.031
		V73.39h5.147v0.796c-0.312,1.245-0.856,2.303-1.632,3.176c0.536,0.317,1.24,0.638,2.112,0.963L66.92,79.336z M67.52,58.525h-3.468
		v1.712h2.82v4.792h-1.128V64.28h-4.5v0.749h-1.128v-4.792h2.771v-1.712H59.42v-1.024h3.468v-1.616
		c-0.824,0.055-1.7,0.083-2.628,0.083l-0.275-0.928c2.615,0,4.831-0.25,6.647-0.749l0.517,0.879
		c-0.881,0.27-1.912,0.473-3.097,0.607v1.724h3.468V58.525z M66.824,34.526c-1.152-0.991-2.08-1.99-2.784-2.997
		c-0.584-0.801-1.084-1.752-1.5-2.854h-0.036v4.698h2.724v1.118h-2.724v2.081h-1.212V34.49h-2.58v-1.118h2.58v-4.698h-0.048
		c-0.36,1.031-0.725,1.848-1.092,2.45c-0.624,1.149-1.652,2.363-3.084,3.639l-0.648-1.118c1.04-0.904,1.848-1.788,2.424-2.652
		c0.456-0.626,0.868-1.399,1.236-2.319h-3.336v-1.153h4.548v-1.915h1.212v1.915h4.692v1.153H63.62
		c0.408,0.856,0.899,1.654,1.476,2.391c0.601,0.753,1.44,1.57,2.521,2.45L66.824,34.526z M69.428,71.771v-1.093
		c0.769,0,1.44-0.008,2.017-0.024c0.176-0.618,0.327-1.224,0.456-1.819l1.104,0.286c-0.104,0.444-0.232,0.935-0.384,1.475
		c0.768-0.048,1.46-0.099,2.076-0.155l0.036,1.07c-0.585,0.064-1.393,0.118-2.425,0.167c-0.704,2.315-1.447,4.198-2.231,5.648
		l-0.984-0.534c0.704-1.276,1.38-2.961,2.028-5.054C70.552,71.76,69.988,71.771,69.428,71.771z M70.388,93.022l-1.115-0.356
		c0.624-1.705,1.22-3.896,1.787-6.576c-0.584,0.024-1.18,0.043-1.787,0.059c-0.024-0.23-0.064-0.594-0.12-1.094
		c0.735-0.008,1.447-0.032,2.136-0.071c0.136-0.674,0.235-1.301,0.3-1.879l1.164,0.19c-0.112,0.65-0.212,1.197-0.3,1.642
		c0.864-0.063,1.647-0.139,2.352-0.226v1.082c-0.504,0.087-1.368,0.166-2.592,0.238C71.572,88.956,70.964,91.286,70.388,93.022z
		 M76.772,86.447c0.52,0,1.104,0.02,1.752,0.059v1.082c-0.633-0.055-1.253-0.083-1.86-0.083c-0.456,0-1.008,0.036-1.656,0.107
		c-0.576,0.064-1.151,0.126-1.728,0.189l-0.048-1.082C74.768,86.538,75.948,86.447,76.772,86.447z M78.74,92.785
		c-1.448,0.095-2.364,0.143-2.748,0.143c-2.265,0-3.396-0.658-3.396-1.974c0-0.57,0.301-1.208,0.9-1.915l0.852,0.594
		c-0.136,0.183-0.271,0.362-0.407,0.536c-0.152,0.238-0.229,0.443-0.229,0.618c0,0.46,0.292,0.765,0.876,0.916
		c0.312,0.079,0.792,0.12,1.44,0.12c0.912,0,1.827-0.075,2.748-0.226L78.74,92.785z M78.656,78.289
		c-0.681-0.404-1.332-0.737-1.956-0.999c-0.112,0.626-0.4,1.062-0.864,1.308c-0.368,0.19-0.904,0.285-1.608,0.285
		c-0.647,0-1.199-0.114-1.655-0.344c-0.608-0.293-0.912-0.746-0.912-1.356c0-0.562,0.22-0.991,0.66-1.284
		c0.376-0.254,0.852-0.38,1.428-0.38c0.607,0,1.236,0.079,1.884,0.237c-0.023-0.84-0.084-1.902-0.18-3.186l1.128-0.072
		c0.056,0.84,0.112,2.037,0.168,3.59c0.872,0.302,1.696,0.699,2.472,1.19L78.656,78.289z M75.224,70.833l0.553-0.941
		c1.039,0.469,2.144,1.138,3.312,2.011l-0.624,0.95C77.504,72.062,76.424,71.388,75.224,70.833z M79.256,63.495
		c-0.072,0.579-0.2,0.959-0.384,1.142c-0.208,0.229-0.6,0.345-1.176,0.345c-0.257,0-0.553-0.016-0.889-0.048l-0.191-1.166
		c0.352,0.064,0.712,0.095,1.08,0.095c0.328,0,0.508-0.241,0.54-0.725c0.063-0.595,0.104-2.537,0.12-5.827h-1.164
		c-0.064,1.38-0.213,2.561-0.444,3.544c-0.304,1.332-0.893,2.691-1.764,4.078l-0.757-0.629v0.118
		c-1.063,0.182-2.924,0.353-5.579,0.511l-0.145-0.975c0.937-0.017,1.812-0.047,2.628-0.096v-0.975H69.02v-0.796h2.112v-0.69h-2.196
		v-3.674h2.196v-0.606H68.42v-0.881h2.712v-0.726c-0.656,0.024-1.36,0.037-2.112,0.037l-0.275-0.892
		c2.008,0,3.712-0.091,5.112-0.274l0.468,0.833c-0.641,0.103-1.376,0.182-2.208,0.237v0.785h2.436v0.881h-2.436v0.606h2.352v3.674
		h-2.352v0.69h2.111v0.796h-2.111v0.917c0.768-0.064,1.472-0.14,2.111-0.227v0.393c0.721-1.063,1.232-2.197,1.536-3.402
		c0.217-0.777,0.353-1.863,0.408-3.258h-1.284v-0.976h1.309c0-0.182,0-0.368,0-0.559v-1.582h1.031v1.582c0,0.198,0,0.384,0,0.559
		h2.16C79.388,60.364,79.344,62.75,79.256,63.495z M78.392,18.389c-0.592-1.942-1.38-3.643-2.363-5.102l0.924-0.619
		c0.983,1.499,1.819,3.247,2.508,5.245L78.392,18.389z M80.42,41.186h1.572c-0.104-0.428-0.225-0.833-0.36-1.213l1.128-0.13
		c0.12,0.396,0.229,0.844,0.324,1.344h1.548v0.975H80.42V41.186z M84.356,30.114l0.768-0.619c0.984,0.69,1.824,1.539,2.52,2.545
		l-0.815,0.666C86.236,31.771,85.412,30.907,84.356,30.114z M80.84,43.873v-0.928h3.372v0.928H80.84z M84.212,44.67v0.928H80.84
		V44.67H84.212z M81.872,50.711h-1.08V46.43h3.468v3.437h-2.388V50.711z M90.332,92.677c-1.72,0.128-2.916,0.191-3.588,0.191
		c-1.328,0-2.328-0.119-3-0.357c-1.136-0.388-1.704-1.129-1.704-2.224c0-1.245,0.884-2.263,2.652-3.056
		c-0.192-1.608-0.288-2.913-0.288-3.912l1.151-0.036c0,1.078,0.08,2.247,0.24,3.508c0.776-0.269,2.148-0.662,4.116-1.177
		l0.348,1.105c-1.008,0.269-2.016,0.535-3.023,0.797c-1.217,0.349-2.177,0.733-2.88,1.154c-0.801,0.466-1.2,1.006-1.2,1.616
		c0,0.65,0.468,1.082,1.403,1.297c0.473,0.11,1.204,0.167,2.196,0.167c0.64,0,1.86-0.091,3.66-0.274L90.332,92.677z M90.332,78.408
		c-1.72,0.127-2.916,0.19-3.588,0.19c-1.328,0-2.328-0.12-3-0.357c-1.136-0.388-1.704-1.129-1.704-2.224
		c0-1.244,0.884-2.263,2.652-3.056c-0.192-1.609-0.288-2.914-0.288-3.913l1.151-0.035c0,1.078,0.08,2.247,0.24,3.507
		c0.776-0.269,2.148-0.662,4.116-1.177l0.348,1.105c-1.008,0.27-2.016,0.536-3.023,0.797c-1.217,0.349-2.177,0.733-2.88,1.154
		c-0.801,0.467-1.2,1.006-1.2,1.617c0,0.65,0.468,1.082,1.403,1.296c0.473,0.111,1.204,0.167,2.196,0.167
		c0.64,0,1.86-0.091,3.66-0.273L90.332,78.408z M84.356,58.655l0.768-0.618c0.984,0.689,1.824,1.538,2.52,2.544l-0.815,0.667
		C86.236,60.312,85.412,59.448,84.356,58.655z M88.16,69.31l0.636-0.511c0.536,0.452,0.992,1.006,1.368,1.665l-0.66,0.512
		C89.112,70.285,88.664,69.73,88.16,69.31z M90.536,70.309c-0.384-0.689-0.832-1.245-1.344-1.665l0.636-0.511
		c0.536,0.452,0.992,1.006,1.368,1.665L90.536,70.309z M91.484,41.09v0.88h-1.177v1.725h-2.855V41.97h-1.08v2.331h4.68v0.88H88.52
		v0.88h2.868v0.928h-1.991c0.207,0.341,0.451,0.662,0.731,0.963c0.344,0.365,0.824,0.757,1.44,1.177l-0.744,0.975
		c-0.648-0.547-1.172-1.102-1.572-1.665c-0.28-0.381-0.524-0.821-0.732-1.32v3.639h-0.983V47.25
		c-0.216,0.492-0.44,0.892-0.672,1.201c-0.36,0.516-0.965,1.067-1.812,1.653l-0.695-0.833c0.712-0.42,1.239-0.828,1.584-1.225
		c0.264-0.286,0.487-0.638,0.672-1.059H84.68v-0.928h2.856v-0.88H85.34V41.97h-0.563v-0.88h0.563v-1.166h1.032v1.166h1.08v-1.249
		h0.936v1.249h0.984v-1.249h0.936v1.249H91.484z M89.984,18.876c0,1.039-0.545,1.78-1.633,2.224c-0.752,0.31-1.72,0.464-2.903,0.464
		c-0.801,0-1.532-0.032-2.196-0.095l-0.24-1.202c0.776,0.135,1.601,0.202,2.473,0.202c2.248,0,3.372-0.547,3.372-1.641
		c0-0.967-0.717-1.451-2.148-1.451c-0.6,0-1.256,0.143-1.968,0.428c-0.801,0.325-1.344,0.717-1.632,1.177l-0.925-0.393
		c0.32-0.959,0.612-2.505,0.876-4.638l1.068,0.131c-0.12,1.022-0.284,2.069-0.492,3.14c1.032-0.555,2.092-0.833,3.181-0.833
		c0.871,0,1.592,0.187,2.159,0.559C89.648,17.386,89.984,18.028,89.984,18.876z M87.68,14.238c-0.576-0.245-1.296-0.483-2.16-0.713
		c-0.928-0.253-1.668-0.4-2.22-0.439l0.229-1.035c0.592,0.056,1.355,0.202,2.292,0.44c0.976,0.246,1.72,0.483,2.231,0.713
		L87.68,14.238z"/>
	<rect x="94.952" y="100.408" fill="none" width="0.048" height="0.642"/>
	<path fill="none" d="M94.952,99.61H95v-0.633c-0.018,0.031-0.035,0.061-0.048,0.086V99.61z"/>
	<polygon fill="none" points="94.7,45.407 95,45.407 95,43.79 94.304,43.79 	"/>
	<polygon fill="none" points="18.194,78.49 18.194,68.768 14.381,73.63 	"/>
	<rect x="94.952" y="101.846" fill="none" width="0.048" height="0.154"/>
	<rect x="9.824" y="27.427" fill="none" width="1.5" height="2.509"/>
	<rect x="9.824" y="30.958" fill="none" width="1.5" height="2.461"/>
	<rect x="81.872" y="47.405" fill="none" width="1.308" height="1.486"/>
	<polygon fill="none" points="10.183,78.978 17.811,78.978 13.997,74.117 	"/>
	<rect x="88.388" y="41.97" fill="none" width="0.984" height="0.928"/>
	<polygon fill="none" points="17.811,68.281 10.183,68.281 13.997,73.142 	"/>
	<rect x="53.036" y="57.455" fill="none" width="0.983" height="1.117"/>
	<rect x="69.968" y="58.477" fill="none" width="1.164" height="0.786"/>
	<rect x="49.436" y="57.455" fill="none" width="0.889" height="1.117"/>
	<polygon fill="none" points="36.872,98.445 36.872,102 37.616,102 37.616,101.978 38.744,101.978 38.744,100.776 37.196,100.776 
		37.196,99.849 38.744,99.849 38.744,98.826 39.776,98.826 39.776,99.849 41.42,99.849 41.42,100.776 39.776,100.776 
		39.776,101.978 40.952,101.978 40.952,102 41.792,102 41.792,98.445 	"/>
	<path fill="#14B259" d="M3.824,7.662c0.527,0,0.892-0.107,1.092-0.321c0.231-0.198,0.4-0.879,0.504-2.045L4.34,4.975
		C4.3,5.895,4.224,6.41,4.112,6.521C4.023,6.632,3.88,6.688,3.68,6.688H0.536c-0.28,0-0.42-0.123-0.42-0.369V3.25H0v4.395
		c0.041,0.002,0.073,0.017,0.116,0.017H3.824z"/>
	<path fill="#14B259" d="M0.632,2.881c0.64,0.706,1.22,1.511,1.74,2.414l1.08-0.463c-0.488-0.809-1.068-1.57-1.74-2.283L0.632,2.881
		z"/>
	<path fill="#14B259" d="M7.484,6.414C7.012,5.256,6.464,4.17,5.84,3.155L4.76,3.488C5.36,4.472,5.908,5.601,6.404,6.877
		L7.484,6.414z"/>
	<path fill="#14B259" d="M5.036,1.3c-0.137,0.15-0.4,0.226-0.792,0.226c-0.104,0-0.464-0.028-1.08-0.083l0.192,1.154
		C3.636,2.628,3.98,2.644,4.388,2.644C5.012,2.62,5.436,2.525,5.66,2.358c0.288-0.134,0.496-0.36,0.624-0.678
		C6.386,1.552,6.479,0.986,6.565,0H5.418C5.316,0.782,5.189,1.221,5.036,1.3z"/>
	<path fill="#14B259" d="M2.248,0H0.919C0.755,0.217,0.577,0.416,0.368,0.575C0.258,0.665,0.123,0.741,0,0.824V2.11
		c0.64-0.337,1.179-0.726,1.592-1.179C1.844,0.657,2.06,0.343,2.248,0z"/>
	<path fill="#14B259" d="M8.6,0.551v1.022h5.221c-1.4,0.753-3.173,1.435-5.316,2.045l0.48,1.07c0.567-0.19,1.111-0.38,1.632-0.571
		v3.83h1.176V7.389h5.34v0.559h1.128V2.513h-3.996c0.4-0.214,0.765-0.428,1.093-0.642c0.136-0.095,0.275-0.194,0.42-0.297h3.743
		V0.551h-2.447C17.273,0.38,17.465,0.184,17.661,0h-1.523c-0.233,0.194-0.466,0.38-0.697,0.551H14.18V0h-1.128v0.551H8.6z
		 M17.132,6.461h-5.34V5.344h5.34V6.461z M17.132,3.441v0.975h-5.34V3.655c0.176-0.072,0.348-0.143,0.516-0.214H17.132z"/>
	<path fill="#14B259" d="M26.9,6.104c0.415,0.785,0.936,1.487,1.56,2.105l0.672-0.785c-0.536-0.54-0.983-1.15-1.344-1.832
		c-0.504-0.983-0.756-2.01-0.756-3.08c0-0.867,0.174-1.704,0.505-2.513h-1.098C26.153,0.812,26,1.648,26,2.513
		C26,3.766,26.3,4.963,26.9,6.104z"/>
	<path fill="#14B259" d="M37.724,6.604c0.576,0.183,1.42,0.273,2.532,0.273c0.688,0,1.532-0.043,2.532-0.131l0.084-1.177
		c-1.28,0.135-2.204,0.202-2.772,0.202c-0.792,0-1.355-0.036-1.691-0.107c-0.744-0.158-1.116-0.483-1.116-0.975
		c0-0.317,0.196-0.809,0.588-1.475l-0.983-0.488c-0.473,0.745-0.708,1.439-0.708,2.082C36.188,5.696,36.7,6.295,37.724,6.604z"/>
	<path fill="#14B259" d="M33.92,7.508l1.128-0.119c-0.056-1.348-0.084-2.604-0.084-3.77c0-1.262,0.058-2.456,0.142-3.619h-1.134
		c-0.079,1.151-0.124,2.418-0.124,3.833C33.848,5.046,33.872,6.271,33.92,7.508z"/>
	<path fill="#14B259" d="M42.356,0.17V0h-5.832v0.385C38.172,0.242,40.116,0.17,42.356,0.17z"/>
	<path fill="#14B259" d="M45.368,6.984l1.08,0.356C46.696,6.548,46.88,5.966,47,5.593C47.208,4.959,47.42,4.428,47.636,4
		c0.185-0.365,0.437-0.698,0.756-1c0.376-0.349,0.732-0.523,1.068-0.523c0.488,0,0.732,0.301,0.732,0.904
		c0,0.206-0.028,0.523-0.084,0.951c-0.057,0.428-0.084,0.749-0.084,0.963c0,1.356,0.592,2.034,1.775,2.034
		c1.072,0,1.844-0.551,2.316-1.653c0.279-0.642,0.492-1.665,0.636-3.068l-1.104-0.321c-0.185,2.648-0.765,3.972-1.74,3.972
		c-0.528,0-0.792-0.337-0.792-1.011c0-0.214,0.027-0.539,0.084-0.975c0.056-0.428,0.084-0.745,0.084-0.951
		c0-1.292-0.576-1.938-1.729-1.938c-0.344,0-0.775,0.19-1.296,0.571C48.532,1.222,48.787,0.581,49.028,0h-1.184
		c-0.25,0.638-0.516,1.333-0.809,2.132C46.38,3.917,45.824,5.534,45.368,6.984z"/>
	<path fill="#14B259" d="M64.77,0h-0.054c0.006,0.01,0.014,0.018,0.021,0.027L64.77,0z"/>
	<path fill="#14B259" d="M62.144,7.246c1.376,0,2.425-0.408,3.145-1.225c0.567-0.65,1.027-1.716,1.38-3.199l-1.056-0.357
		c-0.272,1.206-0.624,2.085-1.057,2.64c-0.56,0.714-1.363,1.07-2.412,1.07c-0.64,0-1.147-0.146-1.523-0.44
		c-0.416-0.317-0.612-0.777-0.588-1.379L60.219,0h-1.16C58.98,2.312,58.94,3.769,58.94,4.356C58.94,6.283,60.008,7.246,62.144,7.246
		z"/>
	<path fill="#14B259" d="M69.704,2.216l0.348,1.035l1.656-0.523l1.26,4.828l1.044-0.309l-1.284-4.84
		c0.488-0.142,0.925-0.253,1.309-0.333l0.396,1.237l1.021-0.333l-0.36-1.082c0.16-0.016,0.308-0.024,0.444-0.024
		c0.408,0,0.744,0.103,1.008,0.309c0.256,0.207,0.384,0.5,0.384,0.88c0,0.317-0.128,0.563-0.384,0.737
		C76.296,3.98,76,4.071,75.656,4.071c-0.544,0-1.053-0.071-1.524-0.214l-0.216,1.022c0.656,0.167,1.252,0.25,1.788,0.25
		c0.656,0,1.2-0.178,1.632-0.535c0.464-0.38,0.696-0.892,0.696-1.534c0-0.689-0.248-1.241-0.744-1.653
		c-0.464-0.38-1.048-0.571-1.752-0.571c-0.216,0-0.473,0.021-0.769,0.06L74.482,0h-1.11l0.352,1.086
		c-0.448,0.095-0.868,0.198-1.26,0.309L72.088,0h-1.112l0.444,1.693C70.684,1.915,70.112,2.089,69.704,2.216z"/>
	<path fill="#14B259" d="M84.212,5.593c-0.36,0.682-0.808,1.292-1.344,1.832l0.672,0.785c0.624-0.618,1.144-1.32,1.56-2.105
		C85.7,4.963,86,3.766,86,2.513C86,1.648,85.847,0.812,85.561,0h-1.098c0.331,0.81,0.505,1.646,0.505,2.513
		C84.968,3.583,84.716,4.61,84.212,5.593z"/>
	<path fill="#14B259" d="M95,6.532v-3.86c-0.636,0.584-0.96,1.248-0.96,1.994C94.04,5.487,94.36,6.109,95,6.532z"/>
	<path fill="#14B259" d="M5.312,14.964c0.776-0.048,1.396-0.096,1.86-0.143c0-0.341-0.016-0.717-0.048-1.13
		c-0.584,0.063-1.2,0.115-1.848,0.154c-0.04-0.975-0.064-1.625-0.072-1.95H4.052l0.084,1.998c-0.992,0.048-1.844,0.071-2.556,0.071
		c-0.225,0-0.684-0.012-1.38-0.036l0.048,1.13c1.384-0.016,2.412-0.024,3.084-0.024c0.192,0,0.472-0.008,0.84-0.023
		c0.064,1.688,0.104,2.85,0.12,3.484c-0.672-0.206-1.332-0.309-1.98-0.309c-0.575,0-1.067,0.118-1.476,0.356
		c-0.496,0.301-0.744,0.729-0.744,1.284c0,0.587,0.284,1.043,0.853,1.368c0.464,0.262,1.004,0.392,1.62,0.392
		c0.695,0,1.239-0.083,1.632-0.25c0.527-0.222,0.884-0.614,1.067-1.177c0.521,0.278,1.061,0.626,1.62,1.046l0.624-0.999
		c-0.647-0.508-1.348-0.932-2.1-1.272L5.312,14.964z M3.584,20.351c-0.224,0.088-0.564,0.131-1.02,0.131
		c-0.889,0-1.332-0.218-1.332-0.654c0-0.38,0.344-0.571,1.031-0.571c0.576,0,1.225,0.139,1.944,0.417
		C4.112,19.999,3.904,20.225,3.584,20.351z"/>
	<path fill="#14B259" d="M14.828,18.437l0.815-0.667c-0.695-1.006-1.535-1.854-2.52-2.544l-0.768,0.618
		C13.412,16.637,14.236,17.501,14.828,18.437z"/>
	<path fill="#14B259" d="M21.404,14.417v0.642h0.888v1.023h-1.548v0.927h1.548v3.615c-0.592,0.119-1.172,0.198-1.74,0.238
		l0.145,1.023c1.239-0.19,2.376-0.444,3.407-0.761l0.48,0.713c0.696-0.531,1.308-1.189,1.836-1.974v2.355h0.888v-3.532h0.937v3.532
		h0.888v-2.462c0.08,0.135,0.168,0.273,0.265,0.417c0.367,0.562,0.859,1.118,1.476,1.665l0.696-0.88
		c-0.648-0.436-1.156-0.84-1.524-1.213c-0.304-0.333-0.572-0.686-0.804-1.059h1.68v-1.819h0.6v-0.833h-0.6v-1.677h-1.788v-0.689
		h2.16v-0.976h-2.076c0.192-0.349,0.368-0.737,0.528-1.165l-0.937-0.322c-0.168,0.54-0.355,1.035-0.563,1.487h-1.021
		c-0.199-0.5-0.407-0.951-0.624-1.355l-1.031,0.143c0.239,0.38,0.46,0.785,0.659,1.213H24.68v0.202
		c-0.456-0.562-0.924-1.082-1.403-1.558h-0.42h-0.469c-0.544,1.015-1.199,1.867-1.968,2.557l0.516,1.022
		C21.096,14.75,21.252,14.583,21.404,14.417z M29.132,15.202h0.937v0.833h-0.937V15.202z M29.132,16.867h0.937v0.975h-0.937V16.867z
		 M27.308,13.668h0.937v0.689h-0.937V13.668z M27.308,15.202h0.937v0.833h-0.937V15.202z M27.308,16.867h0.937v0.975h-0.937V16.867z
		 M22.952,12.359c0.472,0.492,0.924,1.066,1.355,1.725l0.372-0.856v0.44h1.74v0.689h-1.368v0.844h1.368v0.833h-1.644v0.833h1.644
		v0.975h-1.368v0.844h1.236c-0.48,0.777-1.124,1.471-1.932,2.082v-0.69c-0.377,0.119-0.753,0.23-1.129,0.333v-3.401h1.129v-0.927
		h-1.129v-1.023h0.984v-0.928h-2.556C22.16,13.553,22.592,12.962,22.952,12.359z"/>
	<path fill="#14B259" d="M23.468,19.614l0.792,0.178c0.145-0.658,0.224-1.352,0.24-2.081l-0.804-0.048
		C23.696,18.298,23.62,18.947,23.468,19.614z"/>
	<path fill="#14B259" d="M21.584,17.711l-0.792,0.226c0.112,0.745,0.204,1.518,0.276,2.319l0.899-0.226
		C21.855,19.158,21.728,18.385,21.584,17.711z"/>
	<path fill="#14B259" d="M38.744,11.337H38h-0.756c-0.648,0.531-1.252,0.947-1.812,1.249c-0.704,0.381-1.708,0.757-3.012,1.13
		l0.6,1.106c0.36-0.126,0.704-0.254,1.032-0.381v2.2c0,0.729-0.1,1.526-0.3,2.391c-0.248,0.832-0.708,1.629-1.38,2.39l0.984,0.833
		c0.688-0.951,1.176-1.918,1.464-2.902c0.088-0.349,0.159-0.697,0.216-1.047h6.948v-3.758c0.264,0.103,0.544,0.195,0.84,0.274
		l0.695-1.106c-1.239-0.373-2.123-0.693-2.651-0.963C40.132,12.395,39.424,11.924,38.744,11.337z M40.856,17.426h-5.713
		c0.024-0.246,0.036-0.492,0.036-0.738h5.677V17.426z M40.856,15.796H35.18v-0.642h5.677V15.796z M41.312,14.274h-2.376
		c-0.256-0.436-0.523-0.824-0.804-1.165l-1.212,0.19c0.296,0.301,0.564,0.626,0.804,0.975H34.46c0.56-0.229,1.044-0.459,1.452-0.689
		c0.672-0.389,1.368-0.872,2.088-1.451c1,0.856,1.98,1.515,2.94,1.974C41.052,14.163,41.176,14.219,41.312,14.274z"/>
	<path fill="#14B259" d="M42.164,22.218v-3.211h-6.937v3.116h1.08v-0.38h4.776v0.476H42.164z M36.308,20.862v-0.975h4.776v0.975
		H36.308z"/>
	<path fill="#14B259" d="M50.084,18.353l-0.888,0.559c0.695,0.713,1.243,1.348,1.644,1.903l1.08-0.738
		C51.472,19.594,50.86,19.019,50.084,18.353z"/>
	<path fill="#14B259" d="M53.228,20.684c0,0.183-0.14,0.273-0.42,0.273c-0.376,0-0.859-0.031-1.451-0.095l0.228,1.166h1.5
		c0.456,0,0.768-0.091,0.936-0.274c0.192-0.167,0.288-0.463,0.288-0.892v-2.831h1.261v-1.022h-1.261v-1.249h1.177v-1.07h-3v-1.213
		H55.1v-1.023h-2.615v-1.118h-1.032v1.118H48.92v1.023h2.532v1.213H48.68v1.07h4.548v1.249h-4.644v1.022h4.644V20.684z"/>
	<path fill="#14B259" d="M45.824,20.173h1.5v0.879h1.032v-8.919h-3.564v9.193h1.032V20.173z M45.824,13.156h1.5v2.509h-1.5V13.156z
		 M45.824,16.688h1.5v2.462h-1.5V16.688z"/>
	<path fill="#14B259" d="M59.372,15.012l0.132,1.07l2.568-0.262c0.088,0.793,0.195,1.427,0.324,1.902
		c0.375,1.38,0.888,2.438,1.535,3.175c0.752,0.848,1.448,1.272,2.088,1.272c0.433,0,0.752-0.147,0.961-0.44
		c0.224-0.357,0.42-1.094,0.588-2.212l-1.164-0.654c-0.089,1.142-0.177,1.772-0.265,1.891c-0.031,0.103-0.1,0.155-0.204,0.155
		c-0.367,0-0.804-0.325-1.308-0.976c-0.464-0.57-0.84-1.403-1.128-2.497c-0.096-0.412-0.18-0.991-0.252-1.736l3.9-0.404l-0.145-1.07
		l-3.852,0.404c-0.072-0.912-0.128-2.01-0.168-3.294h-1.177c0.032,1.308,0.084,2.446,0.156,3.413L59.372,15.012z"/>
	<path fill="#14B259" d="M66.404,13.335c-0.385-0.436-0.916-0.959-1.597-1.57l-0.84,0.511c0.592,0.658,1.061,1.245,1.404,1.76
		L66.404,13.335z"/>
	<path fill="#14B259" d="M57.92,16.01v6.112H59v-8.015c0.288-0.642,0.568-1.407,0.84-2.295l-0.983-0.428
		c-0.345,1.189-0.704,2.097-1.08,2.723c-0.36,0.69-0.784,1.364-1.272,2.022l0.384,1.296C57.256,16.958,57.6,16.486,57.92,16.01z"/>
	<path fill="#14B259" d="M76.028,13.287c0.983,1.459,1.771,3.159,2.363,5.102l1.068-0.476c-0.688-1.998-1.524-3.746-2.508-5.245
		L76.028,13.287z"/>
	<path fill="#14B259" d="M70.436,21.885c0.784-1.633,1.604-3.854,2.461-6.66c0.407-0.032,0.707-0.047,0.899-0.047
		c0.448,0,0.744,0.075,0.888,0.226c0.145,0.159,0.217,0.464,0.217,0.916c0,1.364-0.12,2.561-0.36,3.592
		c-0.104,0.46-0.264,0.69-0.48,0.69c-0.407,0-0.991-0.107-1.752-0.321c0.049,0.356,0.072,0.769,0.072,1.237
		c0.68,0.158,1.284,0.237,1.812,0.237c0.527,0,0.928-0.237,1.199-0.713c0.177-0.301,0.316-0.753,0.42-1.355
		c0.16-0.888,0.24-2.041,0.24-3.46c0-1.412-0.74-2.117-2.22-2.117c-0.152,0-0.356,0.004-0.612,0.012
		c0.216-0.729,0.412-1.419,0.588-2.069l-1.115-0.285c-0.2,0.816-0.416,1.625-0.648,2.426c-1.24,0.119-2.1,0.21-2.58,0.273
		l0.192,1.118c0.728-0.111,1.412-0.198,2.052-0.261c-0.76,2.426-1.54,4.467-2.34,6.124L70.436,21.885z"/>
	<path fill="#14B259" d="M83.528,12.05L83.3,13.085c0.552,0.04,1.292,0.186,2.22,0.439c0.864,0.23,1.584,0.468,2.16,0.713
		l0.372-1.035c-0.512-0.229-1.256-0.467-2.231-0.713C84.884,12.252,84.12,12.106,83.528,12.05z"/>
	<path fill="#14B259" d="M83.636,17.224c0.208-1.071,0.372-2.117,0.492-3.14l-1.068-0.131c-0.264,2.133-0.556,3.679-0.876,4.638
		l0.925,0.393c0.288-0.46,0.831-0.852,1.632-1.177c0.712-0.286,1.368-0.428,1.968-0.428c1.432,0,2.148,0.484,2.148,1.451
		c0,1.094-1.124,1.641-3.372,1.641c-0.872,0-1.696-0.067-2.473-0.202l0.24,1.202c0.664,0.063,1.396,0.095,2.196,0.095
		c1.184,0,2.151-0.154,2.903-0.464c1.088-0.444,1.633-1.185,1.633-2.224c0-0.848-0.336-1.491-1.009-1.926
		c-0.567-0.373-1.288-0.559-2.159-0.559C85.728,16.391,84.668,16.668,83.636,17.224z"/>
	<path fill="#14B259" d="M92.744,21.195l0.84,0.927c0.508-0.698,0.977-1.476,1.416-2.316v-2.393l-0.048-0.035
		C94.184,19.027,93.448,20.299,92.744,21.195z"/>
	<path fill="#14B259" d="M92.6,15.475c0.681,0.365,1.336,0.86,1.969,1.486L95,16.28v-0.632c-0.552-0.413-1.142-0.787-1.788-1.101
		L92.6,15.475z"/>
	<path fill="#14B259" d="M93.02,12.407c0.681,0.364,1.341,0.86,1.98,1.486v-1.688c-0.418-0.282-0.853-0.546-1.32-0.773L93.02,12.407
		z"/>
	<rect y="26.213" fill="#14B259" width="6.824" height="0.928"/>
	<polygon fill="#14B259" points="6.5,28.116 0,28.116 0,29.092 5.372,29.092 5.372,30.768 0,30.768 0,31.743 6.5,31.743 	"/>
	<path fill="#14B259" d="M15.452,25.607v1.118H12.92v1.023h2.532v1.212H12.68v1.07h4.548v1.249h-4.644v1.022h4.644v2.652
		c0,0.182-0.14,0.273-0.42,0.273c-0.376,0-0.859-0.031-1.451-0.095l0.228,1.166h1.5c0.456,0,0.768-0.092,0.936-0.274
		c0.192-0.167,0.288-0.464,0.288-0.892v-2.83h1.261V31.28h-1.261v-1.249h1.177v-1.07h-3v-1.212H19.1v-1.023h-2.615v-1.118H15.452z"
		/>
	<path fill="#14B259" d="M9.824,34.443h1.5v0.88h1.032v-8.919H8.792v9.193h1.032V34.443z M9.824,27.427h1.5v2.509h-1.5V27.427z
		 M9.824,30.958h1.5v2.461h-1.5V30.958z"/>
	<path fill="#14B259" d="M15.92,34.348c-0.448-0.483-1.06-1.058-1.836-1.724l-0.888,0.559c0.695,0.713,1.243,1.347,1.644,1.902
		L15.92,34.348z"/>
	<path fill="#14B259" d="M28.808,26.036l-0.84,0.511c0.592,0.658,1.061,1.245,1.404,1.76l1.032-0.702
		C30.02,27.169,29.488,26.646,28.808,26.036z"/>
	<path fill="#14B259" d="M23,36.393v-8.015c0.288-0.642,0.568-1.407,0.84-2.295l-0.983-0.428c-0.345,1.189-0.704,2.097-1.08,2.723
		c-0.36,0.689-0.784,1.364-1.272,2.021l0.384,1.296c0.368-0.468,0.712-0.939,1.032-1.415v6.112H23z"/>
	<path fill="#14B259" d="M26.396,31.993c0.375,1.379,0.888,2.438,1.535,3.175c0.752,0.848,1.448,1.272,2.088,1.272
		c0.433,0,0.752-0.147,0.961-0.44c0.224-0.356,0.42-1.094,0.588-2.212l-1.164-0.654c-0.089,1.142-0.177,1.772-0.265,1.891
		c-0.031,0.103-0.1,0.155-0.204,0.155c-0.367,0-0.804-0.325-1.308-0.975c-0.464-0.571-0.84-1.403-1.128-2.498
		c-0.096-0.412-0.18-0.991-0.252-1.736l3.9-0.404l-0.145-1.07l-3.852,0.404c-0.072-0.912-0.128-2.009-0.168-3.293h-1.177
		c0.032,1.308,0.084,2.445,0.156,3.413l-2.592,0.262l0.132,1.07l2.568-0.262C26.16,30.883,26.268,31.518,26.396,31.993z"/>
	<path fill="#14B259" d="M33.236,31.815c0,0.801,0.231,1.565,0.695,2.295c0.521,0.841,1.156,1.261,1.908,1.261
		c0.792,0,1.44-0.821,1.944-2.462c0.416-1.372,0.716-3.001,0.899-4.887c0.88,0.023,1.612,0.321,2.196,0.892
		c0.592,0.571,0.888,1.292,0.888,2.165c0,2.101-1.228,3.306-3.684,3.615c0.248,0.516,0.412,0.892,0.492,1.13
		c2.92-0.595,4.38-2.176,4.38-4.745c0-1.253-0.456-2.26-1.368-3.021c-0.856-0.706-1.92-1.058-3.191-1.058
		c-1.448,0-2.66,0.444-3.637,1.332C33.744,29.242,33.236,30.403,33.236,31.815z M37.544,28.081
		c-0.168,1.729-0.464,3.234-0.888,4.519c-0.36,1.11-0.66,1.665-0.9,1.665c-0.392,0-0.731-0.301-1.02-0.904
		c-0.257-0.523-0.385-1.05-0.385-1.581c0-0.952,0.301-1.765,0.9-2.438C35.828,28.683,36.592,28.263,37.544,28.081z"/>
	<path fill="#14B259" d="M46.484,36.488h1.164v-0.844h4.968v0.88h1.176V25.987h-7.308V36.488z M47.648,27.141h4.968v2.973h-4.968
		V27.141z M47.648,31.28h4.968v3.247h-4.968V31.28z"/>
	<path fill="#14B259" d="M65.096,31.065c-0.576-0.737-1.067-1.534-1.476-2.391h3.576v-1.153h-4.692v-1.915h-1.212v1.915h-4.548
		v1.153h3.336c-0.368,0.92-0.78,1.693-1.236,2.319c-0.576,0.864-1.384,1.748-2.424,2.652l0.648,1.118
		c1.432-1.276,2.46-2.489,3.084-3.639c0.367-0.603,0.731-1.419,1.092-2.45h0.048v4.698h-2.58v1.118h2.58v2.081h1.212V34.49h2.724
		v-1.118h-2.724v-4.698h0.036c0.416,1.103,0.916,2.054,1.5,2.854c0.704,1.007,1.632,2.006,2.784,2.997l0.792-1.011
		C66.536,32.635,65.696,31.819,65.096,31.065z"/>
	<path fill="#14B259" d="M77.864,28.425l-0.66,0.464c0.487,0.452,0.899,1.035,1.236,1.748l0.684-0.463
		C78.804,29.5,78.384,28.917,77.864,28.425z"/>
	<path fill="#14B259" d="M73.976,28.307c-0.575,0.531-1.04,1.134-1.392,1.808c-0.392,0.745-0.588,1.475-0.588,2.188
		c0,2.307,1.796,3.504,5.388,3.591l0.252-1.177c-1.312,0-2.3-0.123-2.964-0.369c-1.008-0.38-1.512-1.066-1.512-2.057
		c0-0.753,0.312-1.589,0.936-2.509c0.648-0.951,1.316-1.471,2.004-1.558c0.608-0.08,1.5-0.119,2.677-0.119l0.035-1.13l-9.768,0.559
		l0.12,1.118C70.892,28.509,72.496,28.394,73.976,28.307z"/>
	<path fill="#14B259" d="M76.136,29.484c0.473,0.444,0.876,1.027,1.212,1.748l0.696-0.464c-0.328-0.674-0.748-1.256-1.26-1.748
		L76.136,29.484z"/>
	<path fill="#14B259" d="M86.828,32.707l0.815-0.666c-0.695-1.006-1.535-1.855-2.52-2.545l-0.768,0.619
		C85.412,30.907,86.236,31.771,86.828,32.707z"/>
	<rect x="92.744" y="28.627" fill="#14B259" width="2.256" height="1.166"/>
	<path fill="#14B259" d="M92.504,35.465l1.032,0.88c0.546-0.441,1.023-0.878,1.464-1.314v-1.794
		C94.34,34.011,93.523,34.756,92.504,35.465z"/>
	<path fill="#14B259" d="M0.404,50.009h5.147v0.749h1.176v-5.161h-4.68c0.185-0.104,0.368-0.214,0.552-0.333
		c1.353-0.809,2.664-2.03,3.937-3.663v-0.785H1.592c0.176-0.253,0.34-0.535,0.492-0.844l-1.212-0.13
		C0.597,40.297,0.305,40.677,0,40.999v1.477c0.125-0.101,0.254-0.2,0.368-0.303c0.136-0.111,0.275-0.238,0.42-0.38H5
		c-1.024,1.11-1.98,1.942-2.868,2.498c-0.432-0.42-0.976-0.9-1.632-1.439L0,43.161v0.653c0.371,0.375,0.716,0.737,1.004,1.07
		c-0.314,0.148-0.65,0.29-1.004,0.427v5.447h0.404V50.009z M0.404,46.62h5.147v2.366H0.404V46.62z"/>
	<path fill="#14B259" d="M16.244,46.406c-0.664,0-1.344-0.087-2.04-0.262L14,47.25c0.768,0.167,1.516,0.25,2.244,0.25
		c0.808,0,1.472-0.218,1.992-0.654c0.552-0.459,0.828-1.085,0.828-1.879c0-0.84-0.32-1.498-0.961-1.974
		c-0.567-0.436-1.283-0.654-2.147-0.654c-0.248,0-0.524,0.016-0.828,0.047l-0.636-1.914l-1.044,0.356l0.54,1.724
		c-0.544,0.104-1.181,0.238-1.908,0.405l-0.54-2.331L10.448,40.9l0.527,2.319l-2.172,0.535l0.36,1.082
		c0.92-0.23,1.608-0.409,2.063-0.535l1.44,6.219l1.104-0.297l-1.44-6.195c0.72-0.174,1.384-0.317,1.992-0.428l0.479,1.569
		l1.104-0.333l-0.444-1.38c0.192-0.015,0.36-0.023,0.504-0.023c0.528,0,0.968,0.126,1.32,0.38c0.384,0.278,0.576,0.662,0.576,1.153
		c0,0.452-0.152,0.805-0.456,1.059C17.104,46.279,16.716,46.406,16.244,46.406z"/>
	<path fill="#14B259" d="M23.648,39.972H23.18h-0.563c-0.641,1.15-1.344,2.125-2.112,2.926l0.384,1.213
		c0.912-1.054,1.692-2.136,2.34-3.246c0.408,0.523,0.925,1.312,1.549,2.366l0.792-0.749C25.008,41.602,24.368,40.765,23.648,39.972z
		"/>
	<path fill="#14B259" d="M31.052,48.713v-6.648H28.58c0.12-0.293,0.216-0.603,0.288-0.927h2.424V40.21h-5.904v0.928h2.389
		c-0.08,0.317-0.181,0.626-0.301,0.927h-1.764v6.648h1.32c-0.521,0.444-1.116,0.828-1.788,1.153l0.66,0.892
		c0.823-0.491,1.512-1.034,2.063-1.629l-0.479-0.416h1.896L29,49.308c0.688,0.357,1.356,0.84,2.004,1.451l0.612-0.939
		c-0.528-0.412-1.108-0.781-1.74-1.105H31.052z M26.744,42.993h3.275v1.022h-3.275V42.993z M26.744,44.896h3.275v0.975h-3.275
		V44.896z M26.744,47.786v-1.023h3.275v1.023H26.744z"/>
	<path fill="#14B259" d="M25.34,45.74v-0.975h-4.452v1.022h3.288c-0.216,0.603-0.42,1.035-0.611,1.296
		c-0.152,0.262-0.364,0.551-0.637,0.868c-0.359-0.317-0.744-0.638-1.151-0.963l-0.792,0.75c1.256,1.015,2.224,1.958,2.903,2.83
		l0.84-0.833c-0.304-0.341-0.636-0.69-0.995-1.046c0.296-0.365,0.54-0.714,0.731-1.047C24.752,47.175,25.044,46.541,25.34,45.74z"/>
	<path fill="#14B259" d="M23.132,42.351l-0.792,0.463c0.392,0.658,0.704,1.245,0.937,1.76l0.936-0.654
		C23.948,43.485,23.588,42.961,23.132,42.351z"/>
	<path fill="#14B259" d="M32.6,49.225v1.058h10.74v-1.058h-4.691v-2.973h3.708v-1.023h-3.708v-2.378h4.271v-1.059h-4.956l0.78-0.511
		c-0.336-0.42-0.804-0.916-1.404-1.486l-0.936,0.594c0.424,0.507,0.779,0.975,1.067,1.403h-4.487v1.059h4.403v2.378h-3.804v1.023
		h3.804v2.973H32.6z"/>
	<path fill="#14B259" d="M46.172,40.709c-0.216,1.617-0.324,3.596-0.324,5.935c0,1.212,0.024,2.438,0.072,3.675l1.128-0.119
		c-0.056-1.348-0.084-2.604-0.084-3.77c0-1.99,0.104-3.856,0.312-5.601L46.172,40.709z"/>
	<path fill="#14B259" d="M49.724,49.415c0.576,0.182,1.42,0.273,2.532,0.273c0.688,0,1.532-0.043,2.532-0.13l0.084-1.177
		c-1.28,0.134-2.204,0.202-2.772,0.202c-0.792,0-1.355-0.035-1.691-0.107c-0.744-0.158-1.116-0.483-1.116-0.975
		c0-0.317,0.196-0.809,0.588-1.474l-0.983-0.488c-0.473,0.745-0.708,1.439-0.708,2.081C48.188,48.507,48.7,49.105,49.724,49.415z"/>
	<path fill="#14B259" d="M54.356,41.899c-2.265,0-4.209,0.063-5.832,0.19v1.106c1.647-0.143,3.592-0.214,5.832-0.214V41.899z"/>
	<polygon fill="#14B259" points="62.888,39.972 62.888,43.362 59.468,43.362 59.468,44.432 62.888,44.432 62.888,49.355 
		59.984,49.355 59.984,50.378 67.052,50.378 67.052,49.355 64.1,49.355 64.1,44.432 67.484,44.432 67.484,43.362 64.1,43.362 
		64.1,39.972 	"/>
	<path fill="#14B259" d="M57.836,42.482c-0.392,0.682-0.848,1.348-1.368,1.998l0.372,1.308c0.392-0.459,0.752-0.919,1.08-1.379
		v6.255H59V42.66c0.336-0.674,0.664-1.49,0.984-2.45L59,39.794C58.624,40.968,58.236,41.863,57.836,42.482z"/>
	<path fill="#14B259" d="M76.148,41.031c-1.328-0.373-2.784-0.587-4.368-0.643l-0.061,1.059c1.8,0.174,3.2,0.396,4.2,0.666
		L76.148,41.031z"/>
	<path fill="#14B259" d="M74.816,48.44c0,0.658,0.224,1.118,0.672,1.379c0.352,0.198,0.884,0.297,1.596,0.297
		c0.536,0,1.156-0.043,1.86-0.131l-0.133-1.142c-0.848,0.119-1.508,0.179-1.979,0.179c-0.328,0-0.548-0.028-0.66-0.083
		c-0.168-0.087-0.252-0.285-0.252-0.595V47.31c0-1.134-0.46-1.732-1.38-1.796c0.64-0.714,1.204-1.328,1.692-1.843
		c0.256-0.079,0.384-0.25,0.384-0.511l-0.828-0.714l-0.3,0.226c-2.784,0.135-4.48,0.202-5.088,0.202l0.071,1.166
		c2.008-0.135,3.412-0.218,4.212-0.25c-2.823,3.155-4.504,5.066-5.04,5.732l0.841,0.772c0.703-0.887,1.52-1.871,2.447-2.949
		c0.641-0.531,1.084-0.797,1.332-0.797c0.232,0,0.385,0.063,0.456,0.19c0.056,0.096,0.084,0.29,0.084,0.583c0,0.127,0,0.314,0,0.559
		C74.812,48.134,74.816,48.321,74.816,48.44z"/>
	<rect x="80.84" y="44.67" fill="#14B259" width="3.372" height="0.928"/>
	<rect x="80.84" y="42.945" fill="#14B259" width="3.372" height="0.928"/>
	<path fill="#14B259" d="M84.632,41.186h-1.548c-0.096-0.5-0.204-0.947-0.324-1.344l-1.128,0.13c0.136,0.381,0.256,0.785,0.36,1.213
		H80.42v0.975h4.212V41.186z"/>
	<path fill="#14B259" d="M89.372,39.842v1.249h-0.984v-1.249h-0.936v1.249h-1.08v-1.166H85.34v1.166h-0.563v0.88h0.563v3.211h2.196
		v0.88H84.68v0.928h1.933c-0.185,0.42-0.408,0.773-0.672,1.059c-0.345,0.396-0.872,0.805-1.584,1.225l0.695,0.833
		c0.848-0.586,1.452-1.138,1.812-1.653c0.231-0.309,0.456-0.709,0.672-1.201v3.508h0.983V47.12c0.208,0.5,0.452,0.939,0.732,1.32
		c0.4,0.562,0.924,1.118,1.572,1.665l0.744-0.975c-0.616-0.42-1.097-0.812-1.44-1.177c-0.28-0.302-0.524-0.623-0.731-0.963h1.991
		v-0.928H88.52v-0.88h2.532v-0.88h-4.68V41.97h1.08v1.725h2.855V41.97h1.177v-0.88h-1.177v-1.249H89.372z M89.372,42.898h-0.984
		V41.97h0.984V42.898z"/>
	<path fill="#14B259" d="M84.26,46.43h-3.468v4.281h1.08v-0.844h2.388V46.43z M83.18,48.891h-1.308v-1.486h1.308V48.891z"/>
	<polygon fill="#14B259" points="94.664,40.948 92.84,40.948 92.84,41.875 94.664,41.875 94.664,42.898 92.504,42.898 92.504,43.79 
		93.32,43.79 93.716,45.407 92.468,45.407 92.468,46.335 94.616,46.335 94.616,47.5 92.84,47.5 92.84,48.428 94.616,48.428 
		94.616,50.758 95,50.758 95,45.407 94.7,45.407 94.304,43.79 95,43.79 95,39.877 94.664,39.877 	"/>
	<path fill="#14B259" d="M2.888,60.237H0.116v4.792h1.128V64.28h4.5v0.749h1.128v-4.792h-2.82v-1.712H7.52v-1.024H4.052v-1.724
		c1.185-0.134,2.216-0.337,3.097-0.607l-0.517-0.879C4.819,54.789,2.608,55.039,0,55.039v0.054l0.26,0.875
		c0.928,0,1.804-0.028,2.628-0.083v1.616H0v1.024h2.888V60.237z M5.744,61.211v2.093h-4.5v-2.093H5.744z"/>
	<path fill="#14B259" d="M11.132,57.728H8.936v3.674h2.196v0.69H9.02v0.796h2.112v0.975c-0.815,0.048-1.691,0.079-2.628,0.096
		l0.145,0.975c2.655-0.159,4.516-0.329,5.579-0.511v-0.118l0.757,0.629c0.871-1.387,1.46-2.747,1.764-4.078
		c0.231-0.983,0.38-2.164,0.444-3.544h1.164c-0.017,3.29-0.057,5.231-0.12,5.827c-0.032,0.484-0.212,0.725-0.54,0.725
		c-0.368,0-0.729-0.031-1.08-0.095l0.191,1.166c0.336,0.033,0.632,0.048,0.889,0.048c0.576,0,0.968-0.115,1.176-0.345
		c0.184-0.183,0.312-0.563,0.384-1.142c0.088-0.745,0.132-3.131,0.132-7.159h-2.16c0-0.174,0-0.36,0-0.559v-1.582h-1.031v1.582
		c0,0.191,0,0.376,0,0.559h-1.309v0.976h1.284c-0.056,1.396-0.191,2.481-0.408,3.258c-0.304,1.205-0.815,2.339-1.536,3.402v-0.393
		c-0.64,0.087-1.344,0.163-2.111,0.227v-0.917h2.111v-0.796h-2.111v-0.69h2.352v-3.674h-2.352v-0.606h2.436v-0.881h-2.436v-0.785
		c0.832-0.055,1.567-0.134,2.208-0.237l-0.468-0.833c-1.4,0.183-3.104,0.274-5.112,0.274l0.275,0.892
		c0.752,0,1.456-0.012,2.112-0.037v0.726H8.42v0.881h2.712V57.728z M11.132,60.653H9.968v-0.737h1.164V60.653z M11.132,59.262H9.968
		v-0.786h1.164V59.262z M12.116,58.477h1.319v0.786h-1.319V58.477z M12.116,59.916h1.319v0.737h-1.319V59.916z"/>
	<path fill="#14B259" d="M25.124,58.037l-0.768,0.618c1.056,0.793,1.88,1.658,2.472,2.593l0.815-0.667
		C26.948,59.575,26.108,58.726,25.124,58.037z"/>
	<path fill="#14B259" d="M36.536,58.144H34.4c0.031-0.095,0.063-0.193,0.096-0.297c0.184-0.532,0.364-1.253,0.54-2.165h1.932v-1.058
		h-4.224v1.058h1.248c-0.16,0.801-0.34,1.475-0.54,2.022c-0.256,0.769-0.616,1.553-1.08,2.354l0.612,1.024
		c0.184-0.294,0.355-0.591,0.516-0.892v4.554h1.02v-0.976h2.017V58.144z M35.504,62.794H34.52v-3.675h0.984V62.794z"/>
	<path fill="#14B259" d="M42.872,58.109c0.304-0.92,0.52-1.853,0.647-2.795H41v-1.202h-1.08v1.202h-2.063H37.34v3.389
		c0,0.855-0.052,1.787-0.156,2.795c-0.128,0.967-0.355,1.895-0.684,2.782l0.888,0.785c0.368-1.078,0.632-2.171,0.792-3.283
		c0.097-0.816,0.156-1.608,0.181-2.378h0.228c0.256,1.206,0.692,2.229,1.309,3.069c0.023,0.04,0.052,0.079,0.084,0.119
		c-0.521,0.484-1.229,0.939-2.124,1.368l0.468,1.07c0.96-0.539,1.735-1.083,2.328-1.629c0.552,0.571,1.26,1.113,2.124,1.629
		l0.611-1.023c-0.784-0.397-1.456-0.868-2.016-1.415c0.088-0.119,0.168-0.238,0.24-0.356c0.456-0.691,0.859-1.682,1.212-2.973
		v-0.737H41V56.29h1.296c-0.136,0.602-0.304,1.113-0.504,1.533L42.872,58.109z M38.372,58.525V56.29h1.548v2.235H38.372z
		 M41.744,59.404c-0.36,1.079-0.716,1.872-1.068,2.378c-0.439-0.617-0.784-1.411-1.032-2.378H41.744z"/>
	<path fill="#14B259" d="M44.552,61.96l0.192,1.024c1.2-0.31,2.292-0.699,3.275-1.166l-0.132-0.928
		c-0.336,0.159-0.712,0.31-1.128,0.453v-3.842h1.225v-0.927H46.76v-2.33h-0.936v2.33H44.6v0.927h1.225v4.139
		C45.432,61.751,45.008,61.858,44.552,61.96z"/>
	<path fill="#14B259" d="M55.292,55.825v-0.88h-3.096v-0.796h-0.984v0.796h-3v0.88h3v0.749H48.5v2.878h6.468v-2.878h-2.771v-0.749
		H55.292z M53.036,57.455h0.983v1.117h-0.983V57.455z M50.324,58.571h-0.889v-1.117h0.889V58.571z M52.148,58.571h-0.937v-1.117
		h0.937V58.571z"/>
	<path fill="#14B259" d="M51.596,61.165h3.792v-0.881H52.28c-0.089-0.238-0.208-0.484-0.36-0.737l-0.9,0.227
		c0.112,0.167,0.204,0.336,0.276,0.511h-3.132v0.881h2.328c-0.312,0.237-0.696,0.475-1.152,0.712
		c-0.776,0.404-1.512,0.71-2.208,0.917l0.468,0.832c0.48-0.15,1.028-0.384,1.645-0.702v0.939c-0.024,0.135-0.088,0.226-0.192,0.275
		l0.433,0.844c0.968-0.198,1.823-0.448,2.567-0.749L51.92,63.4c-0.6,0.198-1.18,0.364-1.74,0.5v-1.511
		C50.684,62.048,51.156,61.64,51.596,61.165z"/>
	<path fill="#14B259" d="M54.968,62.056l-0.899-0.512c-0.272,0.374-0.62,0.729-1.044,1.07c-0.336-0.341-0.564-0.697-0.685-1.07
		l-0.804,0.179c0.184,0.675,0.6,1.328,1.248,1.962c0.584,0.54,1.296,0.956,2.136,1.249l0.744-0.844
		c-0.824-0.238-1.476-0.53-1.956-0.879C54.124,62.901,54.544,62.516,54.968,62.056z"/>
	<path fill="#14B259" d="M57.5,65.029c0.808-1.166,1.524-2.529,2.148-4.091l-0.984-0.702c-0.712,1.625-1.4,2.882-2.064,3.77
		L57.5,65.029z"/>
	<path fill="#14B259" d="M58.484,59.63l0.695-1.105c-0.64-0.468-1.344-0.873-2.111-1.213l-0.601,0.927
		C57.156,58.58,57.828,59.043,58.484,59.63z"/>
	<path fill="#14B259" d="M64.052,55.777c1.185-0.134,2.216-0.337,3.097-0.607l-0.517-0.879c-1.816,0.499-4.032,0.749-6.647,0.749
		l0.275,0.928c0.928,0,1.804-0.028,2.628-0.083v1.616H59.42v1.024h3.468v1.712h-2.771v4.792h1.128V64.28h4.5v0.749h1.128v-4.792
		h-2.82v-1.712h3.468v-1.024h-3.468V55.777z M65.744,61.211v2.093h-4.5v-2.093H65.744z"/>
	<path fill="#14B259" d="M56.792,55.266c0.656,0.294,1.296,0.699,1.92,1.213l0.708-1.118c-0.616-0.396-1.288-0.737-2.016-1.023
		L56.792,55.266z"/>
	<path fill="#14B259" d="M77.228,55.777v-1.582h-1.031v1.582c0,0.191,0,0.376,0,0.559h-1.309v0.976h1.284
		c-0.056,1.396-0.191,2.481-0.408,3.258c-0.304,1.205-0.815,2.339-1.536,3.402v-0.393c-0.64,0.087-1.344,0.163-2.111,0.227v-0.917
		h2.111v-0.796h-2.111v-0.69h2.352v-3.674h-2.352v-0.606h2.436v-0.881h-2.436v-0.785c0.832-0.055,1.567-0.134,2.208-0.237
		l-0.468-0.833c-1.4,0.183-3.104,0.274-5.112,0.274l0.275,0.892c0.752,0,1.456-0.012,2.112-0.037v0.726H68.42v0.881h2.712v0.606
		h-2.196v3.674h2.196v0.69H69.02v0.796h2.112v0.975c-0.815,0.048-1.691,0.079-2.628,0.096l0.145,0.975
		c2.655-0.159,4.516-0.329,5.579-0.511v-0.118l0.757,0.629c0.871-1.387,1.46-2.747,1.764-4.078c0.231-0.983,0.38-2.164,0.444-3.544
		h1.164c-0.017,3.29-0.057,5.231-0.12,5.827c-0.032,0.484-0.212,0.725-0.54,0.725c-0.368,0-0.729-0.031-1.08-0.095l0.191,1.166
		c0.336,0.033,0.632,0.048,0.889,0.048c0.576,0,0.968-0.115,1.176-0.345c0.184-0.183,0.312-0.563,0.384-1.142
		c0.088-0.745,0.132-3.131,0.132-7.159h-2.16C77.228,56.162,77.228,55.976,77.228,55.777z M72.116,58.477h1.319v0.786h-1.319V58.477
		z M72.116,59.916h1.319v0.737h-1.319V59.916z M71.132,60.653h-1.164v-0.737h1.164V60.653z M71.132,59.262h-1.164v-0.786h1.164
		V59.262z"/>
	<path fill="#14B259" d="M86.828,61.248l0.815-0.667c-0.695-1.007-1.535-1.855-2.52-2.544l-0.768,0.618
		C85.412,59.448,86.236,60.312,86.828,61.248z"/>
	<path fill="#14B259" d="M92.468,57.917c0.624,0.325,1.232,0.774,1.824,1.345L95,58.192c-0.584-0.445-1.229-0.828-1.932-1.153
		L92.468,57.917z"/>
	<path fill="#14B259" d="M92.504,64.233l0.853,0.927c0.607-1.277,1.155-2.779,1.644-4.507l-0.9-0.642
		C93.548,61.834,93.016,63.242,92.504,64.233z"/>
	<path fill="#14B259" d="M92.936,55.136c0.593,0.3,1.168,0.717,1.729,1.249L95,55.876V55.07c-0.459-0.307-0.94-0.589-1.464-0.826
		L92.936,55.136z"/>
	<path fill="#14B259" d="M2.756,71.355H2.84v1.665h1.032v-1.581c0.24,0.356,0.523,0.677,0.852,0.964
		c0.48,0.443,1.116,0.883,1.908,1.32l0.708-0.88c-0.736-0.318-1.308-0.61-1.716-0.881c-0.272-0.19-0.524-0.392-0.756-0.606h2.136
		v-0.892H3.872v-0.796c1.063-0.103,2-0.254,2.808-0.452l-0.468-0.832c-1.7,0.359-3.774,0.54-6.212,0.545v0.364l0.164,0.529
		c0.96,0,1.852-0.024,2.676-0.072v0.713H0v0.892h1.688c-0.192,0.206-0.404,0.389-0.637,0.548C0.774,72.108,0.419,72.317,0,72.526
		v1.179c0.962-0.53,1.665-1.033,2.096-1.505C2.32,71.986,2.54,71.704,2.756,71.355z"/>
	<path fill="#14B259" d="M5.84,73.437H0.776v0.928h0.972c-0.08,0.555-0.224,0.967-0.432,1.237c-0.305,0.452-0.736,0.77-1.297,0.952
		l0.48,1.021c0.84-0.316,1.456-0.832,1.848-1.545c0.232-0.428,0.404-0.982,0.517-1.665h1.691C4.46,74.737,4.34,75.126,4.196,75.53
		h1.452c-0.041,0.285-0.084,0.508-0.133,0.667c-0.056,0.19-0.119,0.309-0.191,0.356c-0.08,0.063-0.236,0.095-0.468,0.095
		c-0.433,0-0.933-0.031-1.5-0.095l0.323,1.07h1.452c0.44,0,0.769-0.083,0.984-0.25c0.151-0.095,0.26-0.274,0.324-0.535
		c0.096-0.349,0.191-1.078,0.287-2.188H5.552C5.672,74.238,5.768,73.833,5.84,73.437z"/>
	<path fill="#14B259" d="M7.34,79.109l0.145-1.118c-0.616,0.063-1.549,0.095-2.796,0.095c-1.704-0.017-2.845-0.071-3.421-0.167
		c-0.504-0.079-0.884-0.198-1.14-0.357c-0.04-0.019-0.085-0.051-0.128-0.08v1.14c0.355,0.146,0.77,0.267,1.292,0.343
		C2.028,79.061,4.044,79.109,7.34,79.109z"/>
	<path fill="#14B259" d="M9.199,79.572h9.595V67.687H9.199V79.572z M10.183,78.978l3.814-4.861l3.813,4.861H10.183z M18.194,78.49
		l-3.813-4.86l3.813-4.862V78.49z M17.811,68.281l-3.813,4.861l-3.814-4.861H17.811z M9.799,68.768l3.814,4.862l-3.814,4.86V68.768z
		"/>
	<path fill="#14B259" d="M23.504,69.12l-0.744-0.654c-0.688,0.777-1.468,1.426-2.34,1.951l0.696,0.938
		C22.076,70.69,22.872,69.944,23.504,69.12z"/>
	<path fill="#14B259" d="M27.68,77.337h0.708v-0.928H27.92c-0.256,0-0.384-0.106-0.384-0.321v-3.484h-0.984v3.805
		c0,0.333,0.101,0.571,0.3,0.714C27.052,77.266,27.328,77.337,27.68,77.337z"/>
	<path fill="#14B259" d="M26.276,68.93c0.239,0.42,0.46,0.903,0.659,1.45l0.937-0.428c-0.192-0.459-0.412-0.892-0.66-1.297
		L26.276,68.93z"/>
	<polygon fill="#14B259" points="26.084,79.299 26.084,71.582 27.872,71.582 27.872,70.606 26.084,70.606 26.084,68.383 
		25.052,68.383 25.052,70.606 23.468,70.606 23.468,71.582 25.052,71.582 25.052,79.299 	"/>
	<rect x="28.196" y="69.073" fill="#14B259" width="3.048" height="1.069"/>
	<path fill="#14B259" d="M22.616,79.299V73.27c0.279-0.428,0.548-0.943,0.804-1.546l-0.936-0.416
		c-0.305,0.682-0.62,1.205-0.948,1.57c-0.328,0.396-0.7,0.785-1.116,1.165l0.372,1.261c0.28-0.254,0.544-0.511,0.792-0.773v4.768
		H22.616z"/>
	<path fill="#14B259" d="M24.02,78.086c0.345-1.712,0.532-3.523,0.564-5.434L23.6,72.604c0,1.721-0.188,3.468-0.563,5.245
		L24.02,78.086z"/>
	<path fill="#14B259" d="M28.052,73.39h1.272v4.459c0,0.19-0.141,0.285-0.42,0.285c-0.265,0-0.593-0.031-0.984-0.095l0.229,1.165
		h1.031c0.456,0,0.769-0.091,0.937-0.273c0.191-0.167,0.288-0.464,0.288-0.892V73.39h1.08v-1.059h-3.433V73.39z"/>
	<path fill="#14B259" d="M38.828,75.518l0.815-0.667c-0.695-1.006-1.535-1.854-2.52-2.544l-0.768,0.618
		C37.412,73.719,38.236,74.582,38.828,75.518z"/>
	<path fill="#14B259" d="M54.272,70.333h0.972v-0.928h-2.809c-0.168-0.396-0.34-0.754-0.516-1.071l-1.176,0.131
		c0.2,0.293,0.38,0.607,0.54,0.94h-2.832v0.928h1.14l0.528,1.57h-1.812v0.975h7.128v-0.975h-1.668
		C53.984,71.395,54.152,70.872,54.272,70.333z M52.664,71.903h-1.416l-0.54-1.57h2.46C53.048,70.872,52.88,71.395,52.664,71.903z"/>
	<path fill="#14B259" d="M45.728,77.158H47v0.786h1.02v-8.777h-3.323v9.061h1.031V77.158z M45.728,70.142H47v2.605h-1.272V70.142z
		 M45.728,73.723H47v2.461h-1.272V73.723z"/>
	<path fill="#14B259" d="M48.92,79.252H50v-0.512h3.84v0.512h1.08V73.58h-6V79.252z M50,74.507h3.84v1.213H50V74.507z M50,76.6h3.84
		v1.212H50V76.6z"/>
	<path fill="#14B259" d="M59.456,78.955c0.16-0.144,0.24-0.401,0.24-0.772v-3.818h1.788V73.39h-1.788V71.82h-0.984v1.569h-2.208
		v0.975h2.208v3.675c0,0.159-0.124,0.238-0.372,0.238c-0.2,0-0.452-0.032-0.756-0.095l0.192,1.022h0.84
		C59.024,79.204,59.304,79.121,59.456,78.955z"/>
	<path fill="#14B259" d="M67.004,74.186V73.39h-5.147v0.975h4.031c-0.256,0.872-0.651,1.609-1.188,2.211
		c-0.048,0.056-0.104,0.112-0.168,0.167c-0.496-0.458-0.904-1.173-1.225-2.141l-0.888,0.275c0.312,1.037,0.74,1.87,1.284,2.497
		c-0.632,0.397-1.452,0.741-2.46,1.035l0.612,0.928c1.104-0.351,1.991-0.762,2.663-1.237c0.601,0.436,1.4,0.848,2.4,1.237
		l0.564-1.011c-0.872-0.325-1.576-0.646-2.112-0.963C66.147,76.489,66.692,75.431,67.004,74.186z"/>
	<path fill="#14B259" d="M59.888,75.352c0.376,0.951,0.672,1.799,0.889,2.544l0.936-0.642c-0.248-0.666-0.592-1.458-1.032-2.377
		L59.888,75.352z"/>
	<path fill="#14B259" d="M62.6,68.655c0,1.341-0.056,2.174-0.168,2.498c-0.168,0.342-0.563,0.808-1.188,1.403l0.792,0.654
		c0.728-0.674,1.172-1.257,1.332-1.749c0.144-0.379,0.231-0.991,0.264-1.831h1.404v2.141c0,0.42,0.104,0.718,0.312,0.893
		c0.192,0.174,0.496,0.261,0.912,0.261h1.176V71.95H66.5c-0.256,0-0.384-0.122-0.384-0.368v-2.927H62.6z"/>
	<path fill="#14B259" d="M57.632,74.839c-0.376,0.92-0.796,1.694-1.26,2.319l0.696,0.928c0.527-0.777,0.968-1.644,1.319-2.604
		L57.632,74.839z"/>
	<path fill="#14B259" d="M56.888,72.604c1.177-0.53,2.061-1.066,2.652-1.604c0.488,0.396,0.916,0.792,1.284,1.188l0.792-0.796
		c-0.408-0.38-0.856-0.766-1.344-1.154c0.336-0.388,0.659-0.836,0.972-1.344l-0.792-0.559c-0.336,0.508-0.664,0.94-0.984,1.296
		c-0.472-0.348-0.988-0.705-1.548-1.07l-0.756,0.703c0.56,0.364,1.076,0.725,1.548,1.082c-0.568,0.451-1.332,0.863-2.292,1.237
		L56.888,72.604z"/>
	<path fill="#14B259" d="M76.58,72.498l-1.128,0.072c0.096,1.283,0.156,2.346,0.18,3.186c-0.647-0.158-1.276-0.237-1.884-0.237
		c-0.576,0-1.052,0.126-1.428,0.38c-0.44,0.293-0.66,0.722-0.66,1.284c0,0.61,0.304,1.062,0.912,1.356
		c0.456,0.23,1.008,0.344,1.655,0.344c0.704,0,1.24-0.095,1.608-0.285c0.464-0.246,0.752-0.682,0.864-1.308
		c0.624,0.261,1.275,0.594,1.956,0.999l0.563-1.01c-0.775-0.492-1.6-0.888-2.472-1.19C76.692,74.535,76.636,73.337,76.58,72.498z
		 M75.188,77.634c-0.185,0.087-0.505,0.132-0.961,0.132c-0.968,0-1.451-0.195-1.451-0.583s0.331-0.583,0.996-0.583
		c0.544,0,1.163,0.107,1.859,0.321C75.592,77.278,75.444,77.516,75.188,77.634z"/>
	<path fill="#14B259" d="M70.076,77.325c0.784-1.45,1.527-3.333,2.231-5.648c1.032-0.048,1.84-0.103,2.425-0.167l-0.036-1.07
		c-0.616,0.056-1.309,0.106-2.076,0.155c0.151-0.54,0.28-1.03,0.384-1.475L71.9,68.834c-0.129,0.595-0.28,1.201-0.456,1.819
		c-0.576,0.017-1.248,0.024-2.017,0.024v1.093c0.561,0,1.124-0.011,1.692-0.035c-0.648,2.092-1.324,3.777-2.028,5.054L70.076,77.325
		z"/>
	<path fill="#14B259" d="M79.088,71.903c-1.168-0.873-2.272-1.542-3.312-2.011l-0.553,0.941c1.2,0.555,2.28,1.229,3.24,2.021
		L79.088,71.903z"/>
	<path fill="#14B259" d="M89.192,68.644c0.512,0.42,0.96,0.976,1.344,1.665l0.66-0.511c-0.376-0.658-0.832-1.212-1.368-1.665
		L89.192,68.644z"/>
	<path fill="#14B259" d="M88.796,68.799L88.16,69.31c0.504,0.421,0.952,0.976,1.344,1.666l0.66-0.512
		C89.788,69.805,89.332,69.25,88.796,68.799z"/>
	<path fill="#14B259" d="M84.56,77.313c-0.936-0.214-1.403-0.646-1.403-1.296c0-0.61,0.399-1.149,1.2-1.617
		c0.703-0.42,1.663-0.805,2.88-1.154c1.008-0.261,2.016-0.527,3.023-0.797l-0.348-1.105c-1.968,0.515-3.34,0.908-4.116,1.177
		c-0.16-1.26-0.24-2.429-0.24-3.507l-1.151,0.035c0,0.999,0.096,2.303,0.288,3.913c-1.769,0.793-2.652,1.812-2.652,3.056
		c0,1.095,0.568,1.836,1.704,2.224c0.672,0.237,1.672,0.357,3,0.357c0.672,0,1.868-0.063,3.588-0.19l0.084-1.201
		c-1.8,0.182-3.021,0.273-3.66,0.273C85.764,77.479,85.032,77.424,84.56,77.313z"/>
	<path fill="#14B259" d="M95,76.932v-0.503c-0.016,0.089-0.036,0.176-0.036,0.267C94.964,76.781,94.99,76.852,95,76.932z"/>
	<path fill="#14B259" d="M93.668,71.522c0.361,0,0.812-0.007,1.332-0.02v-1.135c-0.599,0.011-1.055,0.02-1.332,0.024V71.522z"/>
	<path fill="#14B259" d="M94.364,75.66c0.239-0.302,0.446-0.558,0.636-0.788v-1.819c-0.469,0.656-0.96,1.281-1.488,1.858
		L94.364,75.66z"/>
	<polygon fill="#14B259" points="7.052,92.167 4.1,92.167 4.1,87.243 7.484,87.243 7.484,86.173 4.1,86.173 4.1,82.783 
		2.888,82.783 2.888,86.173 0,86.173 0,87.243 2.888,87.243 2.888,92.167 0,92.167 0,93.188 7.052,93.188 	"/>
	<path fill="#14B259" d="M18.632,87.802h-4.08v-0.559h4.128v-2.414h-4.128v-0.511h4.645v-0.976h-4.645v-0.689h-1.116v0.689H8.792
		v0.976h4.644v0.511H9.452v2.414h3.983v0.559H9.116v0.881h4.319v0.606H8.324v0.927h5.111v0.654H9.116v0.881h4.319v0.559
		c0,0.158-0.155,0.237-0.468,0.237c-0.32,0-0.728-0.032-1.224-0.095l0.191,1.023h1.356c0.472,0,0.796-0.083,0.972-0.25
		c0.192-0.143,0.288-0.4,0.288-0.773V91.75h4.08v-1.535h0.984v-0.927h-0.984V87.802z M14.552,85.661h3v0.749h-3V85.661z
		 M13.436,86.41h-2.867v-0.749h2.867V86.41z M17.6,90.87h-3.048v-0.654H17.6V90.87z M17.6,89.289h-3.048v-0.606H17.6V89.289z"/>
	<path fill="#14B259" d="M24.56,91.584c-0.936-0.215-1.403-0.646-1.403-1.297c0-0.61,0.399-1.15,1.2-1.616
		c0.703-0.421,1.663-0.805,2.88-1.154c1.008-0.262,2.016-0.528,3.023-0.797l-0.348-1.105c-1.968,0.515-3.34,0.908-4.116,1.177
		c-0.16-1.261-0.24-2.43-0.24-3.508l-1.151,0.036c0,0.999,0.096,2.303,0.288,3.912c-1.769,0.793-2.652,1.812-2.652,3.056
		c0,1.095,0.568,1.836,1.704,2.224c0.672,0.238,1.672,0.357,3,0.357c0.672,0,1.868-0.063,3.588-0.191l0.084-1.201
		c-1.8,0.183-3.021,0.274-3.66,0.274C25.764,91.75,25.032,91.694,24.56,91.584z"/>
	<path fill="#14B259" d="M40.556,90.728c-0.56,0.713-1.363,1.07-2.412,1.07c-0.64,0-1.147-0.146-1.523-0.44
		c-0.416-0.316-0.612-0.776-0.588-1.379l0.288-6.743h-1.177c-0.136,3.726-0.203,5.973-0.203,6.743c0,1.927,1.067,2.89,3.203,2.89
		c1.376,0,2.425-0.408,3.145-1.224c0.567-0.65,1.027-1.717,1.38-3.2l-1.056-0.357C41.34,89.292,40.988,90.173,40.556,90.728z"/>
	<path fill="#14B259" d="M45.164,85.733c1.728-0.144,3.332-0.258,4.812-0.345c-0.575,0.53-1.04,1.134-1.392,1.808
		c-0.392,0.746-0.588,1.475-0.588,2.188c0,2.307,1.796,3.505,5.388,3.592l0.252-1.178c-1.312,0-2.3-0.123-2.964-0.369
		c-1.008-0.38-1.512-1.066-1.512-2.058c0-0.753,0.312-1.589,0.936-2.508c0.648-0.953,1.316-1.471,2.004-1.558
		c0.608-0.08,1.5-0.119,2.677-0.119l0.035-1.129l-9.768,0.559L45.164,85.733z"/>
	<path fill="#14B259" d="M66.38,91.928c0-1.354-0.088-2.659-0.264-3.912c-0.232-1.705-0.552-3.088-0.96-4.151l-1.068,0.297
		c0.392,1.047,0.7,2.375,0.924,3.983c0.152,1.166,0.229,2.442,0.229,3.831L66.38,91.928z"/>
	<path fill="#14B259" d="M60.248,90.478c-0.256,0.721-0.46,1.083-0.612,1.083c-0.208,0-0.368-0.396-0.479-1.19
		c-0.097-0.673-0.145-1.51-0.145-2.508c0-1.316,0.068-2.585,0.204-3.805l-1.092-0.262c-0.136,1.102-0.204,2.458-0.204,4.067
		c0,3.257,0.544,4.887,1.632,4.887c0.48,0,0.94-0.428,1.38-1.284c0.288-0.555,0.536-1.205,0.744-1.95l-1.02-0.44
		C60.568,89.487,60.432,89.954,60.248,90.478z"/>
	<path fill="#14B259" d="M74.588,91.702c-0.584-0.15-0.876-0.455-0.876-0.916c0-0.174,0.076-0.379,0.229-0.618
		c0.136-0.174,0.271-0.353,0.407-0.536l-0.852-0.594c-0.6,0.707-0.9,1.344-0.9,1.915c0,1.316,1.132,1.974,3.396,1.974
		c0.384,0,1.3-0.047,2.748-0.143l0.036-1.189c-0.921,0.151-1.836,0.226-2.748,0.226C75.38,91.822,74.9,91.781,74.588,91.702z"/>
	<path fill="#14B259" d="M74.804,84.711c-0.704,0.087-1.487,0.163-2.352,0.226c0.088-0.444,0.188-0.991,0.3-1.642l-1.164-0.19
		c-0.064,0.579-0.164,1.206-0.3,1.879c-0.688,0.04-1.4,0.063-2.136,0.071c0.056,0.5,0.096,0.863,0.12,1.094
		c0.607-0.016,1.203-0.035,1.787-0.059c-0.567,2.68-1.163,4.872-1.787,6.576l1.115,0.356c0.576-1.736,1.185-4.066,1.824-6.991
		c1.224-0.072,2.088-0.151,2.592-0.238V84.711z"/>
	<path fill="#14B259" d="M73.28,87.802c0.576-0.063,1.151-0.125,1.728-0.189c0.648-0.072,1.2-0.107,1.656-0.107
		c0.607,0,1.228,0.028,1.86,0.083v-1.082c-0.648-0.04-1.232-0.059-1.752-0.059c-0.824,0-2.005,0.091-3.54,0.273L73.28,87.802z"/>
	<path fill="#14B259" d="M84.56,91.584c-0.936-0.215-1.403-0.646-1.403-1.297c0-0.61,0.399-1.15,1.2-1.616
		c0.703-0.421,1.663-0.805,2.88-1.154c1.008-0.262,2.016-0.528,3.023-0.797l-0.348-1.105c-1.968,0.515-3.34,0.908-4.116,1.177
		c-0.16-1.261-0.24-2.43-0.24-3.508l-1.151,0.036c0,0.999,0.096,2.303,0.288,3.912c-1.769,0.793-2.652,1.812-2.652,3.056
		c0,1.095,0.568,1.836,1.704,2.224c0.672,0.238,1.672,0.357,3,0.357c0.672,0,1.868-0.063,3.588-0.191l0.084-1.201
		c-1.8,0.183-3.021,0.274-3.66,0.274C85.764,91.75,85.032,91.694,84.56,91.584z"/>
	<polygon fill="#14B259" points="93.584,86.256 95,86.256 95,85.15 93.5,85.15 	"/>
	<path fill="#14B259" d="M94.196,90.395c0,0.69,0.271,1.234,0.804,1.637v-3.345C94.475,89.109,94.196,89.673,94.196,90.395z"/>
	<path fill="#14B259" d="M5.276,99.456C4.972,99.1,4.479,98.921,3.8,98.921c-0.968,0-2.18,0.682-3.636,2.045v-0.558
		c0.319-0.238,0.607-0.413,0.864-0.524c-0.225-0.341-0.393-0.583-0.504-0.726L0.2,99.183l0.06-1.808L0,97.355V102h0.594
		c1.271-1.321,2.33-1.985,3.17-1.985c0.32,0,0.528,0.083,0.624,0.25c0.08,0.136,0.12,0.385,0.12,0.749
		c0,0.256-0.024,0.589-0.067,0.986h1.179c0.05-0.423,0.077-0.777,0.077-1.046C5.696,100.28,5.556,99.781,5.276,99.456z"/>
	<path fill="#14B259" d="M13.352,101.597c1.225-1.039,2.164-1.827,2.82-2.366c0.304-0.127,0.456-0.27,0.456-0.429
		c0-0.11-0.256-0.413-0.768-0.904c-0.177,0.072-0.297,0.124-0.36,0.155l-4.656,0.083l0.024,1.13c0.823,0,2.067-0.043,3.731-0.132
		c-1.312,1.144-2.407,2.094-3.3,2.866h5.548c-0.601-0.414-1.308-0.629-2.128-0.629C14.288,101.371,13.832,101.445,13.352,101.597z"
		/>
	<path fill="#14B259" d="M24.356,101.466c0.231,0.174,0.448,0.353,0.657,0.534h1.478c-0.42-0.424-0.876-0.808-1.367-1.153
		L24.356,101.466z"/>
	<polygon fill="#14B259" points="39.776,101.978 39.776,100.776 41.42,100.776 41.42,99.849 39.776,99.849 39.776,98.826 
		38.744,98.826 38.744,99.849 37.196,99.849 37.196,100.776 38.744,100.776 38.744,101.978 37.616,101.978 37.616,102 40.952,102 
		40.952,101.978 	"/>
	<path fill="#14B259" d="M35.6,97.387l-0.983-0.428c-0.32,1.134-0.656,1.998-1.008,2.592c-0.345,0.659-0.74,1.296-1.188,1.915
		L32.572,102h0.781c0.14-0.194,0.292-0.388,0.423-0.582V102h1.031v-2.413C35.08,98.968,35.344,98.235,35.6,97.387z"/>
	<polygon fill="#14B259" points="35.792,97.518 35.792,102 36.872,102 36.872,98.445 41.792,98.445 41.792,102 42.872,102 
		42.872,97.518 	"/>
	<path fill="#14B259" d="M50.6,96.875h-1.308v2.83c-0.021,0.753-0.193,1.518-0.487,2.294h2.515c-0.285-0.693-0.526-1.455-0.72-2.294
		V96.875z"/>
	<path fill="#14B259" d="M62.732,100.051l-0.036-1.07c-0.616,0.055-1.309,0.107-2.076,0.154c0.151-0.538,0.28-1.03,0.384-1.474
		L59.9,97.375c-0.129,0.594-0.28,1.201-0.456,1.819c-0.576,0.016-1.248,0.023-2.017,0.023v1.094c0.561,0,1.124-0.011,1.692-0.036
		c-0.19,0.614-0.383,1.181-0.577,1.724h1.183c0.196-0.564,0.391-1.155,0.582-1.783C61.34,100.17,62.147,100.114,62.732,100.051z"/>
	<path fill="#14B259" d="M63.224,99.373c1.2,0.556,2.28,1.229,3.24,2.022l0.624-0.952c-1.168-0.872-2.272-1.542-3.312-2.009
		L63.224,99.373z"/>
	<path fill="#14B259" d="M63.452,101.109c0.023,0.311,0.044,0.606,0.063,0.891h1.12c-0.019-0.355-0.037-0.685-0.056-0.963
		L63.452,101.109z"/>
	<path fill="#14B259" d="M70.124,98.064c-0.132,1.071-0.199,2.387-0.202,3.936h1.094c0.004-1.268,0.069-2.494,0.2-3.674
		L70.124,98.064z"/>
	<path fill="#14B259" d="M76.088,98.434c0.356,0.953,0.641,2.148,0.857,3.566h1.126c-0.229-1.569-0.53-2.864-0.915-3.864
		L76.088,98.434z"/>
	<path fill="#14B259" d="M83.144,97.506c-0.068,1.872-0.119,3.369-0.153,4.494h1.138l0.192-4.494H83.144z"/>
	<path fill="#14B259" d="M92.504,100.217l0.804,0.975c0.192-0.182,0.38-0.388,0.564-0.617V102h1.08v-0.154H95v-0.796h-0.048v-0.642
		H95V99.61h-0.048v-0.546c0.013-0.025,0.03-0.055,0.048-0.086v-2.131l-0.096-0.02C94.36,98.064,93.56,99.194,92.504,100.217z"/>
</g>
</svg>
