<?xml version="1.0" encoding="utf-8"?>
<!-- Generator: Adobe Illustrator 16.0.0, SVG Export Plug-In . SVG Version: 6.00 Build 0)  -->
<!DOCTYPE svg PUBLIC "-//W3C//DTD SVG 1.1//EN" "http://www.w3.org/Graphics/SVG/1.1/DTD/svg11.dtd">
<svg version="1.1" id="Layer_1" xmlns="http://www.w3.org/2000/svg" xmlns:xlink="http://www.w3.org/1999/xlink" x="0px" y="0px"
	 width="95px" height="95px" viewBox="0 0 95 95" enable-background="new 0 0 95 95" xml:space="preserve">
<g>
	<polygon fill="#A11C3E" points="0,0 0,47.769 1.249,47.769 2.496,50.117 3.745,47.769 6.243,47.769 7.492,50.117 8.741,47.769 
		11.24,47.769 12.49,50.117 13.738,47.769 16.236,47.769 17.484,50.117 18.734,47.769 21.234,47.769 22.484,50.117 23.733,47.769 
		26.23,47.769 27.48,50.117 28.729,47.769 31.229,47.769 32.479,50.117 33.729,47.769 36.228,47.769 37.478,50.117 38.728,47.769 
		41.225,47.769 42.474,50.117 43.721,47.769 46.215,47.769 47.463,50.117 48.714,47.769 51.213,47.769 52.462,50.117 53.71,47.769 
		56.208,47.769 57.458,50.117 58.708,47.769 61.208,47.769 62.458,50.117 63.709,47.769 66.209,47.769 67.459,50.117 68.711,47.769 
		71.213,47.769 72.464,50.117 73.715,47.769 76.217,47.769 77.469,50.117 78.717,47.769 81.218,47.769 82.468,50.117 83.72,47.769 
		86.224,47.769 87.477,50.117 88.729,47.769 91.236,47.769 92.491,50.117 93.746,47.769 95,47.769 95,0 	"/>
	<polygon fill="#B51E55" points="92.491,50.117 91.236,47.769 88.729,47.769 87.477,50.117 86.224,47.769 83.72,47.769 
		82.468,50.117 81.218,47.769 78.717,47.769 77.469,50.117 76.217,47.769 73.715,47.769 72.464,50.117 71.213,47.769 68.711,47.769 
		67.459,50.117 66.209,47.769 63.709,47.769 62.458,50.117 61.208,47.769 58.708,47.769 57.458,50.117 56.208,47.769 53.71,47.769 
		52.462,50.117 51.213,47.769 48.714,47.769 47.463,50.117 46.215,47.769 43.721,47.769 42.474,50.117 41.225,47.769 38.728,47.769 
		37.478,50.117 36.228,47.769 33.729,47.769 32.479,50.117 31.229,47.769 28.729,47.769 27.48,50.117 26.23,47.769 23.733,47.769 
		22.484,50.117 21.234,47.769 18.734,47.769 17.484,50.117 16.236,47.769 13.738,47.769 12.49,50.117 11.24,47.769 8.741,47.769 
		7.492,50.117 6.243,47.769 3.745,47.769 2.496,50.117 1.249,47.769 0,47.769 0,95 95,95 95,47.769 93.746,47.769 	"/>
</g>
<polygon fill="#B51E55" points="11.518,41.993 10.599,41.436 10.135,42.4 9.882,41.361 8.867,41.717 9.428,40.805 8.457,40.343 
	9.503,40.092 9.145,39.084 10.062,39.641 10.527,38.676 10.78,39.716 11.795,39.36 11.234,40.272 12.205,40.734 11.159,40.984 "/>
<polygon fill="#B51E55" points="70.854,38.231 69.893,37.649 69.408,38.657 69.144,37.571 68.082,37.943 68.669,36.989 
	67.653,36.507 68.747,36.244 68.372,35.189 69.333,35.772 69.818,34.764 70.083,35.851 71.144,35.479 70.558,36.433 71.572,36.915 
	70.479,37.177 "/>
<polygon fill="#B51E55" points="66.354,17.621 65.389,17.036 64.901,18.049 64.636,16.957 63.569,17.331 64.159,16.373 
	63.138,15.888 64.237,15.624 63.861,14.564 64.826,15.149 65.314,14.136 65.58,15.228 66.646,14.854 66.057,15.812 67.077,16.298 
	65.979,16.562 "/>
<polygon fill="#B51E55" points="19.626,29.641 18.551,28.988 18.008,30.118 17.712,28.901 16.524,29.317 17.181,28.25 16.044,27.71 
	17.269,27.416 16.849,26.236 17.924,26.888 18.468,25.759 18.764,26.975 19.951,26.559 19.295,27.626 20.432,28.167 19.207,28.46 
	"/>
<polygon fill="#B51E55" points="80.851,30.784 79.996,30.267 79.564,31.163 79.33,30.197 78.387,30.528 78.908,29.68 78.006,29.251 
	78.979,29.018 78.645,28.081 79.498,28.598 79.93,27.702 80.165,28.667 81.108,28.336 80.587,29.185 81.489,29.614 80.518,29.847 
	"/>
<polygon fill="#B51E55" points="88.795,42.614 88.284,42.305 88.026,42.84 87.886,42.263 87.321,42.461 87.634,41.954 
	87.094,41.698 87.675,41.558 87.476,40.998 87.986,41.308 88.244,40.771 88.385,41.349 88.949,41.151 88.638,41.658 89.177,41.915 
	88.596,42.054 "/>
<polygon fill="#B51E55" points="74.925,6.467 74.568,6.251 74.389,6.625 74.29,6.222 73.896,6.36 74.114,6.006 73.737,5.827 
	74.144,5.729 74.004,5.338 74.36,5.555 74.541,5.18 74.639,5.584 75.033,5.446 74.815,5.8 75.191,5.979 74.786,6.076 "/>
<polygon fill="#B51E55" points="48.736,9.538 48.156,9.187 47.864,9.795 47.705,9.14 47.064,9.364 47.418,8.789 46.806,8.498 
	47.466,8.339 47.239,7.704 47.818,8.055 48.111,7.446 48.271,8.102 48.911,7.877 48.558,8.453 49.17,8.744 48.511,8.902 "/>
<polygon fill="#B51E55" points="8.48,5.873 7.895,5.517 7.599,6.133 7.437,5.47 6.789,5.697 7.147,5.115 6.527,4.82 7.195,4.661 
	6.967,4.016 7.553,4.372 7.849,3.756 8.01,4.42 8.658,4.193 8.301,4.775 8.92,5.07 8.252,5.229 "/>
<polygon fill="#B51E55" points="31.972,9.487 30.631,8.674 29.953,10.082 29.584,8.565 28.103,9.084 28.922,7.753 27.504,7.08 
	29.031,6.713 28.508,5.241 29.849,6.054 30.526,4.646 30.896,6.164 32.377,5.644 31.559,6.976 32.976,7.649 31.449,8.016 "/>
<polygon fill="#B51E55" points="15.419,15.233 14.368,14.595 13.837,15.699 13.548,14.509 12.387,14.917 13.028,13.873 
	11.917,13.345 13.114,13.058 12.704,11.904 13.755,12.542 14.286,11.438 14.575,12.627 15.737,12.22 15.096,13.264 16.206,13.792 
	15.01,14.079 "/>
<polygon fill="#B51E55" points="7.513,23.623 6.935,23.272 6.643,23.879 6.484,23.226 5.846,23.449 6.198,22.876 5.588,22.586 
	6.246,22.428 6.021,21.793 6.598,22.144 6.89,21.537 7.049,22.191 7.688,21.967 7.335,22.541 7.945,22.832 7.287,22.989 "/>
<polygon fill="#B51E55" points="85.389,16.459 84.525,15.936 84.089,16.842 83.852,15.866 82.897,16.2 83.425,15.343 82.512,14.91 
	83.495,14.673 83.158,13.726 84.021,14.25 84.458,13.343 84.695,14.319 85.649,13.985 85.122,14.843 86.034,15.276 85.052,15.512 
	"/>
<polygon fill="#B51E55" points="33.213,21.547 32.627,21.191 32.331,21.807 32.169,21.144 31.521,21.371 31.88,20.789 31.26,20.494 
	31.928,20.334 31.699,19.691 32.285,20.046 32.581,19.43 32.742,20.094 33.391,19.867 33.033,20.449 33.652,20.744 32.984,20.903 
	"/>
</svg>
