<?xml version="1.0" encoding="utf-8"?>
<!-- Generator: Adobe Illustrator 16.0.0, SVG Export Plug-In . SVG Version: 6.00 Build 0)  -->
<!DOCTYPE svg PUBLIC "-//W3C//DTD SVG 1.1//EN" "http://www.w3.org/Graphics/SVG/1.1/DTD/svg11.dtd">
<svg version="1.1" id="Layer_1" xmlns="http://www.w3.org/2000/svg" xmlns:xlink="http://www.w3.org/1999/xlink" x="0px" y="0px"
	 width="95px" height="93px" viewBox="0 0 95 93" enable-background="new 0 0 95 93" xml:space="preserve">
<rect id="lucht" fill="#5BA2C9" width="95" height="93"/>
<g>
	<polygon fill="none" points="47.562,53.523 65.563,20.736 76.948,0 57.527,0 52.646,26.183 47.625,53.105 42.605,26.183 37.724,0 
		18.177,0 29.562,20.736 	"/>
	<polygon fill="none" points="84.363,46.194 47.626,53.883 10.889,46.194 0,43.914 0,93 95,93 95,43.967 	"/>
	<polygon fill="none" points="47.626,53.883 81.01,36.729 95,29.541 95,4.69 73.64,26.702 47.58,53.555 47.625,53.637 
		47.562,53.572 47.5,53.637 47.545,53.555 21.485,26.702 0,4.561 0,29.411 14.242,36.729 	"/>
	<polygon fill="#97D6F5" points="47.625,53.105 52.646,26.183 57.527,0 37.724,0 42.605,26.183 	"/>
	<polygon fill="#97D6F5" points="47.545,53.555 47.5,53.637 47.562,53.572 47.625,53.637 47.58,53.555 73.64,26.702 95,4.69 95,0 
		76.948,0 65.563,20.736 47.562,53.523 29.562,20.736 18.177,0 0,0 0,4.561 21.485,26.702 	"/>
	<polygon fill="#97D6F5" points="47.626,53.883 84.363,46.194 95,43.967 95,29.541 81.01,36.729 	"/>
	<polygon fill="#97D6F5" points="47.626,53.883 14.242,36.729 0,29.411 0,43.914 10.889,46.194 	"/>
</g>
</svg>
