<?xml version="1.0" encoding="utf-8"?>
<!-- Generator: Adobe Illustrator 16.0.0, SVG Export Plug-In . SVG Version: 6.00 Build 0)  -->
<!DOCTYPE svg PUBLIC "-//W3C//DTD SVG 1.1//EN" "http://www.w3.org/Graphics/SVG/1.1/DTD/svg11.dtd">
<svg version="1.1" id="Layer_1" xmlns="http://www.w3.org/2000/svg" xmlns:xlink="http://www.w3.org/1999/xlink" x="0px" y="0px"
	 width="95px" height="100px" viewBox="0 0 95 100" enable-background="new 0 0 95 100" xml:space="preserve">
<rect id="back" fill="#8ABBE5" width="95" height="100"/>
<path fill="#A1C6E4" d="M85.472,13.599H85V23.88v2.322v9.121h10V7.96h-0.576C94.424,13.19,85.646,13.592,85.472,13.599z"/>
<path fill="#A1C6E4" d="M85,26.203V23.88V13.599h-0.473c-0.175-0.007-8.951-0.409-8.951-5.639h-0.959
	c0,5.208-8.698,5.628-8.944,5.639c-0.247-0.01-8.945-0.431-8.945-5.639H55.77c0,4.926-7.795,5.569-8.845,5.633
	c-1.052-0.064-8.846-0.708-8.846-5.633H37.12c0,5.208-8.698,5.628-8.944,5.639c-0.246-0.01-8.945-0.431-8.945-5.639h-0.958
	c0,5.208-8.698,5.628-8.945,5.639c-0.246-0.01-8.944-0.431-8.944-5.639H0v27.363h85V26.203z M22.81,13.599
	c-0.111-0.075-0.225-0.15-0.332-0.229c0.192,0.081,0.385,0.158,0.58,0.229H22.81z"/>
<g>
	<path fill="#C1D6E6" d="M33.058,30.515c-0.195-0.071-0.388-0.149-0.58-0.229c0.107,0.079,0.221,0.154,0.332,0.229H33.058z"/>
	<path fill="#C1D6E6" d="M94.527,30.515c-0.175-0.007-8.951-0.409-8.951-5.639h-0.959c0,5.208-8.698,5.628-8.944,5.639
		c-0.247-0.01-8.945-0.431-8.945-5.639H65.77c0,4.926-7.795,5.569-8.845,5.633c-1.052-0.064-8.846-0.708-8.846-5.633H47.12
		c0,5.208-8.698,5.628-8.944,5.639c-0.246-0.01-8.945-0.431-8.945-5.639h-0.958c0,5.208-8.698,5.628-8.945,5.639
		c-0.246-0.01-8.944-0.431-8.944-5.639H9.424c0,5.23-8.777,5.632-8.952,5.639H0v10.281v2.322v9.121h95v-9.121v-2.322V30.515H94.527z
		 M33.058,30.515H32.81c-0.111-0.076-0.225-0.15-0.332-0.229C32.67,30.366,32.862,30.443,33.058,30.515z"/>
</g>
<path fill="#8ABBE5" d="M85.472,45.44H85v10.281v2.323v9.12h10V39.801h-0.576C94.424,45.031,85.646,45.433,85.472,45.44z"/>
<path fill="#8ABBE5" d="M85,58.044v-2.323V45.44h-0.473c-0.175-0.007-8.951-0.409-8.951-5.639h-0.959
	c0,5.208-8.698,5.628-8.944,5.639c-0.247-0.01-8.945-0.431-8.945-5.639H55.77c0,4.926-7.795,5.569-8.845,5.633
	c-1.052-0.064-8.846-0.708-8.846-5.633H37.12c0,5.208-8.698,5.628-8.944,5.639c-0.246-0.01-8.945-0.431-8.945-5.639h-0.958
	c0,5.208-8.698,5.628-8.945,5.639c-0.246-0.01-8.944-0.431-8.944-5.639H0v27.363h85V58.044z M22.81,45.44
	c-0.111-0.076-0.225-0.15-0.332-0.229c0.192,0.081,0.385,0.158,0.58,0.229H22.81z"/>
<g>
	<path fill="none" d="M9.327,78.274c0.247-0.009,8.945-0.43,8.945-5.638h0.958c0,5.208,8.699,5.628,8.945,5.638
		c0.246-0.009,8.944-0.43,8.944-5.638h0.959c0,4.926,7.794,5.569,8.846,5.633c1.05-0.064,8.845-0.708,8.845-5.633h0.958
		c0,5.208,8.698,5.628,8.945,5.638c0.246-0.009,8.944-0.43,8.944-5.638h0.959c0,5.23,8.776,5.632,8.951,5.639H85h0.472
		c0.175-0.006,8.952-0.409,8.952-5.639H95v-5.473H85H0v5.473h0.383C0.383,77.844,9.081,78.265,9.327,78.274z"/>
	<path fill="none" d="M9.327,13.599c0.247-0.01,8.945-0.431,8.945-5.639h0.958c0,5.208,8.699,5.628,8.945,5.639
		c0.246-0.01,8.944-0.431,8.944-5.639h0.959c0,4.926,7.794,5.569,8.846,5.633c1.05-0.064,8.845-0.708,8.845-5.633h0.958
		c0,5.208,8.698,5.628,8.945,5.639c0.246-0.01,8.944-0.431,8.944-5.639h0.959c0,5.23,8.776,5.632,8.951,5.639H85h0.472
		c0.175-0.007,8.952-0.409,8.952-5.639H95V0H0v7.96h0.383C0.383,13.167,9.081,13.588,9.327,13.599z"/>
	<path fill="none" d="M9.327,45.439c0.247-0.01,8.945-0.431,8.945-5.639h0.958c0,5.208,8.699,5.628,8.945,5.639
		c0.246-0.01,8.944-0.431,8.944-5.639h0.959c0,4.926,7.794,5.569,8.846,5.633c1.05-0.064,8.845-0.708,8.845-5.633h0.958
		c0,5.208,8.698,5.628,8.945,5.639c0.246-0.01,8.944-0.431,8.944-5.639h0.959c0,5.23,8.776,5.632,8.951,5.639H85h0.472
		c0.175-0.007,8.952-0.409,8.952-5.639H95v-4.478H85H0v4.478h0.383C0.383,45.008,9.081,45.429,9.327,45.439z"/>
	<path fill="#A1C6E4" d="M22.81,13.599h0.248c-0.195-0.071-0.388-0.149-0.58-0.229C22.585,13.449,22.698,13.524,22.81,13.599z"/>
	<path fill="#8ABBE5" d="M22.81,45.44h0.248c-0.195-0.071-0.388-0.149-0.58-0.229C22.585,45.29,22.698,45.364,22.81,45.44z"/>
	<path fill="#C1D6E6" d="M22.81,78.275h0.248c-0.195-0.071-0.388-0.148-0.58-0.229C22.585,78.125,22.698,78.201,22.81,78.275z"/>
</g>
<g>
	<path fill="#A1C6E4" d="M33.058,61.36c-0.195-0.071-0.388-0.149-0.58-0.229c0.107,0.079,0.221,0.154,0.332,0.229H33.058z"/>
	<path fill="#A1C6E4" d="M94.527,61.36c-0.175-0.007-8.951-0.409-8.951-5.639h-0.959c0,5.208-8.698,5.628-8.944,5.638
		c-0.247-0.01-8.945-0.431-8.945-5.638H65.77c0,4.926-7.795,5.569-8.845,5.633c-1.052-0.064-8.846-0.708-8.846-5.633H47.12
		c0,5.208-8.698,5.628-8.944,5.638c-0.246-0.01-8.945-0.431-8.945-5.638h-0.958c0,5.208-8.698,5.628-8.945,5.638
		c-0.246-0.01-8.944-0.431-8.944-5.638H9.424c0,5.23-8.777,5.632-8.952,5.639H0v10.281v2.323v9.12h95v-9.12v-2.323V61.36H94.527z
		 M33.058,61.36H32.81c-0.111-0.075-0.225-0.151-0.332-0.229C32.67,61.211,32.862,61.289,33.058,61.36z"/>
</g>
<g>
	<path fill="none" d="M0,0v93.947h0.472c0.175-0.007,8.952-0.409,8.952-5.639h0.959c0,5.207,8.698,5.628,8.944,5.638
		c0.247-0.01,8.945-0.431,8.945-5.638h0.958c0,5.207,8.699,5.628,8.945,5.638c0.246-0.01,8.944-0.431,8.944-5.638h0.959
		c0,4.925,7.794,5.569,8.846,5.633c1.05-0.064,8.845-0.708,8.845-5.633h0.958c0,5.207,8.698,5.628,8.945,5.638
		c0.246-0.01,8.944-0.431,8.944-5.638h0.959c0,5.229,8.776,5.632,8.951,5.639H95V0H0z"/>
	<path fill="#2564AF" d="M32.81,93.947h0.248c-0.195-0.071-0.388-0.148-0.58-0.229C32.585,93.797,32.698,93.873,32.81,93.947z"/>
</g>
<g id="tweede">
	<path fill="#C1D6E6" d="M94.424,72.637c0,5.23-8.777,5.632-8.952,5.639H85v10.282v2.322V100h10V72.637H94.424z"/>
	<path fill="#C1D6E6" d="M85,88.557V78.275h-0.473c-0.175-0.006-8.951-0.409-8.951-5.639h-0.959c0,5.208-8.698,5.628-8.944,5.638
		c-0.247-0.009-8.945-0.43-8.945-5.638H55.77c0,4.926-7.795,5.569-8.845,5.633c-1.052-0.064-8.846-0.708-8.846-5.633H37.12
		c0,5.208-8.698,5.628-8.944,5.638c-0.246-0.009-8.945-0.43-8.945-5.638h-0.958c0,5.208-8.698,5.628-8.945,5.638
		c-0.246-0.009-8.944-0.43-8.944-5.638H0V100h85v-9.121V88.557z M22.81,78.275c-0.111-0.075-0.225-0.15-0.332-0.229
		c0.192,0.081,0.385,0.158,0.58,0.229H22.81z"/>
</g>
<path fill="#8ABBE5" d="M85.576,88.309h-0.959c0,5.207-8.698,5.628-8.944,5.638c-0.247-0.01-8.945-0.431-8.945-5.638H65.77
	c0,4.925-7.795,5.569-8.845,5.633c-1.052-0.064-8.846-0.708-8.846-5.633H47.12c0,5.207-8.698,5.628-8.944,5.638
	c-0.246-0.01-8.945-0.431-8.945-5.638h-0.958c0,5.207-8.698,5.628-8.945,5.638c-0.246-0.01-8.944-0.431-8.944-5.638H9.424
	c0,5.229-8.777,5.632-8.952,5.639H0V100h95v-6.053h-0.473C94.353,93.94,85.576,93.538,85.576,88.309z M32.81,93.947
	c-0.111-0.075-0.225-0.15-0.332-0.229c0.192,0.081,0.385,0.159,0.58,0.229H32.81z"/>
</svg>
