<?xml version="1.0" encoding="utf-8"?>
<!-- Generator: Adobe Illustrator 16.0.0, SVG Export Plug-In . SVG Version: 6.00 Build 0)  -->
<!DOCTYPE svg PUBLIC "-//W3C//DTD SVG 1.1//EN" "http://www.w3.org/Graphics/SVG/1.1/DTD/svg11.dtd">
<svg version="1.1" id="Layer_1" xmlns="http://www.w3.org/2000/svg" xmlns:xlink="http://www.w3.org/1999/xlink" x="0px" y="0px"
	 width="95px" height="102px" viewBox="0 0 95 102" enable-background="new 0 0 95 102" xml:space="preserve">
<pattern  width="144" height="144" patternUnits="userSpaceOnUse" id="New_Pattern_5" viewBox="27 -171 144 144" overflow="visible">
	<g>
		<polygon fill="none" points="27,-171 171,-171 171,-27 27,-27 		"/>
		<g>
			<path fill="#AC3F24" d="M198-54V0h-54v-54H198z M193.38-27c0-12.361-10.02-22.38-22.38-22.38S148.62-39.361,148.62-27
				S158.64-4.62,171-4.62S193.38-14.639,193.38-27z"/>
		</g>
		<g>
			<path fill="#AC3F24" d="M54-54V0H0v-54H54z M49.38-27c0-12.361-10.02-22.38-22.38-22.38S4.62-39.361,4.62-27S14.64-4.62,27-4.62
				S49.38-14.639,49.38-27z"/>
			<path fill="#AC3F24" d="M198-54V0h-54v-54H198z M193.38-27c0-12.361-10.02-22.38-22.38-22.38S148.62-39.361,148.62-27
				S158.64-4.62,171-4.62S193.38-14.639,193.38-27z"/>
			<path fill="#AC3F24" d="M126-54V0H72v-54H126z M121.38-27c0-12.361-10.02-22.38-22.38-22.38S76.62-39.361,76.62-27
				S86.64-4.62,99-4.62S121.38-14.639,121.38-27z"/>
		</g>
		<g>
			<path fill="#AC3F24" d="M54-54V0H0v-54H54z M49.38-27c0-12.361-10.02-22.38-22.38-22.38S4.62-39.361,4.62-27S14.64-4.62,27-4.62
				S49.38-14.639,49.38-27z"/>
		</g>
		<g>
			<path fill="#AC3F24" d="M198-198v54h-54v-54H198z M193.38-171c0-12.361-10.02-22.38-22.38-22.38s-22.38,10.019-22.38,22.38
				s10.02,22.38,22.38,22.38S193.38-158.639,193.38-171z"/>
			<path fill="#AC3F24" d="M198-54V0h-54v-54H198z M193.38-27c0-12.361-10.02-22.38-22.38-22.38S148.62-39.361,148.62-27
				S158.64-4.62,171-4.62S193.38-14.639,193.38-27z"/>
			<path fill="#AC3F24" d="M198-126v54h-54v-54H198z M193.38-99c0-12.361-10.02-22.38-22.38-22.38S148.62-111.361,148.62-99
				S158.64-76.62,171-76.62S193.38-86.639,193.38-99z"/>
		</g>
		<g>
			<path fill="#AC3F24" d="M54-198v54H0v-54H54z M49.38-171c0-12.361-10.02-22.38-22.38-22.38S4.62-183.361,4.62-171
				S14.64-148.62,27-148.62S49.38-158.639,49.38-171z"/>
			<path fill="#AC3F24" d="M126-54V0H72v-54H126z M121.38-27c0-12.361-10.02-22.38-22.38-22.38S76.62-39.361,76.62-27
				S86.64-4.62,99-4.62S121.38-14.639,121.38-27z"/>
			<path fill="#AC3F24" d="M198-198v54h-54v-54H198z M193.38-171c0-12.361-10.02-22.38-22.38-22.38s-22.38,10.019-22.38,22.38
				s10.02,22.38,22.38,22.38S193.38-158.639,193.38-171z"/>
			<path fill="#AC3F24" d="M54-54V0H0v-54H54z M49.38-27c0-12.361-10.02-22.38-22.38-22.38S4.62-39.361,4.62-27S14.64-4.62,27-4.62
				S49.38-14.639,49.38-27z"/>
			<path fill="#AC3F24" d="M126-198v54H72v-54H126z M121.38-171c0-12.361-10.02-22.38-22.38-22.38S76.62-183.361,76.62-171
				S86.64-148.62,99-148.62S121.38-158.639,121.38-171z"/>
			<path fill="#AC3F24" d="M198-54V0h-54v-54H198z M193.38-27c0-12.361-10.02-22.38-22.38-22.38S148.62-39.361,148.62-27
				S158.64-4.62,171-4.62S193.38-14.639,193.38-27z"/>
			<path fill="#AC3F24" d="M54-126v54H0v-54H54z M49.38-99c0-12.361-10.02-22.38-22.38-22.38S4.62-111.361,4.62-99
				S14.64-76.62,27-76.62S49.38-86.639,49.38-99z"/>
			<path fill="#AC3F24" d="M198-126v54h-54v-54H198z M193.38-99c0-12.361-10.02-22.38-22.38-22.38S148.62-111.361,148.62-99
				S158.64-76.62,171-76.62S193.38-86.639,193.38-99z"/>
			<path fill="#AC3F24" d="M126-126v54H72v-54H126z M121.38-99c0-12.361-10.02-22.38-22.38-22.38S76.62-111.361,76.62-99
				S86.64-76.62,99-76.62S121.38-86.639,121.38-99z"/>
		</g>
		<g>
			<path fill="#AC3F24" d="M54-198v54H0v-54H54z M49.38-171c0-12.361-10.02-22.38-22.38-22.38S4.62-183.361,4.62-171
				S14.64-148.62,27-148.62S49.38-158.639,49.38-171z"/>
			<path fill="#AC3F24" d="M54-54V0H0v-54H54z M49.38-27c0-12.361-10.02-22.38-22.38-22.38S4.62-39.361,4.62-27S14.64-4.62,27-4.62
				S49.38-14.639,49.38-27z"/>
			<path fill="#AC3F24" d="M54-126v54H0v-54H54z M49.38-99c0-12.361-10.02-22.38-22.38-22.38S4.62-111.361,4.62-99
				S14.64-76.62,27-76.62S49.38-86.639,49.38-99z"/>
		</g>
		<g>
			<path fill="#AC3F24" d="M198-198v54h-54v-54H198z M193.38-171c0-12.361-10.02-22.38-22.38-22.38s-22.38,10.019-22.38,22.38
				s10.02,22.38,22.38,22.38S193.38-158.639,193.38-171z"/>
		</g>
		<g>
			<path fill="#AC3F24" d="M126-198v54H72v-54H126z M121.38-171c0-12.361-10.02-22.38-22.38-22.38S76.62-183.361,76.62-171
				S86.64-148.62,99-148.62S121.38-158.639,121.38-171z"/>
			<path fill="#AC3F24" d="M54-198v54H0v-54H54z M49.38-171c0-12.361-10.02-22.38-22.38-22.38S4.62-183.361,4.62-171
				S14.64-148.62,27-148.62S49.38-158.639,49.38-171z"/>
			<path fill="#AC3F24" d="M198-198v54h-54v-54H198z M193.38-171c0-12.361-10.02-22.38-22.38-22.38s-22.38,10.019-22.38,22.38
				s10.02,22.38,22.38,22.38S193.38-158.639,193.38-171z"/>
		</g>
		<g>
			<path fill="#AC3F24" d="M54-198v54H0v-54H54z M49.38-171c0-12.361-10.02-22.38-22.38-22.38S4.62-183.361,4.62-171
				S14.64-148.62,27-148.62S49.38-158.639,49.38-171z"/>
		</g>
	</g>
</pattern>
<rect id="background_1_" fill="#F04A23" width="95" height="102"/>
<pattern  id="background_3_" xlink:href="#New_Pattern_5" patternTransform="matrix(0.1926 0 0 0.1909 -6425.6582 -6430.0117)">
</pattern>
<rect id="background_2_" fill="url(#background_3_)" width="95" height="102"/>
</svg>
