<?xml version="1.0" encoding="utf-8"?>
<!-- Generator: Adobe Illustrator 16.0.0, SVG Export Plug-In . SVG Version: 6.00 Build 0)  -->
<!DOCTYPE svg PUBLIC "-//W3C//DTD SVG 1.1//EN" "http://www.w3.org/Graphics/SVG/1.1/DTD/svg11.dtd">
<svg version="1.1" id="Layer_1" xmlns="http://www.w3.org/2000/svg" xmlns:xlink="http://www.w3.org/1999/xlink" x="0px" y="0px"
	 width="1024px" height="1024px" viewBox="0 0 1024 1024" enable-background="new 0 0 1024 1024" xml:space="preserve">
<path fill="#FFFFFF" d="M538.629,494.96v31.692c0,0-9.017-2.535-15.716-1.246c-6,1.153-10.416,4.408-11.16,4.984v0.096
	c0,0-0.022-0.019-0.063-0.049c-0.04,0.03-0.063,0.049-0.063,0.049v-0.096c-0.744-0.576-5.159-3.83-11.158-4.984
	c-6.7-1.289-16.599,1.246-16.599,1.246v-31.786c-0.579,0.087-1.192,0.18-1.854,0.278v34.143c0,0,10.788-2.777,18.127-1.364
	c7.216,1.388,11.576,5.563,11.576,5.563s4.36-4.175,11.575-5.563c7.34-1.413,17.686,1.364,17.686,1.364v-33.995
	C540.981,495.292,540.081,495.14,538.629,494.96z M499.926,522.198c5.868,1.128,10.403,4.524,10.403,4.524v-31.181
	c0,0-4.56-3.4-10.441-4.531c-5.953-1.145-13.73,1.117-13.73,1.117v31.18C486.157,523.309,493.959,521.051,499.926,522.198z
	 M536.337,523.422v-31.18c0,0-7.129-2.263-13.079-1.117c-5.882,1.13-10.591,4.53-10.591,4.53v31.181c0,0,4.683-3.396,10.552-4.525
	C529.185,521.166,536.337,523.422,536.337,523.422z"/>
</svg>
