<?xml version="1.0" encoding="utf-8"?>
<!-- Generator: Adobe Illustrator 16.0.0, SVG Export Plug-In . SVG Version: 6.00 Build 0)  -->
<!DOCTYPE svg PUBLIC "-//W3C//DTD SVG 1.1//EN" "http://www.w3.org/Graphics/SVG/1.1/DTD/svg11.dtd">
<svg version="1.1" id="Layer_1" xmlns="http://www.w3.org/2000/svg" xmlns:xlink="http://www.w3.org/1999/xlink" x="0px" y="0px"
	 width="1024px" height="1024px" viewBox="0 0 1024 1024" enable-background="new 0 0 1024 1024" xml:space="preserve">
<g id="Your_Icon_7_">
	<path fill="#FFFFFF" d="M513.797,535.992v-15.768c2.102-0.622,3.807-1.717,4.818-3.068c0.691,0.158,1.41,0.27,2.168,0.27
		c4.127,0,7.473-2.53,7.473-5.648c0-0.395-0.055-0.779-0.156-1.151c3.379-0.757,5.879-3.324,5.879-6.405
		c0-2.876-2.178-5.302-5.213-6.235c0.004-0.061,0.021-0.12,0.021-0.183c0-3.453-3.443-6.253-7.689-6.253
		c-0.426,0-0.832,0.048-1.24,0.103c-1.393-2.771-4.555-4.71-8.24-4.71c-3.773,0-6.994,2.028-8.336,4.896
		c-0.93-0.313-1.945-0.489-3.012-0.489c-4.369,0-7.91,2.889-7.91,6.453c0,1.464,0.621,2.8,1.629,3.884
		c-2.727,1.166-4.566,3.258-4.566,5.67c0,3.675,4.232,6.656,9.451,6.656c0.361,0,0.701-0.047,1.051-0.076
		c-0.014,0.139-0.064,0.268-0.064,0.406c0,3.22,3.623,5.865,8.344,6.354v15.295H513.797z"/>
</g>
</svg>
