<?xml version="1.0" encoding="utf-8"?>
<!-- Generator: Adobe Illustrator 16.0.0, SVG Export Plug-In . SVG Version: 6.00 Build 0)  -->
<!DOCTYPE svg PUBLIC "-//W3C//DTD SVG 1.1//EN" "http://www.w3.org/Graphics/SVG/1.1/DTD/svg11.dtd">
<svg version="1.1" id="Layer_1" xmlns="http://www.w3.org/2000/svg" xmlns:xlink="http://www.w3.org/1999/xlink" x="0px" y="0px"
	 width="1024px" height="1024px" viewBox="0 0 1024 1024" enable-background="new 0 0 1024 1024" xml:space="preserve">
<path fill="#FFFFFF" d="M531.963,507.886c-0.293-1.528-1.81-2.918-3.394-3.099c-2.001-0.209-4.033-0.314-6.038-0.314
	c-2.004,0-4.033,0.105-6.047,0.314c-1.576,0.181-3.091,1.571-3.385,3.109c-0.013,0.076-0.024,0.151-0.037,0.224
	c-0.297-0.075-0.647-0.123-1.063-0.123c-0.415,0-0.766,0.047-1.063,0.123c-0.013-0.077-0.026-0.155-0.039-0.234
	c-0.293-1.528-1.808-2.918-3.392-3.099c-2.006-0.209-4.035-0.314-6.038-0.314c-2.006,0-4.035,0.105-6.047,0.314
	c-1.575,0.181-3.093,1.571-3.388,3.109c-0.441,2.481-0.441,4.995,0.005,7.485c0.29,1.529,1.808,2.92,3.392,3.102
	c2.003,0.208,4.032,0.313,6.038,0.313c2.003,0,4.032-0.105,6.047-0.316c1.575-0.179,3.09-1.569,3.386-3.107
	c0.32-1.788,0.406-3.596,0.264-5.397c0.125-0.065,0.377-0.151,0.835-0.151s0.71,0.086,0.835,0.151
	c-0.142,1.799-0.054,3.609,0.267,5.406c0.293,1.529,1.808,2.92,3.392,3.102c2.006,0.208,4.035,0.313,6.039,0.313
	c2.005,0,4.037-0.105,6.047-0.316c1.575-0.179,3.092-1.569,3.387-3.107C532.408,512.893,532.408,510.377,531.963,507.886z
	 M509.104,515.041c-0.141,0.731-1.029,1.536-1.787,1.625c-1.94,0.201-3.908,0.303-5.849,0.303s-3.908-0.102-5.841-0.303
	c-0.766-0.089-1.657-0.894-1.794-1.615c-0.405-2.268-0.405-4.565-0.003-6.821c0.14-0.734,1.031-1.539,1.788-1.625
	c1.941-0.203,3.909-0.306,5.85-0.306c1.939,0,3.908,0.103,5.84,0.303c0.767,0.088,1.655,0.893,1.793,1.616
	C509.506,510.485,509.506,512.783,509.104,515.041z M530.166,515.041c-0.138,0.731-1.028,1.536-1.786,1.625
	c-1.941,0.201-3.907,0.303-5.849,0.303c-1.938,0-3.908-0.102-5.84-0.303c-0.767-0.089-1.656-0.894-1.793-1.615
	c-0.404-2.268-0.404-4.565-0.003-6.821c0.14-0.734,1.029-1.539,1.786-1.625c1.941-0.203,3.908-0.306,5.85-0.306
	s3.907,0.103,5.84,0.303c0.767,0.088,1.657,0.893,1.795,1.616C530.57,510.485,530.57,512.783,530.166,515.041z"/>
</svg>
