<?xml version="1.0" encoding="utf-8"?>
<!-- Generator: Adobe Illustrator 16.0.0, SVG Export Plug-In . SVG Version: 6.00 Build 0)  -->
<!DOCTYPE svg PUBLIC "-//W3C//DTD SVG 1.1//EN" "http://www.w3.org/Graphics/SVG/1.1/DTD/svg11.dtd">
<svg version="1.1" id="Layer_1" xmlns="http://www.w3.org/2000/svg" xmlns:xlink="http://www.w3.org/1999/xlink" x="0px" y="0px"
	 width="1024px" height="1024px" viewBox="0 0 1024 1024" enable-background="new 0 0 1024 1024" xml:space="preserve">
<path fill="#FFFFFF" d="M159.999,68.512c-9.927,0-17.999,7.973-17.999,18c0,10.499,9.001,21.239,15.563,28.788
	c0.024,0.029,1.077,1.207,2.379,1.207c0.003,0,0.109,0,0.115,0c1.301,0,2.355-1.177,2.379-1.207
	C169.001,107.751,178,97.011,178,86.512C178,76.485,169.926,68.512,159.999,68.512z M157.467,84.121L160,76.324l2.533,7.796h7.869
	l-6.241,4.772l0,0l-0.063,0.045l2.431,7.485l0,0L160,91.916l-6.53,4.507l2.432-7.485l-0.063-0.045l0,0l-6.24-4.772H157.467z"/>
<path fill="#FFFFFF" d="M159.999,68.512c-9.927,0-17.999,7.973-17.999,18c0,10.499,9.001,21.239,15.563,28.788
	c0.024,0.029,1.077,1.207,2.379,1.207c0.003,0,0.109,0,0.115,0c1.301,0,2.355-1.177,2.379-1.207
	C169.001,107.751,178,97.011,178,86.512C178,76.485,169.926,68.512,159.999,68.512z M157.467,84.121L160,76.324l2.533,7.796h7.869
	l-6.241,4.772l0,0l-0.063,0.045l2.431,7.485l0,0L160,91.916l-6.53,4.507l2.432-7.485l-0.063-0.045l0,0l-6.24-4.772H157.467z"/>
</svg>
