<?xml version="1.0" encoding="utf-8"?>
<!-- Generator: Adobe Illustrator 16.0.0, SVG Export Plug-In . SVG Version: 6.00 Build 0)  -->
<!DOCTYPE svg PUBLIC "-//W3C//DTD SVG 1.1//EN" "http://www.w3.org/Graphics/SVG/1.1/DTD/svg11.dtd">
<svg version="1.1" id="Layer_1" xmlns="http://www.w3.org/2000/svg" xmlns:xlink="http://www.w3.org/1999/xlink" x="0px" y="0px"
	 width="95px" height="84px" viewBox="0 0 95 84" enable-background="new 0 0 95 84" xml:space="preserve">
<path fill="#5BA2C9" d="M0,52.108c0,0,6.185-2.736,6.164-3.497c0.737-0.76,2.314-0.301,2.082-1.539
	c0.623,0.218,8.331-4.412,8.633-6.762c1.063,0.237,7.456-4.063,6.975-5.034c0.801-0.113,1.828-0.67,2.005-2.158
	c0.734-0.871,1.076-2.188,1.021-3.529c-0.055-1.341,1.075-2.577,1.075-2.577s1.115-4.525,1.689-4.754
	c-0.365-1.271-0.034-3.627-0.034-3.627l0.892-1.079l1.482-0.121c0,0,0.843,0.864,1.605-0.942c0.737-0.654,1.011-1.229,1.011-1.229
	s0.346-1.054,1.405-0.169c0.787-0.206,1.475-0.332,1.495-1.43c-0.567-0.726,0.289-6.557,0.289-6.557l2.172-3.293l1.904-1.821
	l0.975-0.929c0,0-0.324-0.534,0.498-0.605c0.822-0.071,3.243,1.504,3.243,1.504l2.171,2.488l2.169,3.237l1.002,1.241l10.41,8.447
	l-6.241,22.656l-5.504,18.783L31.167,74.281L11.52,67.314H0V52.108z"/>
<g id="mountain_1_">
	<polygon fill="#FFFFFF" points="0,51.401 4.75,49.316 5.537,48.656 5.537,48.297 6.144,47.852 6.901,47.852 7.367,47.565 
		7.863,47.48 8.722,46.565 9.997,46.046 11.089,45.288 11.698,44.789 12.19,44.639 13.129,43.944 13.584,43.424 15.077,42.13 
		15.369,41.74 15.861,41.166 16.879,40.311 18.262,39.748 20.188,38.409 23.543,36.024 23.674,35.576 24.236,34.646 24.819,34.452 
		25.86,33.119 26.142,30.752 26.14,29.776 26.58,28.641 27.166,27.709 27.957,27.013 27.9,26.663 27.896,26.219 27.793,25.831 
		27.96,25.5 27.96,24.676 28.333,24.306 28.666,23.682 29.204,21.428 29.374,20.46 28.984,19.153 28.984,18.344 29.796,17.705 
		30.504,17.552 31.298,16.961 31.986,17.432 32.616,17.327 33.003,16.852 33.591,16.49 33.742,15.611 34.12,14.816 35.199,14.202 
		36.019,14.444 36.828,14.232 36.934,12.935 36.811,11.723 36.934,10.312 37.043,9.685 37.039,8.846 37.25,7.417 37.878,6.378 
		39.249,3.735 40.316,2.288 41.237,1.686 41.995,1.102 42.771,0.19 43.339,0.455 42.439,1.548 41.603,2.192 40.711,2.777 
		39.781,4.06 38.427,6.681 37.822,7.683 37.664,8.886 37.666,9.739 37.555,10.394 37.434,11.721 37.559,12.929 37.417,14.723 
		36.007,15.091 35.278,14.876 34.602,15.26 34.328,15.836 34.167,16.87 33.384,17.35 32.967,17.902 31.84,18.089 31.314,17.729 
		30.705,18.148 30.006,18.297 29.612,18.631 29.612,19.106 30.018,20.421 29.817,21.555 29.248,23.902 28.81,24.714 28.587,24.935 
		28.554,25.714 28.461,25.898 28.524,26.177 28.524,26.613 28.631,27.252 27.617,28.146 27.138,28.917 26.767,29.891 26.767,30.79 
		26.46,33.365 25.203,34.983 24.656,35.164 24.236,35.858 24.093,36.401 18.559,40.293 17.165,40.868 16.305,41.604 15.534,42.554 
		14.025,43.867 13.552,44.401 12.426,45.218 11.947,45.363 11.475,45.778 10.295,46.59 9.027,47.113 8.187,48.056 7.541,48.167 
		7.1,48.474 6.351,48.474 6.164,48.611 6.164,48.959 5.665,49.344 5.056,50.014 0,52.108 	"/>
	<polygon fill="#FFFFFF" points="89.855,42.343 89.605,42.364 88.672,41.648 88.328,41.616 88.267,41.43 87.89,41.523 
		87.608,41.181 86.76,41.523 86.791,41.835 86.32,42.582 85.976,42.022 85.129,41.679 84.815,42.115 84.218,42.022 83.715,41.368 
		82.93,41.086 82.021,41.368 81.959,40.932 81.614,40.869 81.27,41.168 81.301,41.53 81.049,41.53 80.986,40.981 80.107,40.177 
		79.794,39.042 79.323,38.787 78.195,37.13 77.692,37.192 77.661,36.817 77.097,36.692 76.939,36.162 75.996,35.849 75.746,34.79 
		75.464,34.385 74.899,34.416 74.584,34.011 73.864,34.074 73.172,33.763 72.734,33.855 72.295,33.699 71.412,32.545 71.25,32.39 
		71.25,32.11 70.721,31.486 70.613,31.019 70.583,30.676 70.3,30.24 70.3,29.459 70.653,28.899 70.705,28.556 71.107,28.12 
		71.105,27.808 71.151,27.028 70.624,26.406 70.66,26.218 70.251,25.563 69.721,24.784 69.816,24.472 69.065,23.537 68.906,22.977 
		67.84,21.324 67.776,21.044 67.463,20.95 67.4,20.451 66.772,19.298 66.804,18.737 66.114,17.771 66.02,17.053 65.255,16.347 
		64.42,14.768 64.287,14.227 63.65,13.479 63.65,12.98 61.985,11.442 61.466,11.234 60.979,10.736 59.571,9.978 57.146,7.951 
		57.018,7.578 56.421,7.173 56.263,6.673 54.694,5.645 53.938,4.771 53.751,4.897 51.648,3.058 51.146,2.777 50.11,1.873 
		49.452,1.592 49.202,1.686 48.261,1.255 47.602,0.947 47.318,0.947 46.659,0.693 45.969,0.644 45.186,0.121 44.024,0 43.271,0.033 
		42.771,0.189 43.617,0.626 44.275,1.281 45.529,2.279 46.283,3.089 46.599,3.276 47.1,3.775 47.203,4.429 47.5,4.834 47.5,5.239 
		48.21,6.02 48.219,6.767 48.491,7.329 49.286,8.792 49.823,9.541 49.952,10.414 50.172,10.756 50.236,11.318 50.427,11.567 
		51.146,11.629 51.774,12.003 52.558,12.627 53.625,13.157 53.25,13.531 52.842,13.593 52.778,13.937 52.151,14.685 51.555,15.308 
		51.178,15.558 51.146,15.837 50.74,16.181 50.582,16.617 50.392,16.741 50.174,18.083 49.955,18.893 49.708,19.765 49.4,20.42 
		49.4,21.012 49.082,21.823 49.127,22.416 48.945,23.35 49.025,24.816 48.644,26.53 48.578,29.304 48.482,29.928 48.198,30.458 
		48.229,30.926 48.637,31.58 48.73,32.857 48.773,34.26 47.749,35.424 47.12,36.588 46.409,36.91 46.032,37.44 45.813,39.185 
		45.279,40.339 44.652,42.179 43.93,43.644 42.831,44.89 41.701,46.199 41.295,46.73 41.2,47.945 41.264,48.848 40.948,49.784 
		40.07,51.28 39.538,52.495 38.88,54.054 36.714,55.456 34.485,56.61 33.326,57.39 31.913,56.622 30.491,56.953 22.877,54.085 
		17.354,51.842 15.346,51.55 13.129,49.888 12.252,49.597 11.706,49.099 10.746,49.016 9.825,49.472 9.113,51.261 8.485,51.675 
		7.984,52.964 6.98,53.67 5.807,54.46 4.888,55.915 4.75,56 4.75,56.63 0,59.462 0,84 95,84 95,46.249 93.1,44.36 90.25,42.666 	"/>
</g>
</svg>
