<?xml version="1.0" encoding="utf-8"?>
<!-- Generator: Adobe Illustrator 16.0.0, SVG Export Plug-In . SVG Version: 6.00 Build 0)  -->
<!DOCTYPE svg PUBLIC "-//W3C//DTD SVG 1.1//EN" "http://www.w3.org/Graphics/SVG/1.1/DTD/svg11.dtd">
<svg version="1.1" id="Layer_1" xmlns="http://www.w3.org/2000/svg" xmlns:xlink="http://www.w3.org/1999/xlink" x="0px" y="0px"
	 width="1024px" height="1024px" viewBox="0 0 1024 1024" enable-background="new 0 0 1024 1024" xml:space="preserve">
<g id="Your_Icon_7_">
	<path fill="#FFFFFF" d="M513.797,535.992v-15.768c2.102-0.622,3.807-1.717,4.818-3.068c0.691,0.158,1.41,0.27,2.168,0.27
		c4.127,0,7.473-2.53,7.473-5.648c0-0.395-0.055-0.779-0.156-1.151c3.379-0.757,5.879-3.324,5.879-6.405
		c0-2.876-2.178-5.302-5.213-6.235c0.004-0.061,0.021-0.12,0.021-0.183c0-3.453-3.443-6.253-7.689-6.253
		c-0.426,0-0.832,0.048-1.24,0.103c-1.393-2.771-4.555-4.71-8.24-4.71c-3.773,0-6.994,2.028-8.336,4.896
		c-0.93-0.313-1.945-0.489-3.012-0.489c-4.369,0-7.91,2.889-7.91,6.453c0,1.464,0.621,2.8,1.629,3.884
		c-2.727,1.166-4.566,3.258-4.566,5.67c0,3.675,4.232,6.656,9.451,6.656c0.361,0,0.701-0.047,1.051-0.076
		c-0.014,0.139-0.064,0.268-0.064,0.406c0,3.22,3.623,5.865,8.344,6.354v15.295H513.797z"/>
</g>
<g id="mountain_1_">
	<polygon fill="#FFFFFF" points="464.5,521.127 469.241,519.032 470.027,518.369 470.027,518.008 470.633,517.561 471.389,517.561 
		471.854,517.272 472.35,517.188 473.207,516.268 474.479,515.746 475.569,514.984 476.178,514.483 476.669,514.332 
		477.606,513.635 478.061,513.112 479.551,511.812 479.842,511.419 480.333,510.843 481.35,509.983 482.729,509.417 
		484.652,508.073 488.002,505.677 488.133,505.226 488.693,504.292 489.275,504.097 490.314,502.757 490.596,500.379 
		490.594,499.398 491.033,498.258 491.618,497.322 492.407,496.622 492.352,496.271 492.348,495.824 492.244,495.434 
		492.411,495.102 492.411,494.273 492.783,493.901 493.115,493.274 493.652,491.01 493.822,490.038 493.434,488.725 
		493.434,487.911 494.244,487.269 494.95,487.116 495.743,486.521 496.43,486.995 497.059,486.89 497.445,486.412 498.032,486.048 
		498.183,485.166 498.56,484.367 499.637,483.75 500.455,483.992 501.263,483.779 501.369,482.476 501.246,481.258 501.369,479.84 
		501.479,479.21 501.474,478.367 501.685,476.932 502.312,475.888 503.68,473.232 504.745,471.778 505.665,471.173 506.421,470.586 
		507.195,469.67 507.763,469.936 506.864,471.035 506.029,471.682 505.14,472.269 504.211,473.559 502.859,476.192 502.256,477.199 
		502.098,478.408 502.1,479.265 501.989,479.923 501.868,481.256 501.993,482.47 501.852,484.272 500.443,484.643 499.716,484.426 
		499.041,484.813 498.768,485.391 498.606,486.43 497.825,486.912 497.409,487.467 496.284,487.655 495.759,487.293 495.15,487.714 
		494.453,487.864 494.06,488.2 494.06,488.677 494.465,489.998 494.265,491.137 493.696,493.496 493.259,494.312 493.037,494.533 
		493.004,495.316 492.911,495.502 492.974,495.782 492.974,496.22 493.081,496.862 492.068,497.76 491.59,498.535 491.22,499.514 
		491.22,500.417 490.914,503.004 489.658,504.63 489.112,504.812 488.693,505.509 488.551,506.055 483.026,509.966 481.635,510.543 
		480.776,511.283 480.007,512.237 478.501,513.557 478.028,514.094 476.904,514.914 476.426,515.061 475.955,515.478 
		474.777,516.293 473.512,516.818 472.673,517.766 472.027,517.877 471.587,518.186 470.84,518.186 470.653,518.324 
		470.653,518.674 470.155,519.061 469.547,519.733 464.5,521.838 	"/>
	<polygon fill="#FFFFFF" points="554.197,512.025 553.947,512.047 553.017,511.327 552.673,511.295 552.611,511.108 
		552.235,511.202 551.954,510.857 551.107,511.202 551.139,511.515 550.668,512.266 550.324,511.703 549.479,511.358 
		549.166,511.796 548.57,511.703 548.068,511.045 547.284,510.763 546.377,511.045 546.315,510.607 545.971,510.544 
		545.627,510.845 545.658,511.208 545.406,511.208 545.344,510.657 544.467,509.849 544.154,508.708 543.684,508.452 
		542.558,506.788 542.056,506.85 542.024,506.473 541.461,506.347 541.304,505.814 540.362,505.5 540.112,504.437 539.831,504.03 
		539.268,504.06 538.953,503.653 538.234,503.717 537.544,503.404 537.106,503.497 536.668,503.34 535.786,502.18 535.625,502.025 
		535.625,501.743 535.097,501.116 534.989,500.646 534.959,500.303 534.677,499.865 534.677,499.08 535.029,498.517 535.08,498.172 
		535.482,497.734 535.48,497.42 535.526,496.637 535,496.012 535.036,495.823 534.628,495.166 534.099,494.382 534.193,494.068 
		533.443,493.129 533.285,492.566 532.221,490.905 532.157,490.624 531.845,490.53 531.781,490.028 531.155,488.87 531.187,488.306 
		530.498,487.335 530.403,486.614 529.641,485.905 528.807,484.317 528.674,483.774 528.038,483.023 528.038,482.521 
		526.376,480.977 525.858,480.767 525.371,480.267 523.967,479.505 521.546,477.468 521.418,477.093 520.822,476.687 
		520.664,476.185 519.098,475.151 518.344,474.273 518.156,474.4 516.058,472.551 515.556,472.269 514.522,471.36 513.865,471.079 
		513.615,471.173 512.676,470.74 512.019,470.43 511.735,470.43 511.077,470.175 510.389,470.126 509.606,469.601 508.447,469.479 
		507.695,469.512 507.195,469.669 508.04,470.108 508.697,470.766 509.949,471.769 510.701,472.583 511.017,472.771 
		511.517,473.272 511.62,473.93 511.916,474.336 511.916,474.743 512.625,475.527 512.634,476.279 512.905,476.843 513.699,478.313 
		514.235,479.066 514.364,479.943 514.584,480.287 514.647,480.852 514.838,481.102 515.556,481.164 516.184,481.54 
		516.966,482.167 518.03,482.7 517.656,483.075 517.249,483.138 517.186,483.482 516.56,484.234 515.964,484.861 515.588,485.111 
		515.556,485.393 515.15,485.737 514.993,486.176 514.804,486.3 514.586,487.648 514.367,488.463 514.121,489.339 513.813,489.997 
		513.813,490.592 513.495,491.407 513.541,492.003 513.359,492.941 513.439,494.415 513.059,496.137 512.992,498.924 
		512.896,499.551 512.613,500.083 512.645,500.553 513.052,501.21 513.145,502.494 513.188,503.903 512.165,505.074 
		511.537,506.243 510.827,506.566 510.451,507.099 510.232,508.853 509.699,510.012 509.073,511.86 508.353,513.333 
		507.256,514.585 506.128,515.9 505.723,516.434 505.628,517.654 505.691,518.562 505.376,519.502 504.5,521.006 503.969,522.227 
		503.312,523.793 501.149,525.201 498.925,526.361 497.768,527.145 496.356,526.373 494.938,526.706 487.337,523.824 
		481.823,521.57 479.819,521.277 477.606,519.606 476.73,519.314 476.186,518.813 475.227,518.73 474.308,519.188 473.597,520.986 
		472.97,521.402 472.47,522.697 471.468,523.407 470.297,524.201 469.379,525.662 469.241,525.748 469.241,526.382 464.5,529.227 
		464.5,553.883 559.333,553.883 559.333,515.95 557.437,514.053 554.592,512.35 	"/>
</g>
</svg>
