<?xml version="1.0" encoding="utf-8"?>
<!-- Generator: Adobe Illustrator 16.0.0, SVG Export Plug-In . SVG Version: 6.00 Build 0)  -->
<!DOCTYPE svg PUBLIC "-//W3C//DTD SVG 1.1//EN" "http://www.w3.org/Graphics/SVG/1.1/DTD/svg11.dtd">
<svg version="1.1" id="Layer_1" xmlns="http://www.w3.org/2000/svg" xmlns:xlink="http://www.w3.org/1999/xlink" x="0px" y="0px"
	 width="36px" height="47.994px" viewBox="499 512.512 36 47.994" enable-background="new 499 512.512 36 47.994"
	 xml:space="preserve">
<g>
	<path fill="#FFFFFF" d="M516.999,512.512c-9.927,0-17.999,7.972-17.999,18c0,10.498,9.001,21.239,15.562,28.788
		c0.024,0.028,1.078,1.206,2.38,1.206c0.003,0,0.108,0,0.114,0c1.302,0,2.355-1.178,2.379-1.206
		c6.565-7.549,15.564-18.288,15.564-28.788C535,520.484,526.926,512.512,516.999,512.512z M514.467,528.12l2.533-7.797l2.533,7.797
		h7.869l-6.241,4.771l0,0l-0.063,0.046l2.432,7.485l0,0L517,535.916l-6.53,4.508l2.433-7.485l-0.063-0.046l0,0l-6.24-4.771
		L514.467,528.12L514.467,528.12z"/>
</g>
</svg>
