<?xml version="1.0" encoding="utf-8"?>
<!-- Generator: Adobe Illustrator 16.0.0, SVG Export Plug-In . SVG Version: 6.00 Build 0)  -->
<!DOCTYPE svg PUBLIC "-//W3C//DTD SVG 1.1//EN" "http://www.w3.org/Graphics/SVG/1.1/DTD/svg11.dtd">
<svg version="1.1" id="Layer_1" xmlns="http://www.w3.org/2000/svg" xmlns:xlink="http://www.w3.org/1999/xlink" x="0px" y="0px"
	 width="1024px" height="1024px" viewBox="0 0 1024 1024" enable-background="new 0 0 1024 1024" xml:space="preserve">
<path fill="#FFFFFF" d="M516.999,512.512c-9.927,0-17.999,7.972-17.999,18c0,10.498,9.001,21.239,15.563,28.788
	c0.024,0.029,1.077,1.206,2.379,1.206c0.003,0,0.109,0,0.115,0c1.301,0,2.355-1.177,2.379-1.206
	c6.565-7.549,15.564-18.288,15.564-28.788C535,520.484,526.926,512.512,516.999,512.512z M514.467,528.121l2.533-7.797l2.533,7.797
	h7.869l-6.241,4.771l0,0l-0.063,0.046l2.431,7.485l0,0L517,535.916l-6.53,4.508l2.432-7.485l-0.063-0.046l0,0l-6.24-4.771H514.467z"
	/>
</svg>
