<?xml version="1.0" encoding="utf-8"?>
<!-- Generator: Adobe Illustrator 16.0.0, SVG Export Plug-In . SVG Version: 6.00 Build 0)  -->
<!DOCTYPE svg PUBLIC "-//W3C//DTD SVG 1.1//EN" "http://www.w3.org/Graphics/SVG/1.1/DTD/svg11.dtd">
<svg version="1.1" id="Layer_1" xmlns="http://www.w3.org/2000/svg" xmlns:xlink="http://www.w3.org/1999/xlink" x="0px" y="0px"
	 width="1024px" height="1024px" viewBox="0 0 1024 1024" enable-background="new 0 0 1024 1024" xml:space="preserve">
<g>
	<circle fill="#FFFFFF" cx="509.274" cy="539.976" r="3.751"/>
	<circle fill="#FFFFFF" cx="524.727" cy="539.976" r="3.751"/>
	<path fill="#FFFFFF" d="M539.009,525.684c-4.039-8.037-12.375-13.766-22.009-13.766c-13.59,0-24.606,10.936-24.606,24.524
		c0,13.591,11.017,24.566,24.606,24.566c13.589,0,24.605-10.884,24.605-24.474c0-1.937,0.028-2.73-0.653-5.494
		S539.009,525.684,539.009,525.684z M537.012,545.775h-40.022c-1.367-2.679-2.135-6.074-2.135-9.473
		c0-0.881,0.057-1.243,0.158-2.582h43.975c0.101,1.339,0.157,1.701,0.157,2.582C539.146,539.701,538.379,543.097,537.012,545.775z"
		/>
</g>
</svg>
