<?xml version="1.0" encoding="utf-8"?>
<!-- Generator: Adobe Illustrator 16.0.0, SVG Export Plug-In . SVG Version: 6.00 Build 0)  -->
<!DOCTYPE svg PUBLIC "-//W3C//DTD SVG 1.1//EN" "http://www.w3.org/Graphics/SVG/1.1/DTD/svg11.dtd">
<svg version="1.1" id="Layer_1" xmlns="http://www.w3.org/2000/svg" xmlns:xlink="http://www.w3.org/1999/xlink" x="0px" y="0px"
	 width="49.211px" height="49.09px" viewBox="492.395 511.918 49.211 49.09" enable-background="new 492.395 511.918 49.211 49.09"
	 xml:space="preserve">
<g>
	<circle fill="#FFFFFF" cx="509.273" cy="539.976" r="3.751"/>
	<circle fill="#FFFFFF" cx="524.727" cy="539.976" r="3.751"/>
	<path fill="#FFFFFF" d="M539.009,525.684c-4.039-8.037-12.375-13.766-22.009-13.766c-13.59,0-24.605,10.936-24.605,24.523
		c0,13.591,11.017,24.566,24.605,24.566s24.605-10.885,24.605-24.475c0-1.937,0.027-2.729-0.653-5.494
		C540.271,528.276,539.009,525.684,539.009,525.684z M537.012,545.775H496.99c-1.367-2.679-2.135-6.074-2.135-9.473
		c0-0.881,0.057-1.243,0.157-2.582h43.976c0.101,1.339,0.156,1.701,0.156,2.582C539.146,539.7,538.379,543.097,537.012,545.775z"/>
</g>
</svg>
