<?xml version="1.0" encoding="utf-8"?>
<!-- Generator: Adobe Illustrator 16.0.0, SVG Export Plug-In . SVG Version: 6.00 Build 0)  -->
<!DOCTYPE svg PUBLIC "-//W3C//DTD SVG 1.1//EN" "http://www.w3.org/Graphics/SVG/1.1/DTD/svg11.dtd">
<svg version="1.1" id="Layer_1" xmlns="http://www.w3.org/2000/svg" xmlns:xlink="http://www.w3.org/1999/xlink" x="0px" y="0px"
	 width="51.491px" height="64.443px" viewBox="485.883 478.87 51.491 64.443" enable-background="new 485.883 478.87 51.491 64.443"
	 xml:space="preserve">
<g>
	<path fill="none" d="M499.778,525.219c-0.313-0.004-0.602-0.169-0.766-0.438c-0.161-0.266-0.176-0.599-0.034-0.878
		c0.106-0.219,0.078-0.521-0.076-0.771c-0.152-0.252-0.408-0.417-0.65-0.42c-0.312-0.006-0.602-0.17-0.764-0.438
		c-0.164-0.267-0.176-0.599-0.037-0.878c0.109-0.219,0.08-0.521-0.074-0.771c-0.152-0.253-0.408-0.419-0.65-0.423
		c-0.185-0.002-0.355-0.065-0.503-0.168c-0.104-0.071-0.195-0.157-0.264-0.269c-0.161-0.267-0.175-0.599-0.033-0.878
		c0.109-0.218,0.077-0.521-0.075-0.773c-0.033-0.057-0.074-0.107-0.116-0.153c-0.154-0.169-0.352-0.275-0.539-0.275
		c-0.079,0-0.147,0.021-0.209,0.056l-0.362,0.221l-1.368,0.833l-3.446,2.099c-0.06,0.037-0.107,0.097-0.146,0.182
		c-0.038,0.08-0.085,0.152-0.144,0.22c-1.254,1.428-1.407,3.612-0.373,5.312l0.664,1.088c0.832,1.37,2.314,2.226,3.862,2.232
		c0.349,0.002,0.693-0.041,1.028-0.123c0.083-0.021,0.171-0.029,0.26-0.025c0.104-0.006,0.172-0.014,0.227-0.047l0.987-0.602
		l0.384-0.234l3.804-2.315c0.249-0.15,0.278-0.591,0.066-0.937C500.277,525.389,500.02,525.223,499.778,525.219z"/>
	<path fill="none" d="M532.412,519.729c-0.084-0.026-0.163-0.065-0.234-0.114c-0.079-0.053-0.151-0.08-0.221-0.08l-4.495-0.021
		l-1.563-0.008c-0.291-0.002-0.549,0.356-0.55,0.767c-0.003,0.296,0.13,0.571,0.334,0.7c0.265,0.167,0.421,0.46,0.42,0.771
		c0,0.313-0.163,0.604-0.429,0.77c-0.206,0.126-0.34,0.398-0.343,0.696c0,0.294,0.13,0.569,0.337,0.698
		c0.264,0.168,0.421,0.46,0.421,0.771c-0.004,0.312-0.164,0.603-0.431,0.77c-0.206,0.125-0.34,0.398-0.342,0.694
		s0.131,0.572,0.334,0.7c0.266,0.168,0.424,0.459,0.424,0.771c-0.004,0.313-0.164,0.604-0.433,0.769
		c-0.206,0.128-0.34,0.398-0.341,0.695c-0.001,0.411,0.25,0.771,0.542,0.773l1.563,0.007l4.496,0.022
		c0.068,0,0.142-0.025,0.218-0.077c0.073-0.047,0.155-0.085,0.235-0.109c1.817-0.562,3.092-2.341,3.104-4.332l0.008-1.273
		C535.479,522.1,534.222,520.308,532.412,519.729z"/>
	<path fill="#FFFFFF" d="M510.59,505.344c-1.574,0.195-2.747-0.043-3.49-0.712c-0.883-0.795-0.878-1.98-0.876-2.003
		c0.007-0.313-0.239-0.573-0.552-0.582c-0.005,0-0.01,0-0.014,0c-0.309-0.001-0.563,0.24-0.572,0.552
		c-0.003,0.069-0.033,1.708,1.238,2.866c0.784,0.714,1.865,1.076,3.227,1.083c0.371,0.001,0.766-0.024,1.178-0.075
		c0.312-0.039,0.532-0.323,0.494-0.635C511.184,505.528,510.896,505.307,510.59,505.344z"/>
	<path fill="#FFFFFF" d="M512.793,497.198c-0.007,1.249,1.001,2.265,2.248,2.271l4.707,0.022c1.25,0.007,2.266-1.002,2.271-2.248
		l0.007-1.182c0.01,0,0.018,0.002,0.027,0.002c0.4,0.002,0.728-0.322,0.729-0.722l0.005-0.681c0.002-0.399-0.321-0.726-0.725-0.729
		c-0.093,0-0.18,0.017-0.261,0.049c-0.368-0.748-1.131-1.265-2.02-1.27l-4.709-0.023c-0.474-0.003-0.914,0.142-1.278,0.389
		c-0.448-0.226-0.996-0.405-1.633-0.429c-0.66-0.023-1.312,0.115-1.958,0.413c-0.374-0.283-0.838-0.453-1.343-0.456l-4.709-0.022
		c-0.903-0.006-1.683,0.522-2.049,1.286c-0.07-0.022-0.142-0.039-0.219-0.039c-0.399-0.002-0.727,0.323-0.729,0.723l-0.005,0.679
		c-0.001,0.402,0.32,0.728,0.722,0.73l-0.004,1.13c-0.006,1.248,1,2.264,2.249,2.271l4.709,0.024
		c1.246,0.005,2.263-1.002,2.268-2.249l0.014-2.26c0.001-0.115-0.01-0.226-0.026-0.334c0.34-0.136,0.674-0.202,1-0.192
		c0.283,0.009,0.54,0.074,0.764,0.164c-0.025,0.137-0.042,0.277-0.042,0.422L512.793,497.198z"/>
	<path fill="#FFFFFF" d="M523.094,506.815c0.387-0.557,0.738-1.146,1.043-1.768c0.311,0.146,0.637,0.222,0.973,0.224
		c1.754,0.01,3.139-1.961,3.15-4.484c0.012-2.49-1.314-4.456-3.039-4.513c-0.354-1.681-1.016-3.232-1.914-4.602
		c-0.544-0.056-1.193-0.127-1.919-0.221c1.305,1.601,2.211,3.554,2.56,5.724l0.13,0.825l0.793-0.261
		c0.098-0.034,0.187-0.047,0.28-0.046c0.807,0.004,1.699,1.272,1.688,3.086c-0.009,1.815-0.913,3.075-1.72,3.07
		c-0.265-0.002-0.524-0.127-0.778-0.377l-0.752-0.745l-0.4,0.978c-0.477,1.146-1.108,2.189-1.868,3.108
		c-2.267,2.738-5.665,4.376-9.357,4.358c-3.698-0.018-7.015-1.7-9.225-4.358c-1.48-1.779-2.468-3.989-2.728-6.447l-0.071-0.688
		l-0.688,0.053l-0.066,0.008c-0.853-0.004-1.793-1.372-1.785-3.323c0.01-1.955,0.966-3.312,1.815-3.308
		c0.401,0.001,0.729,0.287,0.933,0.525l0.682,0.802l0.489-0.933c0.52-0.993,1.161-1.891,1.901-2.682
		c-0.522,0.14-1.066,0.225-1.648,0.22c-0.121,0-0.243-0.007-0.366-0.015c-0.249,0.334-0.488,0.68-0.708,1.041
		c-0.396-0.25-0.825-0.38-1.273-0.382c-1.807-0.01-3.229,2.064-3.245,4.721c-0.011,2.404,1.141,4.342,2.696,4.695
		c0.313,2.11,1.109,4.048,2.268,5.709c2.436,3.495,6.475,5.757,11.015,5.779C516.473,512.616,520.593,510.414,523.094,506.815z"/>
	<path fill="#FFFFFF" d="M501.571,490.192c0.107,0,0.213-0.01,0.316-0.014c1.189-0.071,2.24-0.543,3.331-1.067
		c0.062-0.03,0.122-0.058,0.186-0.088c1.259-0.606,2.561-1.234,4.076-1.226c0.784,0.003,1.551,0.173,2.346,0.515
		c2.486,1.078,5.911,1.749,8.654,2.146c0.789,0.114,1.521,0.206,2.155,0.278c0.569,0.065,1.065,0.114,1.458,0.15l-3.444-4.35
		l-0.022-0.072c-0.025-0.076-0.615-1.894-0.806-4.235c-0.154-1.872-1.641-2.469-1.878-2.553c-0.51-0.069-5.905-0.782-10.424-0.806
		c-0.746-0.003-1.437,0.013-2.056,0.046c-1.188,0.065-2.069,0.479-2.625,1.229c-1.227,1.662-0.551,4.448-0.545,4.476l0.04,0.156
		l-2.623,5.06C500.346,490.072,500.957,490.188,501.571,490.192z"/>
	<path fill="#FFFFFF" d="M522.125,509.033l6.24,1.442c0.062,0.333,0.1,0.68,0.099,1.039l-0.024,5.213l4.494,0.021
		c0.195,0.001,0.389,0.03,0.579,0.085c2.218-0.55,3.861-2.547,3.861-4.933c0-2.81-2.278-5.088-5.089-5.088h-8.221
		C523.497,507.63,522.844,508.369,522.125,509.033z"/>
	<path fill="#FFFFFF" d="M490.253,516.935l1.451-0.888l1.366-0.831c0.347-0.211,0.748-0.321,1.16-0.319
		c0.359,0,0.714,0.092,1.041,0.247l0.019-3.796c0.001-0.358,0.042-0.705,0.106-1.038l6.379-1.406c-0.67-0.634-1.28-1.331-1.81-2.091
		h-8.996c-2.811,0-5.087,2.278-5.087,5.088C485.885,514.467,487.783,516.582,490.253,516.935z"/>
	<path fill="#FFFFFF" d="M533.075,518.034c-0.17-0.1-0.352-0.178-0.533-0.229c-0.188-0.058-0.382-0.084-0.58-0.086l-4.495-0.021
		l0.025-5.214c0.003-0.358-0.034-0.706-0.096-1.038l-6.242-1.442c-0.07,0.062-0.133,0.127-0.2,0.187
		c-0.031,0.559-0.104,1.975-0.104,2.262l-0.026,5.51l-0.072,14.715c-1.358,0.367-2.739,0.671-3.767,0.918
		c0.615,0.589,1.003,1.418,1.003,2.336c0,0.146-0.014,0.289-0.032,0.431c0.785-0.198,1.765-0.427,2.781-0.687l-0.021,4.091
		l0.033,3.548l6.608-3.514l0.039-8.12l4.495,0.021c0.386,0.002,0.768-0.103,1.116-0.306c2.543-0.838,4.254-3.243,4.268-6.021
		l0.007-1.273C537.298,521.322,535.611,518.9,533.075,518.034z M535.461,525.364c-0.012,1.991-1.286,3.771-3.104,4.332
		c-0.081,0.024-0.162,0.063-0.236,0.109c-0.076,0.052-0.148,0.077-0.218,0.077l-4.496-0.022l-1.563-0.007
		c-0.292-0.002-0.543-0.362-0.542-0.773c0.001-0.297,0.136-0.567,0.341-0.695c0.269-0.165,0.429-0.455,0.433-0.769
		c0-0.312-0.158-0.604-0.424-0.771c-0.203-0.128-0.335-0.404-0.334-0.7c0.002-0.296,0.136-0.569,0.342-0.694
		c0.267-0.167,0.427-0.456,0.431-0.77c0-0.312-0.156-0.604-0.421-0.771c-0.207-0.129-0.337-0.404-0.337-0.698
		c0.003-0.298,0.137-0.57,0.343-0.696c0.267-0.166,0.429-0.456,0.429-0.77c0.002-0.312-0.155-0.604-0.42-0.771
		c-0.205-0.129-0.336-0.404-0.334-0.7c0.002-0.409,0.259-0.769,0.55-0.767l1.563,0.008l4.495,0.021c0.068,0,0.142,0.027,0.222,0.08
		c0.07,0.05,0.149,0.088,0.233,0.114c1.81,0.578,3.066,2.37,3.058,4.36L535.461,525.364z"/>
	<path fill="#FFFFFF" d="M506.537,533.722c-1.255-0.228-2.559-0.507-3.738-0.776l0.075-14.986l0.028-5.607
		c0.001-0.319-0.07-2.028-0.086-2.413c-0.023-0.021-0.047-0.044-0.072-0.067l-6.377,1.406c-0.066,0.333-0.105,0.682-0.106,1.039
		l-0.019,3.795c-0.328-0.156-0.68-0.246-1.041-0.247c-0.414-0.002-0.814,0.11-1.161,0.32l-1.364,0.831l-1.455,0.887l-2.356,1.436
		c-0.33,0.199-0.602,0.49-0.789,0.845c-1.729,2.049-1.922,4.991-0.479,7.363l0.662,1.09c1.16,1.901,3.23,3.093,5.405,3.103
		c0.458,0.003,0.914-0.047,1.358-0.146c0.399-0.007,0.782-0.113,1.112-0.313l0.031-0.02l-0.041,8.374l4.806,2.613l1.77,0.963
		l0.066-3.547l0.02-3.73c1.08,0.245,2.226,0.484,3.348,0.685c-0.113-0.33-0.178-0.684-0.178-1.053
		C505.953,534.881,506.17,534.245,506.537,533.722z M500.363,526.575l-3.803,2.316l-0.385,0.233l-0.986,0.603
		c-0.056,0.033-0.122,0.041-0.228,0.047c-0.089-0.004-0.177,0.006-0.26,0.025c-0.335,0.082-0.681,0.125-1.028,0.123
		c-1.548-0.009-3.029-0.862-3.863-2.232l-0.662-1.088c-1.035-1.699-0.882-3.885,0.373-5.313c0.058-0.065,0.104-0.139,0.143-0.219
		c0.037-0.085,0.086-0.145,0.146-0.182l3.446-2.1l1.368-0.833l0.362-0.22c0.062-0.036,0.13-0.056,0.209-0.056
		c0.188,0,0.385,0.105,0.539,0.274c0.042,0.047,0.083,0.099,0.115,0.154c0.153,0.252,0.187,0.557,0.076,0.773
		c-0.142,0.278-0.128,0.61,0.033,0.878c0.067,0.109,0.159,0.195,0.264,0.269c0.146,0.103,0.318,0.166,0.502,0.168
		c0.243,0.004,0.499,0.169,0.651,0.422c0.154,0.251,0.185,0.554,0.074,0.771c-0.138,0.279-0.127,0.611,0.037,0.878
		c0.161,0.269,0.45,0.433,0.764,0.438c0.242,0.003,0.498,0.169,0.65,0.421c0.154,0.252,0.184,0.554,0.077,0.771
		c-0.143,0.279-0.128,0.612,0.033,0.878c0.164,0.269,0.451,0.435,0.766,0.438c0.24,0.004,0.499,0.17,0.651,0.422
		C500.643,525.986,500.612,526.426,500.363,526.575z"/>
	<path fill="#FFFFFF" d="M507.16,533.875c-0.568,0.298-0.963,0.887-0.963,1.569c0,0.535,0.24,1.01,0.617,1.336
		c0.312,0.271,0.714,0.439,1.157,0.439h3.07v-0.204v-2.927v-0.422h-3.07C507.679,533.668,507.404,533.747,507.16,533.875z"/>
	<path fill="#FFFFFF" d="M515.727,533.668h-0.582h-2.646v0.313v2.94v0.298h3.23c0.691,0,1.282-0.398,1.578-0.976
		c0.123-0.241,0.198-0.514,0.198-0.803C517.504,534.465,516.707,533.668,515.727,533.668z"/>
</g>
</svg>
