<?xml version="1.0" encoding="utf-8"?>
<!-- Generator: Adobe Illustrator 16.0.0, SVG Export Plug-In . SVG Version: 6.00 Build 0)  -->
<!DOCTYPE svg PUBLIC "-//W3C//DTD SVG 1.1//EN" "http://www.w3.org/Graphics/SVG/1.1/DTD/svg11.dtd">
<svg version="1.1" id="Layer_1" xmlns="http://www.w3.org/2000/svg" xmlns:xlink="http://www.w3.org/1999/xlink" x="0px" y="0px"
	 width="42px" height="40px" viewBox="0 0 42 40" enable-background="new 0 0 42 40" xml:space="preserve">
<g>
	<path fill="#FFFFFF" d="M12.4,21.874l1.88,1.138c0.316,0,0.477-0.129,0.477-0.389c0-0.167-0.076-0.396-0.225-0.694l-4.153-7.716
		l-9.202,0.222c-0.412,0.02-0.618,0.232-0.618,0.638c0,0.093,0.13,0.222,0.393,0.389l1.908,1.138L0.84,19.708
		C0.279,20.596,0,21.33,0,21.901c0,0.52,0.185,1.103,0.56,1.75l6.257,10.797c-0.15-0.683-0.225-1.333-0.225-1.944
		c0-1.089,0.346-2.164,1.037-3.219L12.4,21.874z"/>
	<path fill="#FFFFFF" d="M19.976,7.662c-1.929-4.348-3.977-6.524-6.147-6.524c-1.309,0-2.185,0.361-2.636,1.082L6.312,9.938
		l8.501,5.635L19.976,7.662z"/>
	<path fill="#FFFFFF" d="M8.754,30.146c-0.489,0.942-0.73,1.906-0.73,2.886c0,2.646,0.86,3.969,2.582,3.969h9.96V26.759H10.97
		C9.79,28.424,9.051,29.555,8.754,30.146z"/>
	<path fill="#FFFFFF" d="M35.546,6.301c0.148-0.258,0.224-0.527,0.224-0.804c0-0.334-0.113-0.501-0.333-0.501
		c0.034,0-0.114,0.057-0.452,0.167l-2.02,0.916l-1.85-3.636C30.29,0.815,28.645,0,26.175,0h-11.53
		c1.403,0.426,2.357,0.842,2.861,1.249c1.179,0.925,2.385,2.665,3.62,5.218l2.301,4.774l-1.713,0.807
		c-0.166,0.074-0.25,0.221-0.25,0.442c0,0.278,0.176,0.437,0.532,0.473l9.12,0.722L35.546,6.301z"/>
	<path fill="#FFFFFF" d="M38.885,26.038c-0.897,0.297-2.182,0.444-3.845,0.444h-7.182v-1.471c0-0.574-0.141-0.861-0.421-0.861
		c-0.206,0-0.356,0.076-0.448,0.223l-4.543,7.799l4.712,7.162c0.356,0.538,0.663,0.75,0.926,0.637
		c0.261-0.073,0.393-0.21,0.393-0.414v-2.443h3.985c1.458,0,2.485-0.546,3.084-1.637L42,23.873
		C41.045,24.947,40.006,25.668,38.885,26.038z"/>
	<path fill="#FFFFFF" d="M32.741,25.011h4.292c1.027,0,2.094-0.444,3.198-1.333C41.41,22.753,42,21.772,42,20.734
		c0-0.479-0.16-0.951-0.478-1.414l-5.105-7.718l-8.783,5.053L32.741,25.011z"/>
</g>
</svg>
