<?xml version="1.0" encoding="utf-8"?>
<!-- Generator: Adobe Illustrator 16.0.0, SVG Export Plug-In . SVG Version: 6.00 Build 0)  -->
<!DOCTYPE svg PUBLIC "-//W3C//DTD SVG 1.1//EN" "http://www.w3.org/Graphics/SVG/1.1/DTD/svg11.dtd">
<svg version="1.1" id="Layer_1" xmlns="http://www.w3.org/2000/svg" xmlns:xlink="http://www.w3.org/1999/xlink" x="0px" y="0px"
	 width="1024px" height="1024px" viewBox="0 0 1024 1024" enable-background="new 0 0 1024 1024" xml:space="preserve">
<path fill="#FFFFFF" d="M504.635,560.564c-3.585,0.913-9.027,0.162-9.936-0.183c-1.024-0.387-1.699-1.797-1.699-1.797v-17.376
	c0,0,1.612-1.161,3.532-1.936c1.924-0.775,4.526-1.273,6.884-1.328c2.361-0.057,4.281,0.83,5.766,1.328
	c1.482,0.497,2.524,1.216,2.524,1.216s0.439-0.331,1.044-0.995c0.604-0.664,1.537-1.659,2.194-2.102
	c0.658-0.445,1.648-0.998,2.91-1.053c1.263-0.054,3.021,0.223,4.118,1.272c1.098,1.052,1.537,1.881,1.92,1.826
	c0.386-0.056,0.221-1.605,0.275-2.214c0.054-0.607,0-2.767,0.163-4.592c0.167-1.826-0.271-7.028-0.438-8.079
	c-0.165-1.053-1.151-3.32-1.151-3.32s-0.165,0.386-0.165,1.271c0,0.885-0.55,0.885-0.879,1.161
	c-0.328,0.277-1.099,0.554-1.372,0.277c-0.274-0.277-0.66-0.22-1.098-0.166c-0.439,0.055-0.33,0.388-0.934,0.774
	c-0.604,0.388-1.539,0.277-1.92-0.165c-0.386-0.444-1.156-0.111-1.757-0.276c-0.605-0.168-1.045-0.499-1.812-0.997
	c-0.771-0.499-1.1-1.825-1.043-2.712c0.055-0.885,0.107-3.154,0.329-4.426c0.217-1.274,0.491-1.329,1.48-1.992
	c0.988-0.665,1.426-0.665,3.183-1.218s2.639-0.554,4.396-0.72c1.756-0.164,1.37,0.11,3.755,0.886
	c2.382,0.774,2.393,1.936,2.723,2.656c0.327,0.719,0.713,1.937,1.698,3.762c0.991,1.826,2.307,4.097,3.682,6.144
	c1.371,2.047,3.291,4.593,5.267,8.023c1.98,3.431,2.143,5.643,2.528,7.969c0.383,2.323,1.425,1.216,1.153,4.149
	c-0.276,2.933-2.966,4.538-4.228,5.589c-1.264,1.051-2.363,1.272-3.077,1.659c-0.713,0.388-2.087,1.385-6.587,4.094
	c-4.5,2.714-12.296,2.823-13.723,2.657c-1.429-0.165-4.996-1.272-6.535-1.328C507.807,558.306,506.442,560.101,504.635,560.564z"/>
</svg>
