<?xml version="1.0" encoding="utf-8"?>
<!-- Generator: Adobe Illustrator 16.0.0, SVG Export Plug-In . SVG Version: 6.00 Build 0)  -->
<!DOCTYPE svg PUBLIC "-//W3C//DTD SVG 1.1//EN" "http://www.w3.org/Graphics/SVG/1.1/DTD/svg11.dtd">
<svg version="1.1" id="Layer_1" xmlns="http://www.w3.org/2000/svg" xmlns:xlink="http://www.w3.org/1999/xlink" x="0px" y="0px"
	 width="1024px" height="1024px" viewBox="0 0 1024 1024" enable-background="new 0 0 1024 1024" xml:space="preserve">
<g>
	<g>
		<path fill="#FFFFFF" d="M525.021,490.368c-0.649,0-1.175,0.525-1.175,1.174v7.631c0,0.648,0.525,1.174,1.175,1.174h7.631v-9.979
			H525.021z"/>
	</g>
	<g>
		<rect x="491.56" y="526.764" fill="#FFFFFF" width="39.918" height="5.871"/>
	</g>
	<g>
		<path fill="#FFFFFF" d="M519.739,502.695h-0.003h-0.68l-6.252,4.466c-0.771,0.572-1.452,0.849-2.077,0.849
			c-0.792,0-1.449-0.447-1.76-1.196c-0.425-1.024-0.139-2.63,0.596-3.406c0.073-0.084,0.303-0.347,0.625-0.713h-2.778h-1.629h-2.479
			v14.089h16.438V502.695z"/>
	</g>
	<g>
		<polygon fill="#FFFFFF" points="520.911,511.501 520.911,515.023 522.97,515.023 523.847,517.958 511.52,517.958 499.191,517.958 
			500.068,515.023 502.127,515.023 502.127,511.501 495.082,511.501 490.386,522.067 490.386,525.59 532.652,525.59 
			532.652,522.067 527.956,511.501 		"/>
	</g>
	<g>
		
			<line fill="none" stroke="#FFFFFF" stroke-width="0" stroke-linecap="round" stroke-linejoin="round" x1="522.671" y1="491.542" x2="522.673" y2="491.542"/>
	</g>
	<g>
		<path fill="#FFFFFF" d="M511.519,499.173c0.587-1.175,4.671-1.149,2.936,0.586l-4.145,4.592c-0.483,0.483-0.869,3.848,1.795,1.866
			l8.22-5.871l0.587-1.761l1.76-1.761v-5.283h-5.868l-5.87,3.521c-1.072,0.693-1.763,1.174-2.35,2.935
			c-0.293,0.881-1.173,3.523-1.173,3.523h3.301L511.519,499.173z"/>
	</g>
</g>
</svg>
