<?xml version="1.0" encoding="utf-8"?>
<!-- Generator: Adobe Illustrator 16.0.0, SVG Export Plug-In . SVG Version: 6.00 Build 0)  -->
<!DOCTYPE svg PUBLIC "-//W3C//DTD SVG 1.1//EN" "http://www.w3.org/Graphics/SVG/1.1/DTD/svg11.dtd">
<svg version="1.1" id="Layer_1" xmlns="http://www.w3.org/2000/svg" xmlns:xlink="http://www.w3.org/1999/xlink" x="0px" y="0px"
	 width="42.267px" height="42.268px" viewBox="490.386 490.367 42.267 42.268"
	 enable-background="new 490.386 490.367 42.267 42.268" xml:space="preserve">
<g>
	<g>
		<path fill="#FFFFFF" d="M525.021,490.367c-0.649,0-1.176,0.525-1.176,1.174v7.632c0,0.647,0.525,1.174,1.176,1.174h7.631v-9.979
			H525.021z"/>
	</g>
	<g>
		<rect x="491.561" y="526.764" fill="#FFFFFF" width="39.918" height="5.871"/>
	</g>
	<g>
		<path fill="#FFFFFF" d="M519.739,502.695h-0.003h-0.681l-6.252,4.466c-0.771,0.572-1.452,0.85-2.077,0.85
			c-0.791,0-1.448-0.447-1.76-1.196c-0.425-1.024-0.139-2.63,0.596-3.406c0.073-0.084,0.304-0.347,0.625-0.713h-2.777h-1.629h-2.479
			v14.089h16.438L519.739,502.695L519.739,502.695z"/>
	</g>
	<g>
		<polygon fill="#FFFFFF" points="520.911,511.5 520.911,515.023 522.97,515.023 523.847,517.957 511.52,517.957 499.191,517.957 
			500.068,515.023 502.127,515.023 502.127,511.5 495.082,511.5 490.386,522.067 490.386,525.59 532.652,525.59 532.652,522.067 
			527.956,511.5 		"/>
	</g>
	<g>
		<line fill="none" x1="522.671" y1="491.541" x2="522.673" y2="491.541"/>
	</g>
	<g>
		<path fill="#FFFFFF" d="M511.52,499.173c0.586-1.175,4.67-1.149,2.936,0.586l-4.145,4.592c-0.483,0.483-0.869,3.848,1.795,1.866
			l8.22-5.871l0.587-1.761l1.76-1.762v-5.282h-5.868l-5.87,3.521c-1.071,0.693-1.763,1.174-2.35,2.935
			c-0.293,0.882-1.173,3.523-1.173,3.523h3.301L511.52,499.173z"/>
	</g>
</g>
</svg>
