<?xml version="1.0" encoding="utf-8"?>
<!-- Generator: Adobe Illustrator 16.0.0, SVG Export Plug-In . SVG Version: 6.00 Build 0)  -->
<!DOCTYPE svg PUBLIC "-//W3C//DTD SVG 1.1//EN" "http://www.w3.org/Graphics/SVG/1.1/DTD/svg11.dtd">
<svg version="1.1" id="Layer_1" xmlns="http://www.w3.org/2000/svg" xmlns:xlink="http://www.w3.org/1999/xlink" x="0px" y="0px"
	 width="58.38px" height="56.913px" viewBox="487.81 507.769 58.38 56.913" enable-background="new 487.81 507.769 58.38 56.913"
	 xml:space="preserve">
<g>
	<path fill="#FFFFFF" d="M512.904,546.654l4.322-7.255c0.061-0.102,6.434,1.449,9.604,1.905c0.074,0.01-6.146-6.844-6.146-6.844
		c-0.035-0.041,5.81-7.885,5.81-7.885c-3.144,0.872-9.679,2.646-9.886,2.562c-1.495-2.082-2.838-4.271-4.2-6.479
		c0.452-2.17,1.766-5.357,3.093-7.07c2.983-0.615,5.778-0.523,8.701-0.73c-0.065-0.106-0.109-0.164-0.169-0.195
		c-1.938-1.036-4.031-1.717-6.03-2.403c-0.16-0.053,3.812-3.491,5.32-4.488c0.07-0.048-7.653,1.234-10.889,2.953
		c-2.354-0.674-7.362-1.146-7.34-1.056c0,0,1.771,4.188,1.625,4.519c-1.601,0.96-4.896,4.932-4.806,4.9
		c2.03-0.703,6.448-2.014,6.529-1.891c0,0,3.59,5.101,3.845,5.466c-0.651,2.814-1.233,8.72-1.343,8.755
		c-0.673,0.222-5.757,2.209-7.414,3.139c-2.982,0.423-7.107,0.591-7.259,0.432c-0.586-4.306-0.491-8.484-0.328-11.573
		c0.979-0.821,5.174-3.934,5.156-4.054c-1.346-0.086-4.285-0.112-4.267-0.226c0.324-1.898,1.606-5.622,1.553-5.585
		c-3.185,2.114-8.875,8.322-10.234,17.137c-0.007,0.048,4.595-4.313,4.702-4.146c0.643,0.998,2.605,3.177,2.625,3.425
		c-0.207,0.389-2.48,4.429-3.164,6.151c-1.531,0.431-3.014,0.836-4.497,1.386c-0.145,0.168,1.901,2.203,2.875,2.938
		c0.13,0.101-0.396,4.838-0.489,7.138c0.201,0.5,0.425,1.043,0.787,1.587c0.018,0.021,2.529-3.614,3.795-5.387
		c0.066-0.094,3.622,2.006,5.404,3.063c0.577,1.992,2.64,6.043,2.597,6.167c-0.006,0.021-6.781,2.753-6.701,2.784
		c3.008,1.162,6.204,1.663,9.398,1.978c0.131,0.012,4.077,5.209,5.182,6.231c0.387,0.082,1.346,0.11,1.329,0.021
		c-0.332-1.84-0.405-5.958-0.238-5.956c1.873,0.041,5.738-0.458,5.661-0.499c0,0-5.62-3.009-5.717-3.195
		C511.98,551.731,512.383,549.12,512.904,546.654z M506.795,551.063c-0.228,0.149-0.516,0.148-0.739-0.006
		c-1.679-1.139-3.286-2.375-4.902-3.6l-0.876-0.698c-1.088-2.063-2.024-4.117-2.6-6.294c-0.056-0.211,0.109-0.377,0.236-0.527
		c1.662-1.949,3.605-3.625,5.638-5.252l7.628,2.692c0.078,0.027,0.142,0.175,0.146,0.29c0.125,3.039,0.781,6.014,1.479,8.933
		C510.964,548.331,508.875,549.697,506.795,551.063z"/>
	<path fill="#FFFFFF" d="M546.189,538.313c-0.683,0.414-4.269,1.788-5.332,1.986c-0.074,0.013-0.981-7.062-1.016-6.981
		c-1.106,2.628-4.257,8.149-4.587,8.181c-2.577,0.24-7.951,0.006-7.888,0.091c1.437,1.891,5.346,5.062,5.293,5.173
		c-1.118,2.275-2.588,4.347-4.02,6.435c-1.209,1.763-2.616,3.377-4.092,4.916c-2.141,0.008-6.674-0.402-6.748-0.266
		c0.584,0.699,3.096,2.807,3.645,3.35c-0.634,1.375-4.046,3.485-3.894,3.485c7.483-0.042,13.346-2.454,19.731-7.768
		c0.078-0.064-7.704,0.863-7.706,0.808l-0.133-5.214c-0.003-0.095,5.21-1.7,7.416-3.124c1.515,0.853,4.728,2.121,4.725,2.036
		c-0.04-1.824-0.373-5.688-0.291-5.76C544.352,543.082,546.247,538.277,546.189,538.313z"/>
	<path fill="#FFFFFF" d="M530.797,521.284c-1.216,1.738-2.629,3.326-3.991,4.97c0.044,0.055,0.106,0.068,0.089,0.072
		c2.433-0.558,4.808-1.067,7.33-1.26c0.231-0.146,5.564,7.443,5.564,7.443c0.004,0.009,0.123,0,0.153,0
		c-0.066-2.419-0.389-4.821-0.751-7.19c-0.014-0.088,5.255,0.222,5.367,0.125c-0.082-0.082-2.45-2.971-6.989-6.057
		c-0.647-2.283-2.847-6.774-2.889-6.718c-0.051,0.07-1.8,4.244-1.925,4.202c-2.725-0.937-5.484-1.899-8.393-2.063
		C524.303,514.805,530.896,521.141,530.797,521.284z"/>
</g>
</svg>
