<?xml version="1.0" encoding="utf-8"?>
<!-- Generator: Adobe Illustrator 16.0.0, SVG Export Plug-In . SVG Version: 6.00 Build 0)  -->
<!DOCTYPE svg PUBLIC "-//W3C//DTD SVG 1.1//EN" "http://www.w3.org/Graphics/SVG/1.1/DTD/svg11.dtd">
<svg version="1.1" id="Layer_1" xmlns="http://www.w3.org/2000/svg" xmlns:xlink="http://www.w3.org/1999/xlink" x="0px" y="0px"
	 width="1024px" height="1024px" viewBox="0 0 1024 1024" enable-background="new 0 0 1024 1024" xml:space="preserve">
<g>
	<path fill-rule="evenodd" clip-rule="evenodd" fill="#FFFFFF" d="M512.904,546.654l4.323-7.255c0.06-0.102,6.433,1.449,9.603,1.905
		c0.074,0.01-6.147-6.844-6.147-6.844c-0.035-0.041,5.81-7.884,5.81-7.884c-3.143,0.872-9.679,2.645-9.886,2.562
		c-1.495-2.082-2.838-4.27-4.2-6.479c0.452-2.17,1.766-5.358,3.093-7.071c2.983-0.615,5.778-0.523,8.701-0.73
		c-0.065-0.107-0.109-0.164-0.169-0.196c-1.938-1.036-4.031-1.716-6.03-2.403c-0.16-0.053,3.812-3.491,5.32-4.488
		c0.07-0.048-7.653,1.234-10.888,2.953c-2.355-0.674-7.363-1.146-7.34-1.056c0,0,1.771,4.189,1.625,4.519
		c-1.601,0.96-4.896,4.932-4.806,4.9c2.03-0.703,6.448-2.013,6.529-1.89c0,0,3.59,5.1,3.845,5.465
		c-0.651,2.815-1.233,8.72-1.343,8.755c-0.672,0.222-5.757,2.209-7.414,3.139c-2.982,0.423-7.107,0.591-7.259,0.432
		c-0.585-4.306-0.491-8.485-0.328-11.574c0.979-0.821,5.174-3.933,5.157-4.053c-1.346-0.086-4.285-0.113-4.267-0.226
		c0.324-1.898,1.606-5.622,1.553-5.585c-3.185,2.114-8.875,8.322-10.235,17.137c-0.007,0.048,4.595-4.314,4.703-4.146
		c0.642,0.998,2.605,3.177,2.624,3.425c-0.207,0.389-2.48,4.429-3.164,6.152c-1.531,0.43-3.013,0.835-4.497,1.385
		c-0.144,0.168,1.902,2.203,2.875,2.939c0.13,0.1-0.395,4.838-0.489,7.137c0.201,0.5,0.425,1.043,0.787,1.587
		c0.018,0.022,2.53-3.614,3.795-5.386c0.067-0.094,3.622,2.005,5.404,3.063c0.578,1.992,2.64,6.043,2.597,6.167
		c-0.006,0.021-6.781,2.753-6.701,2.784c3.008,1.162,6.204,1.663,9.398,1.978c0.131,0.012,4.077,5.209,5.182,6.231
		c0.387,0.082,1.346,0.111,1.329,0.021c-0.332-1.84-0.405-5.958-0.238-5.956c1.873,0.041,5.738-0.458,5.661-0.499
		c0,0-5.62-3.009-5.717-3.196C511.981,551.731,512.383,549.121,512.904,546.654z M506.795,551.063
		c-0.228,0.149-0.516,0.148-0.739-0.006c-1.679-1.139-3.287-2.375-4.903-3.6l-0.876-0.698c-1.087-2.063-2.024-4.117-2.599-6.294
		c-0.056-0.211,0.109-0.377,0.236-0.527c1.662-1.949,3.605-3.625,5.638-5.252l7.628,2.692c0.078,0.028,0.141,0.175,0.146,0.29
		c0.125,3.039,0.782,6.014,1.48,8.933C510.964,548.332,508.875,549.697,506.795,551.063z"/>
	<path fill-rule="evenodd" clip-rule="evenodd" fill="#FFFFFF" d="M546.189,538.313c-0.682,0.414-4.268,1.788-5.332,1.986
		c-0.074,0.013-0.981-7.061-1.015-6.981c-1.107,2.628-4.257,8.149-4.587,8.181c-2.577,0.24-7.951,0.005-7.888,0.09
		c1.437,1.891,5.346,5.063,5.293,5.173c-1.118,2.276-2.588,4.347-4.019,6.435c-1.21,1.762-2.617,3.377-4.092,4.916
		c-2.141,0.008-6.674-0.403-6.748-0.266c0.584,0.699,3.095,2.807,3.644,3.35c-0.634,1.375-4.046,3.485-3.893,3.485
		c7.483-0.042,13.345-2.454,19.731-7.767c0.078-0.065-7.704,0.863-7.706,0.807l-0.133-5.214c-0.003-0.094,5.21-1.7,7.416-3.124
		c1.515,0.853,4.728,2.121,4.725,2.036c-0.04-1.824-0.373-5.688-0.291-5.759C544.352,543.083,546.247,538.277,546.189,538.313z"/>
	<path fill-rule="evenodd" clip-rule="evenodd" fill="#FFFFFF" d="M530.797,521.285c-1.216,1.738-2.629,3.326-3.991,4.969
		c0.044,0.055,0.106,0.069,0.089,0.073c2.432-0.558,4.807-1.068,7.33-1.26c0.231-0.146,5.564,7.443,5.564,7.443
		c0.004,0.009,0.123,0,0.153,0c-0.066-2.419-0.388-4.821-0.751-7.19c-0.013-0.088,5.255,0.222,5.368,0.125
		c-0.082-0.082-2.451-2.971-6.99-6.057c-0.647-2.283-2.846-6.774-2.888-6.718c-0.051,0.071-1.8,4.245-1.925,4.203
		c-2.725-0.937-5.485-1.9-8.393-2.064C524.303,514.805,530.897,521.141,530.797,521.285z"/>
</g>
</svg>
