<?xml version="1.0" encoding="utf-8"?>
<!-- Generator: Adobe Illustrator 16.0.0, SVG Export Plug-In . SVG Version: 6.00 Build 0)  -->
<!DOCTYPE svg PUBLIC "-//W3C//DTD SVG 1.1//EN" "http://www.w3.org/Graphics/SVG/1.1/DTD/svg11.dtd">
<svg version="1.1" id="Layer_1" xmlns="http://www.w3.org/2000/svg" xmlns:xlink="http://www.w3.org/1999/xlink" x="0px" y="0px"
	 width="57.833px" height="38.167px" viewBox="478 487.898 57.833 38.167" enable-background="new 478 487.898 57.833 38.167"
	 xml:space="preserve">
<g id="Your_Icon">
	<path fill="#FFFFFF" d="M533.842,523.634L533.842,523.634v-0.011v-0.01V523.6v-0.021v-0.005v-0.02v-0.025v-8.392
		c0-0.814,0-4.247,0-4.855c0-0.849,0-1.205,0-2.431c0-7.295,0-18.255,0-19.42c0-2.423-6.075,3.64-6.075,13.351
		c0,4.857,1.216,4.857,1.216,4.857s1.215,1.212,1.215,2.427c0,1.083-0.957,11.771-1.176,14.117v0.006v0.019
		c-0.02,0.14-0.039,0.282-0.039,0.425c0,1.345,1.087,2.432,2.432,2.432C532.744,526.064,533.842,524.978,533.842,523.634
		L533.842,523.634z"/>
	<path fill="#FFFFFF" d="M479.215,522.42l1.213-19.422c0,0-2.428,0-2.428-1.215c0-1.21,0-10.92,0-10.92h1.215v7.279h1.213v-7.279
		h1.214v7.279h1.214v-7.279h1.215v7.279h1.212v-7.279h1.215c0,0,0,9.71,0,10.92c0,1.215-2.427,1.215-2.427,1.215l1.212,19.422
		h-0.064c0.042,0.196,0.064,0.399,0.064,0.606c0,1.675-1.36,3.037-3.032,3.037c-1.674,0-3.036-1.362-3.036-3.037
		c0-0.207,0.021-0.41,0.06-0.606H479.215L479.215,522.42z"/>
	<path fill="#FFFFFF" d="M507.134,492.073c-8.045,0-14.567,6.524-14.567,14.567c0,8.044,6.522,14.567,14.567,14.567
		c8.048,0,14.567-6.524,14.567-14.567C521.701,498.598,515.182,492.073,507.134,492.073L507.134,492.073z"/>
	<path fill="#FFFFFF" d="M507.134,522.42c-8.716,0-15.78-7.063-15.78-15.778c0-8.713,7.064-15.778,15.78-15.778
		c8.711,0,15.782,7.065,15.782,15.778C522.916,515.356,515.845,522.42,507.134,522.42L507.134,522.42z M507.134,488.433
		c-10.057,0-18.209,8.154-18.209,18.208c0,10.055,8.152,18.209,18.209,18.209c10.054,0,18.203-8.154,18.203-18.209
		C525.337,496.587,517.188,488.433,507.134,488.433L507.134,488.433z"/>
</g>
</svg>
