<?xml version="1.0" encoding="utf-8"?>
<!-- Generator: Adobe Illustrator 16.0.0, SVG Export Plug-In . SVG Version: 6.00 Build 0)  -->
<!DOCTYPE svg PUBLIC "-//W3C//DTD SVG 1.1//EN" "http://www.w3.org/Graphics/SVG/1.1/DTD/svg11.dtd">
<svg version="1.1" id="Layer_1" xmlns="http://www.w3.org/2000/svg" xmlns:xlink="http://www.w3.org/1999/xlink" x="0px" y="0px"
	 width="58.152px" height="39.282px" viewBox="483.069 492.204 58.152 39.282"
	 enable-background="new 483.069 492.204 58.152 39.282" xml:space="preserve">
<g>
	<path fill="#FFFFFF" d="M532.701,524.995c4.702,0,8.521-3.877,8.521-8.633c0-4.761-3.815-8.621-8.521-8.621
		c-4.715,0-8.525,3.86-8.525,8.621C524.176,521.118,527.651,524.995,532.701,524.995z"/>
	<path fill="#FFFFFF" d="M483.069,529.85c0.661,0.16,1.284,0.393,1.878,0.664c1.334,0.608,2.854,0.973,4.399,0.973
		c1.567,0,3.086-0.363,4.423-0.973c1.375-0.631,2.928-1.029,4.55-1.029c1.607,0,3.153,0.398,4.529,1.029
		c1.354,0.608,2.847,0.973,4.417,0.973c1.553,0,3.07-0.363,4.404-0.973c1.376-0.631,2.93-1.029,4.551-1.029
		c1.603,0,3.154,0.398,4.549,1.029c1.338,0.608,2.836,0.973,4.404,0.973c1.143,0,2.244-0.195,3.281-0.523l-14.217-25.938
		l16.531-3.051c2.429-0.468,4.189-2.396,4.189-4.866c0-2.722-2.191-4.903-4.867-4.903c-0.192,0-0.372,0-0.554,0.017L504,496.923
		c-1.793,0.415-4.166,3.068-2.814,6.327c0.073,0.18,0.143,0.347,0.219,0.525l6.664,12.168L483.069,529.85z"/>
</g>
</svg>
