<?xml version="1.0" encoding="utf-8"?>
<!-- Generator: Adobe Illustrator 16.0.0, SVG Export Plug-In . SVG Version: 6.00 Build 0)  -->
<!DOCTYPE svg PUBLIC "-//W3C//DTD SVG 1.1//EN" "http://www.w3.org/Graphics/SVG/1.1/DTD/svg11.dtd">
<svg version="1.1" id="Layer_2" xmlns="http://www.w3.org/2000/svg" xmlns:xlink="http://www.w3.org/1999/xlink" x="0px" y="0px"
	 width="116.995px" height="119.994px" viewBox="0 0 116.995 119.994" enable-background="new 0 0 116.995 119.994"
	 xml:space="preserve">
<path fill="#CD2D27" d="M38.109,68.647l-4.626,6.583l-4.457-21.676l21.853-3.076l-5.007,7.124l41.09,29.048
	c1.201-1.286,2.336-2.66,3.381-4.138c12.434-17.589,8.256-41.927-9.332-54.361c-11.563-8.175-26.044-9.167-38.142-3.89
	l32.372,22.885l3.862-5.494l3.45,17.901l-17.971,2.759l4.18-5.947L32.625,30.82c-2.193,1.949-4.207,4.167-5.974,6.666
	c-12.434,17.588-8.255,41.926,9.333,54.36c12.01,8.489,27.167,9.228,39.532,3.245L38.109,68.647z"/>
<g>
	<path fill="#CD2D27" d="M58.498,108.997c-27.019,0-49-21.981-49-49s21.981-49,49-49s49,21.981,49,49S85.516,108.997,58.498,108.997
		z M58.498,16.155c-24.175,0-43.842,19.667-43.842,43.842c0,24.175,19.667,43.842,43.842,43.842s43.842-19.667,43.842-43.842
		C102.339,35.823,82.672,16.155,58.498,16.155z"/>
</g>
</svg>
