<?xml version="1.0" encoding="utf-8"?>
<!-- Generator: Adobe Illustrator 16.0.0, SVG Export Plug-In . SVG Version: 6.00 Build 0)  -->
<!DOCTYPE svg PUBLIC "-//W3C//DTD SVG 1.1//EN" "http://www.w3.org/Graphics/SVG/1.1/DTD/svg11.dtd">
<svg version="1.1" id="Layer_1" xmlns="http://www.w3.org/2000/svg" xmlns:xlink="http://www.w3.org/1999/xlink" x="0px" y="0px"
	 width="45.5px" height="61px" viewBox="0 0 45.5 61" enable-background="new 0 0 45.5 61" xml:space="preserve">
<path fill="#77D0EC" d="M22.749,6.155c-10.008,0-18.147,8.088-18.147,18.261c0,10.65,9.076,21.547,15.69,29.205
	c0.024,0.03,1.086,1.224,2.398,1.224c0.003,0,0.11,0,0.116,0c1.312,0,2.375-1.194,2.398-1.224
	c6.619-7.658,15.692-18.553,15.692-29.205C40.898,14.243,32.757,6.155,22.749,6.155z M20.196,21.99l2.554-7.909l2.554,7.909h7.934
	l-6.292,4.842l0,0l-0.063,0.046l2.451,7.594l0,0l-6.583-4.573l-6.584,4.573l2.452-7.594l-0.064-0.046l0,0l-6.292-4.842H20.196z"/>
<path fill="none" stroke="#77D0EC" stroke-width="1.0637" stroke-miterlimit="10" d="M22.749,3C11.443,3,2.25,12.136,2.25,23.626
	c0,12.03,10.251,24.34,17.725,32.99C20.002,56.652,21.201,58,22.683,58c0.004,0,0.125,0,0.132,0c1.481,0,2.682-1.348,2.709-1.383
	c7.477-8.65,17.726-20.958,17.726-32.99C43.25,12.136,34.055,3,22.749,3z M19.865,20.886l2.885-8.935l2.885,8.935h8.963l-7.108,5.47
	l0,0l-0.072,0.051l2.769,8.579l0,0l-7.437-5.167l-7.437,5.167l2.769-8.579l-0.072-0.051l0,0l-7.108-5.47H19.865z"/>
</svg>
