<?xml version="1.0" encoding="utf-8"?>
<!-- Generator: Adobe Illustrator 16.0.0, SVG Export Plug-In . SVG Version: 6.00 Build 0)  -->
<!DOCTYPE svg PUBLIC "-//W3C//DTD SVG 1.1//EN" "http://www.w3.org/Graphics/SVG/1.1/DTD/svg11.dtd">
<svg version="1.1" id="Layer_1" xmlns="http://www.w3.org/2000/svg" xmlns:xlink="http://www.w3.org/1999/xlink" x="0px" y="0px"
	 width="500px" height="500px" viewBox="0 0 500 500" enable-background="new 0 0 500 500" xml:space="preserve">
<circle fill="none" stroke="#1D1D1B" stroke-width="14.6234" stroke-miterlimit="10" cx="250" cy="250" r="233"/>
<g>
	<path fill="#1D1D1B" d="M250,106.817c38.245,0,74.202,14.894,101.245,41.937c27.044,27.044,41.938,63,41.938,101.246
		c0,38.245-14.895,74.201-41.938,101.245s-63,41.938-101.245,41.938c-38.246,0-74.202-14.895-101.246-41.938
		c-27.043-27.043-41.937-63-41.937-101.245c0-38.246,14.894-74.202,41.937-101.246C175.798,121.71,211.754,106.817,250,106.817
		 M250,32.5C129.877,32.5,32.5,129.877,32.5,250c0,120.121,97.377,217.5,217.5,217.5c120.121,0,217.5-97.379,217.5-217.5
		C467.5,129.877,370.121,32.5,250,32.5L250,32.5z"/>
</g>
<circle fill="none" cx="250" cy="250" r="158.5"/>
<text transform="matrix(0.6938 -0.7202 0.7202 0.6938 122.1304 154.2759)"><tspan x="0" y="0" fill="#FFFFFF" font-family="'HiraKakuStdN-W8-83pv-RKSJ-H'" font-size="47">G</tspan><tspan x="45.606" y="0.882" fill="#FFFFFF" font-family="'HiraKakuStdN-W8-83pv-RKSJ-H'" font-size="47" rotate="16.309">Y</tspan><tspan x="89.001" y="13.82" fill="#FFFFFF" font-family="'HiraKakuStdN-W8-83pv-RKSJ-H'" font-size="47" rotate="34.29">M</tspan></text>
<polygon fill="#FFFFFF" points="430.522,282.234 427.463,296.637 440.215,303.996 425.572,305.538 422.513,319.939 416.522,306.49 
	401.88,308.031 412.82,298.178 406.83,284.728 419.582,292.088 "/>
<polygon fill="#FFFFFF" points="99.438,182.658 91.831,195.263 101.469,206.393 87.129,203.055 79.522,215.66 78.267,200.99 
	63.927,197.65 77.491,191.924 76.236,177.253 85.875,188.384 "/>
<path d="M321.272,276.506c-4.032,4.335-10.759,17.035-14.195,21.37c-3.438,4.336-24.955,25.259-44.534,30.187
	c-19.576,4.938-26,5.979-28.992,6.878c-2.991,0.895-6.577,3.289-12.852,3.885c-6.277,0.597-17.936,3.586-26.602-3.586
	c-8.667-7.173-2.839-7.023-8.069-14.345c-5.231-7.325-10.762-13.749-14.646-28.395c-3.887-14.645-5.528-26.751-7.323-36.016
	c-1.792-9.266-4.333-18.979-6.575-26.602c-2.241-7.622-4.484-11.954-5.529-14.793c-1.046-2.841-4.16-6.004,0.238-14.583
	c4.394-8.58,2.602-8.281,7.831-12.615c5.229-4.334,7.621-6.726,13.899-10.012c6.275-3.29,7.473-4.486,11.955-5.383
	c4.484-0.895,5.38-1.495,9.412,1.348c4.038,2.839,10.314,8.815,12.854,11.06c2.542,2.239,5.231,6.723,4.483,10.162
	c-0.746,3.434-1.044,5.527-2.239,7.619c-1.194,2.092-4.185,3.287-4.036,5.531c0.151,2.243-2.092,5.082-4.78,5.679
	c-2.692,0.598-3.289-0.599-4.634,0.45c-1.342,1.046-2.54,1.942-2.54,3.437c0,1.496-2.839,2.839-4.483,2.989
	c-1.644,0.15-3.138,1.645-5.529-0.747c-2.391-2.391-3.885-2.988-3.885-2.988s3.437,8.814,5.829,12.104
	c2.39,3.287,15.243,18.532,20.623,23.015c5.378,4.486,11.059,10.462,12.849,11.957c1.795,1.492,5.532,6.126,6.728,5.231
	c1.194-0.897,0.15-4.335,0.298-10.162c0.149-5.828,4.185-11.356,7.772-14.645c3.585-3.288,7.77-4.484,10.761-5.081
	c2.988-0.597,8.22-0.45,11.657-0.301c3.436,0.152,5.529-0.148,5.529-0.148s0.897-4.782,3.583-10.162
	c2.693-5.38,5.532-13.001,12.106-19.279c6.576-6.275,15.003-12.014,22.324-15.152c7.321-3.136,14.853-4.39,14.853-4.39
	l46.921,46.922c0,0,1.972,5.647,0.229,9.485c-1.543,3.4-14.324,20.243-26.558,27.541
	C329.832,277.639,321.272,276.506,321.272,276.506z"/>
<circle fill="none" cx="250" cy="250" r="158.5"/>
<text transform="matrix(0.7202 0.6938 -0.6938 0.7202 345.7246 122.1309)"><tspan x="0" y="0" fill="#FFFFFF" font-family="'HiraKakuStdN-W8-83pv-RKSJ-H'" font-size="47">G</tspan><tspan x="45.605" y="0.883" fill="#FFFFFF" font-family="'HiraKakuStdN-W8-83pv-RKSJ-H'" font-size="47" rotate="16.309">Y</tspan><tspan x="89.001" y="13.82" fill="#FFFFFF" font-family="'HiraKakuStdN-W8-83pv-RKSJ-H'" font-size="47" rotate="34.29">M</tspan></text>
<circle fill="none" cx="249.999" cy="249.999" r="158.5"/>
<text transform="matrix(-0.6938 0.7202 -0.7202 -0.6938 377.8682 345.7246)"><tspan x="0" y="0" fill="#FFFFFF" font-family="'HiraKakuStdN-W8-83pv-RKSJ-H'" font-size="47">G</tspan><tspan x="45.606" y="0.883" fill="#FFFFFF" font-family="'HiraKakuStdN-W8-83pv-RKSJ-H'" font-size="47" rotate="16.309">Y</tspan><tspan x="89.001" y="13.82" fill="#FFFFFF" font-family="'HiraKakuStdN-W8-83pv-RKSJ-H'" font-size="47" rotate="34.289">M</tspan></text>
<circle fill="none" cx="250" cy="250" r="158.5"/>
<text transform="matrix(-0.7202 -0.6938 0.6938 -0.7202 154.2754 377.8682)"><tspan x="0" y="0" fill="#FFFFFF" font-family="'HiraKakuStdN-W8-83pv-RKSJ-H'" font-size="47">G</tspan><tspan x="45.607" y="0.883" fill="#FFFFFF" font-family="'HiraKakuStdN-W8-83pv-RKSJ-H'" font-size="47" rotate="16.309">Y</tspan><tspan x="89.002" y="13.82" fill="#FFFFFF" font-family="'HiraKakuStdN-W8-83pv-RKSJ-H'" font-size="47" rotate="34.289">M</tspan></text>
<polygon fill="#FFFFFF" points="315.438,67.658 307.831,80.263 317.469,91.393 303.129,88.055 295.521,100.66 294.267,85.99 
	279.928,82.65 293.491,76.924 292.236,62.253 301.875,73.384 "/>
<polygon fill="#FFFFFF" points="207.522,399.234 204.463,413.637 217.215,420.996 202.572,422.538 199.513,436.939 193.522,423.49 
	178.88,425.031 189.82,415.178 183.83,401.728 196.582,409.088 "/>
<circle fill="none" stroke="#1D1D1B" stroke-width="12" stroke-miterlimit="10" cx="250" cy="250" r="129.672"/>
</svg>
