<?xml version="1.0" encoding="utf-8"?>
<!-- Generator: Adobe Illustrator 16.0.0, SVG Export Plug-In . SVG Version: 6.00 Build 0)  -->
<!DOCTYPE svg PUBLIC "-//W3C//DTD SVG 1.1//EN" "http://www.w3.org/Graphics/SVG/1.1/DTD/svg11.dtd">
<svg version="1.1" id="Layer_1" xmlns="http://www.w3.org/2000/svg" xmlns:xlink="http://www.w3.org/1999/xlink" x="0px" y="0px"
	 width="173px" height="95px" viewBox="0 0 173 95" enable-background="new 0 0 173 95" xml:space="preserve">
<path fill="#FFFFFF" d="M33,64V32h11.89c4.503,0,8.36,1.399,11.568,4.54C59.665,39.68,61,43.517,61,48.048
	c0,4.534-1.335,8.369-4.542,11.51C53.25,62.698,49.393,64,44.89,64H33z M41,39v18h2.264c2.68,0,4.897-0.633,6.65-2.154
	c1.754-1.52,2.63-3.786,2.63-6.798c0-2.839-0.842-5.062-2.523-6.668C48.338,39.774,46.115,39,43.349,39H41z"/>
<path fill="#FFFFFF" d="M65.802,30.624c0.855-0.86,1.883-1.29,3.079-1.29c1.198,0,2.225,0.43,3.079,1.29
	c0.855,0.861,1.283,1.894,1.283,3.098c0,1.204-0.428,2.238-1.283,3.098c-0.854,0.861-1.881,1.291-3.079,1.291
	c-1.196,0-2.224-0.43-3.079-1.291c-0.855-0.86-1.283-1.894-1.283-3.098C64.519,32.517,64.946,31.484,65.802,30.624z M73,42v22h-8.01
	L65,42H73z"/>
<path fill="#FFFFFF" d="M86,48.652V64h-7V49h-3v-7h3v-6h7v6.197V48.652z"/>
<path fill="#FFFFFF" d="M103,58h8v6H90l9-15h-8v-7h21L103,58z"/>
<path fill="#FFFFFF" d="M117.398,44.416c2.552-2.121,5.68-3.184,9.387-3.184c3.706,0,6.835,1.062,9.387,3.184
	c2.551,2.124,3.828,4.992,3.828,8.606c0,3.613-1.276,6.475-3.828,8.583c-2.552,2.108-5.682,3.162-9.387,3.162
	c-3.679,0-6.8-1.054-9.366-3.162c-2.565-2.108-3.849-4.97-3.849-8.583C113.57,49.408,114.846,46.54,117.398,44.416z M130.442,49.473
	c-0.899-0.962-2.117-1.441-3.657-1.441c-1.539,0-2.759,0.479-3.657,1.441c-0.897,0.961-1.346,2.145-1.346,3.55
	c0,1.434,0.449,2.617,1.346,3.55c0.898,0.932,2.118,1.396,3.657,1.396c1.54,0,2.758-0.465,3.657-1.396
	c0.897-0.933,1.347-2.116,1.347-3.55C131.789,51.617,131.339,50.434,130.442,49.473z"/>
</svg>
