<?xml version="1.0" encoding="utf-8"?>
<!-- Generator: Adobe Illustrator 16.0.0, SVG Export Plug-In . SVG Version: 6.00 Build 0)  -->
<!DOCTYPE svg PUBLIC "-//W3C//DTD SVG 1.1//EN" "http://www.w3.org/Graphics/SVG/1.1/DTD/svg11.dtd">
<svg version="1.1" id="Layer_1" xmlns="http://www.w3.org/2000/svg" xmlns:xlink="http://www.w3.org/1999/xlink" x="0px" y="0px"
	 width="77px" height="22px" viewBox="0 0 77 22" enable-background="new 0 0 77 22" xml:space="preserve">
<g>
	<g>
		<path fill="#1F66AD" d="M75.67,12.247c-0.109-3.708-2.286-6.013-5.682-6.013c-0.824,0-1.619,0.01-2.319,0.293
			c-0.157-0.067-0.825-0.065-1.821-0.07h-7.119c-0.7,0-0.835,0.035-1.107,0.197c-0.605-0.273-1.283-0.42-2.003-0.42
			c-0.956,0-1.841,0.242-2.61,0.675c-0.338-0.325-0.791-0.452-1.266-0.452h-1.824c-0.806,0-1.504,0.467-1.742,1.217
			c-0.071-0.226-0.188-0.437-0.343-0.621c-0.348-0.414-0.859-0.734-1.4-0.734h-4.274c-0.346,0-0.669,0.178-0.948,0.346
			c-0.624-0.279-1.326-0.43-2.076-0.43c-1.28,0-2.437,0.42-3.365,1.145c-0.891-0.743-2.039-1.145-3.323-1.145
			c-0.599,0-1.188,0.064-1.693,0.223c-0.021,0.015-8.813,0-8.813,0c-0.804,0-1.454,0.484-1.691,1.234
			c-0.072-0.225-0.187-0.437-0.342-0.621c-0.348-0.413-0.86-0.652-1.401-0.652h-1.823c-0.732,0-1.374,0.432-1.665,1.072
			c-0.986-0.777-2.245-1.237-3.632-1.237c-0.151,0-0.304,0.007-0.453,0.017l1.064-1.103c0.665-0.689,0.687-1.776,0.048-2.489
			c-0.164-0.184-1.665-1.786-3.985-1.786c-2.669,0-4.538,1.428-4.999,3.818c-0.039,0.206-0.172,0.971-0.3,1.708H2.706
			c-0.884,0-1.642,0.633-1.798,1.504L0.631,9.451c-0.097,0.533,0.048,1.081,0.396,1.497c0.224,0.266,0.515,0.461,0.836,0.566
			l-0.788,4.488c-0.094,0.533,0.053,1.078,0.4,1.492s0.86,0.652,1.4,0.652h1.81c0.889,0,1.649-0.639,1.803-1.512l0.128-0.723
			c1.053,1.271,2.66,2.07,4.492,2.07c1.553,0,2.933-0.52,3.984-1.402c0.788,0.906,1.925,1.402,3.211,1.402
			c0.866,0,1.648-0.193,2.341-0.578c0.537,0.277,1.195,0.412,1.99,0.412h3.175c0.89,0,1.649-0.641,1.801-1.518l0.021-0.115
			c1.021,1.141,2.521,1.781,4.243,1.781c1.544,0,2.695-0.441,3.491-1.119c0.844,0.711,1.921,1.119,3.142,1.119
			c0.031,0,0.062-0.002,0.095-0.002c-0.085,0.65-0.11,1.756,0.626,2.639c0.822,0.99,2.045,1.105,2.896,1.105h0.884
			c0.892,0,1.652-0.643,1.803-1.521l0.239-1.4c0.059-0.342,0.017-0.689-0.114-1.004c0.408,0.119,0.843,0.184,1.295,0.184
			c0.867,0,1.65-0.193,2.343-0.58c0.536,0.277,1.195,0.412,1.99,0.412h0.887c0.45,0,0.867-0.162,1.188-0.439
			c0.688,0.391,1.486,0.607,2.355,0.607c0.825,0,1.572-0.188,2.237-0.561c0.489,0.24,1.137,0.393,1.985,0.393h3.086
			c0.89,0,1.65-0.639,1.802-1.518l0.342-1.99c0.812,2.215,2.929,3.676,5.617,3.676c1.812,0,3.287-0.541,4.512-1.656
			c0.369-0.334,0.585-0.805,0.598-1.303c0.012-0.414-0.118-0.82-0.367-1.15C75.342,13.524,75.689,12.921,75.67,12.247z"/>
	</g>
	<path fill="#FFFFFF" d="M28.629,14.478l1.309-0.885c0.443,0.664,1.014,1.088,1.972,1.088c0.904,0,1.255-0.332,1.255-0.83
		s-0.406-0.646-1.567-1.199c-1.069-0.533-1.844-1.143-1.844-2.322c0-1.474,1.18-2.267,2.692-2.267c1.179,0,2.046,0.479,2.581,1.161
		l-1.198,0.997c-0.314-0.406-0.682-0.738-1.4-0.738c-0.573,0-0.979,0.259-0.979,0.719s0.387,0.683,1.272,1.087
		c1.217,0.57,2.193,1.107,2.193,2.508c0,1.363-1.014,2.34-3.042,2.34C30.289,16.136,29.199,15.417,28.629,14.478z"/>
	<path fill="#FFFFFF" d="M40.461,17.907l0.555-3.191c-0.555,0.85-1.364,1.42-2.51,1.42c-1.86,0-3.206-1.492-3.206-3.723
		c0-2.672,1.751-4.351,3.834-4.351c1.272,0,2.341,0.645,2.784,1.844l0.24-1.678h1.824l-1.714,9.714
		c-0.055,0.369,0.036,0.537,0.351,0.537h0.625l-0.238,1.4h-0.884C40.684,19.88,40.185,19.399,40.461,17.907z M41.513,11.915
		c0.019-1.328-0.756-2.249-1.991-2.249c-1.419,0-2.323,1.104-2.323,2.708c0,1.311,0.738,2.178,1.936,2.178
		C40.517,14.552,41.513,13.444,41.513,11.915z"/>
	<path fill="#FFFFFF" d="M43.835,12.616l0.772-4.388h1.825l-0.756,4.294c-0.222,1.256,0.259,1.992,1.364,1.992
		c1.179,0,1.861-0.664,2.121-2.01l0.756-4.276h1.824l-1.014,5.806c-0.074,0.369,0.019,0.535,0.333,0.535h0.625l-0.238,1.4h-0.887
		c-1.42,0-1.696-0.57-1.677-1.234v-0.129c-0.665,1.014-1.475,1.529-2.656,1.529C44.534,16.136,43.465,14.772,43.835,12.616z"/>
	<path fill="#FFFFFF" d="M51.876,12.413c0-2.672,1.715-4.351,3.742-4.351c1.218,0,2.251,0.645,2.692,1.844l0.239-1.678h1.825
		l-1.014,5.806c-0.055,0.369,0.036,0.535,0.352,0.535h0.598l-0.237,1.4h-0.858c-1.44,0-1.679-0.498-1.679-1.217v-0.164
		c-0.626,0.994-1.4,1.547-2.544,1.547C53.223,16.136,51.876,14.681,51.876,12.413z M57.905,11.915c0-1.328-0.701-2.249-1.899-2.249
		c-1.364,0-2.229,1.104-2.229,2.708c0,1.311,0.7,2.178,1.86,2.178C56.947,14.552,57.905,13.444,57.905,11.915z"/>
	<path fill="#FFFFFF" d="M61.84,8.229h1.824l-0.35,1.586c0.681-1.254,1.475-1.733,2.396-1.733c0.498,0,1.076,0.197,1.371,0.364
		c0,0-0.463,0.32-0.759,0.702c-0.34,0.436-0.511,0.872-0.511,0.872s-0.304-0.21-0.646-0.21c-1.11,0-1.907,0.666-2.221,2.42
		l-0.645,3.74h-1.826L61.84,8.229z"/>
	<path fill="#FFFFFF" d="M70.082,14.624c0.994,0,1.657-0.367,2.138-0.811l1.124,1.143c-0.812,0.738-1.825,1.18-3.282,1.18
		c-2.58,0-4.148-1.676-4.148-3.926c0-2.433,1.789-4.147,4.075-4.147c2.581,0,3.78,1.752,3.854,4.239l-6.048,0.646
		C68.035,13.979,68.846,14.624,70.082,14.624z M71.888,11.271c-0.092-0.924-0.663-1.733-1.899-1.733
		c-1.253,0-2.064,0.792-2.23,2.175L71.888,11.271z"/>
	<path fill="#FFFFFF" d="M7.145,12.265c0-2.451,1.88-4.184,4.239-4.184c2.232,0,3.965,1.658,3.965,3.908
		c0,2.451-1.863,4.166-4.241,4.166C8.878,16.155,7.145,14.478,7.145,12.265z M13.466,11.97c0-1.363-0.827-2.304-2.137-2.304
		c-1.383,0-2.305,1.106-2.305,2.636c0,1.346,0.849,2.287,2.14,2.287C12.564,14.589,13.466,13.481,13.466,11.97z"/>
	<path fill="#FFFFFF" d="M15.906,12.634l0.774-4.388h1.823l-0.754,4.296c-0.223,1.254,0.257,1.99,1.363,1.99
		c1.18,0,1.861-0.664,2.119-2.01l0.757-4.276h1.826L22.8,14.054c-0.074,0.369,0.019,0.535,0.332,0.535h0.627l-0.238,1.4h-0.887
		c-1.42,0-1.695-0.572-1.678-1.234v-0.131c-0.663,1.014-1.475,1.531-2.653,1.531C16.606,16.155,15.535,14.79,15.906,12.634z"/>
	<path fill="#FFFFFF" d="M25.348,8.246h1.826l-0.352,1.586C27.504,8.578,28.299,8.1,29.218,8.1c0.498,0,0.649,0.029,0.964,0.16
		c0,0-0.304,0.132-0.671,0.777c-0.197,0.348-0.28,0.965-0.28,0.965s-0.159-0.188-0.51-0.188c-1.16,0-1.953,0.682-2.269,2.434
		l-0.644,3.742h-1.826L25.348,8.246z"/>
	<path fill="#FFFFFF" d="M8.058,2.721c-2.754,0-3.129,1.943-3.204,2.336C4.778,5.451,4.301,8.246,4.301,8.246H2.706L2.432,9.777
		h1.593l-1.149,6.542h1.81l1.147-6.542h1.271c0,0,0.353-0.564,0.677-0.881c0.42-0.413,0.89-0.65,0.89-0.65H6.107
		c0,0,0.401-2.267,0.461-2.574c0.056-0.283,0.213-1.149,1.121-1.277c1.112-0.156,1.833,0.701,1.833,0.701l1.156-1.199
		C10.679,3.896,9.627,2.721,8.058,2.721z"/>
	<g>
		<path fill="#B1B1B1" d="M75.61,8.225c-0.633,0-1.195-0.437-1.195-1.188c0-0.75,0.562-1.188,1.195-1.188
			c0.627,0,1.188,0.438,1.188,1.188C76.799,7.788,76.237,8.225,75.61,8.225z M75.61,6.127c-0.472,0-0.853,0.364-0.853,0.91
			c0,0.547,0.381,0.914,0.853,0.91v0.004c0.458,0,0.846-0.367,0.846-0.914C76.456,6.491,76.068,6.127,75.61,6.127z M75.41,7.675
			h-0.271V6.396h0.478c0.329,0,0.523,0.095,0.523,0.387c0,0.235-0.138,0.32-0.308,0.332l0.327,0.56h-0.325l-0.295-0.536H75.41V7.675
			z M75.652,6.922c0.123,0,0.195-0.025,0.195-0.168c0-0.131-0.141-0.141-0.245-0.141H75.41v0.309H75.652z"/>
	</g>
</g>
</svg>
