<?xml version="1.0" encoding="utf-8"?>
<!-- Generator: Adobe Illustrator 16.0.0, SVG Export Plug-In . SVG Version: 6.00 Build 0)  -->
<!DOCTYPE svg PUBLIC "-//W3C//DTD SVG 1.1//EN" "http://www.w3.org/Graphics/SVG/1.1/DTD/svg11.dtd">
<svg version="1.1" id="Layer_1" xmlns="http://www.w3.org/2000/svg" xmlns:xlink="http://www.w3.org/1999/xlink" x="0px" y="0px"
	 width="120px" height="140px" viewBox="-20.873 -11.636 120 140" enable-background="new -20.873 -11.636 120 140"
	 xml:space="preserve">
<filter  height="130%" id="dropshadow">
	<feGaussianBlur  in="SourceGraphic" stdDeviation="2"></feGaussianBlur>
	<!--    stdDeviation is how much to blur    -->
	<feOffset  dx="0" dy="2" result="offsetblur"></feOffset>
	<!--    how much to offset    -->
	<feMerge>
		<feMergeNode></feMergeNode>
		<!--    this contains the offset blurred image    -->
		<feMergeNode  in="SourceGraphic"></feMergeNode>
		<!--    this contains the element that the filter is applied to    -->
	</feMerge>
</filter>
<path fill="rgba(0,0,0,0.4)" filter="url(#dropshadow)" d="M39.125,0C17.547,0,0,17.331,0,39.127c0,22.821,19.565,46.169,33.829,62.579
	c0.052,0.062,2.342,2.622,5.171,2.622c0.006,0,0.238,0,0.251,0c2.827,0,5.119-2.561,5.17-2.622
	c14.271-16.41,33.833-39.756,33.833-62.579C78.254,17.331,60.703,0,39.125,0z M33.62,33.929l5.507-16.947l5.507,16.947H61.74
	L48.172,44.303l0,0l-0.136,0.099l5.284,16.271l0,0l-14.193-9.797l-14.195,9.797l5.285-16.271l-0.136-0.099l0,0L16.514,33.929H33.62z
	"/>
<path fill="#FFFFFF" d="M39.125,0C17.547,0,0,17.331,0,39.127c0,22.821,19.565,46.169,33.829,62.579
	c0.052,0.062,2.342,2.622,5.171,2.622c0.006,0,0.238,0,0.251,0c2.827,0,5.119-2.561,5.17-2.622
	c14.271-16.41,33.833-39.756,33.833-62.579C78.254,17.331,60.703,0,39.125,0z M33.62,33.929l5.507-16.947l5.507,16.947H61.74
	L48.172,44.303l0,0l-0.136,0.099l5.284,16.271l0,0l-14.193-9.797l-14.195,9.797l5.285-16.271l-0.136-0.099l0,0L16.514,33.929H33.62z
	"/>
</svg>
